<svg width="367" height="182" viewBox="0 0 367 182" fill="none" xmlns="http://www.w3.org/2000/svg">
<path d="M3.5 3L19.6716 26.9126L32.2947 0.951234L3.5 3ZM366.5 179.5L350.328 155.587L337.705 181.549L366.5 179.5ZM22.6417 15.087L345.172 171.91L347.358 167.413L24.8281 10.5904L22.6417 15.087Z" fill="#6547BA"/>
<path d="M0.5 179.5L29.2889 181.629L16.7378 155.632L0.5 179.5ZM364 4L335.211 1.87149L347.762 27.8677L364 4ZM21.849 171.969L344.825 16.034L342.651 11.5313L19.6751 167.466L21.849 171.969Z" fill="#6547BA"/>
<path d="M221.988 27.4766V44H216.363V22.8672H221.656L221.988 27.4766ZM228.355 22.7305L228.258 27.9453C227.984 27.9062 227.652 27.8737 227.262 27.8477C226.884 27.8086 226.539 27.7891 226.227 27.7891C225.432 27.7891 224.742 27.8932 224.156 28.1016C223.583 28.2969 223.102 28.5898 222.711 28.9805C222.333 29.3711 222.047 29.8464 221.852 30.4062C221.669 30.9661 221.565 31.6042 221.539 32.3203L220.406 31.9688C220.406 30.6016 220.543 29.3451 220.816 28.1992C221.09 27.0404 221.487 26.0312 222.008 25.1719C222.542 24.3125 223.193 23.6484 223.961 23.1797C224.729 22.7109 225.608 22.4766 226.598 22.4766C226.91 22.4766 227.229 22.5026 227.555 22.5547C227.88 22.5938 228.147 22.6523 228.355 22.7305Z" fill="#354551"/>
<path d="M271.84 99.1602C271.84 98.7565 271.723 98.3919 271.488 98.0664C271.254 97.7409 270.818 97.4414 270.18 97.168C269.555 96.8815 268.65 96.6211 267.465 96.3867C266.397 96.1523 265.401 95.8594 264.477 95.5078C263.565 95.1432 262.771 94.707 262.094 94.1992C261.43 93.6914 260.909 93.0924 260.531 92.4023C260.154 91.6992 259.965 90.8984 259.965 90C259.965 89.1146 260.154 88.2812 260.531 87.5C260.922 86.7188 261.475 86.0286 262.191 85.4297C262.921 84.8177 263.806 84.3424 264.848 84.0039C265.902 83.6523 267.087 83.4766 268.402 83.4766C270.238 83.4766 271.814 83.7695 273.129 84.3555C274.457 84.9414 275.473 85.7487 276.176 86.7773C276.892 87.793 277.25 88.9518 277.25 90.2539H271.625C271.625 89.707 271.508 89.2188 271.273 88.7891C271.052 88.3464 270.701 88.0013 270.219 87.7539C269.75 87.4935 269.138 87.3633 268.383 87.3633C267.758 87.3633 267.217 87.474 266.762 87.6953C266.306 87.9036 265.954 88.1901 265.707 88.5547C265.473 88.9062 265.355 89.2969 265.355 89.7266C265.355 90.0521 265.421 90.3451 265.551 90.6055C265.694 90.8529 265.922 91.0807 266.234 91.2891C266.547 91.4974 266.951 91.6927 267.445 91.875C267.953 92.0443 268.578 92.2005 269.32 92.3438C270.844 92.6562 272.204 93.0664 273.402 93.5742C274.6 94.069 275.551 94.7461 276.254 95.6055C276.957 96.4518 277.309 97.5651 277.309 98.9453C277.309 99.8828 277.1 100.742 276.684 101.523C276.267 102.305 275.668 102.988 274.887 103.574C274.105 104.147 273.168 104.596 272.074 104.922C270.993 105.234 269.776 105.391 268.422 105.391C266.456 105.391 264.789 105.039 263.422 104.336C262.068 103.633 261.039 102.741 260.336 101.66C259.646 100.566 259.301 99.4466 259.301 98.3008H264.633C264.659 99.069 264.854 99.6875 265.219 100.156C265.596 100.625 266.072 100.964 266.645 101.172C267.23 101.38 267.862 101.484 268.539 101.484C269.268 101.484 269.874 101.387 270.355 101.191C270.837 100.983 271.202 100.71 271.449 100.371C271.71 100.02 271.84 99.6159 271.84 99.1602Z" fill="#354551"/>
</svg>
