<svg width="475" height="138" viewBox="0 0 475 138" fill="none" xmlns="http://www.w3.org/2000/svg">
<path d="M140 3L6.5 135.5H335.5L468 3H140Z" stroke="#6547BA" stroke-width="5"/>
<path d="M265.51 80.4854V80.1777C265.51 78.9668 265.642 77.8535 265.905 76.8379C266.179 75.8223 266.574 74.9434 267.092 74.2012C267.619 73.459 268.269 72.8828 269.04 72.4727C269.812 72.0625 270.7 71.8574 271.706 71.8574C272.399 71.8574 273.02 71.9893 273.566 72.2529C274.123 72.5068 274.606 72.8779 275.017 73.3662C275.437 73.8545 275.793 74.4355 276.086 75.1094C276.379 75.7734 276.623 76.5156 276.818 77.3359C277.014 78.1465 277.165 79.0156 277.272 79.9434V80.5879C277.146 81.6914 276.945 82.7119 276.672 83.6494C276.398 84.5869 276.042 85.4072 275.603 86.1104C275.163 86.8037 274.616 87.3408 273.962 87.7217C273.317 88.1025 272.556 88.293 271.677 88.293C270.681 88.293 269.797 88.1025 269.025 87.7217C268.264 87.3408 267.619 86.8037 267.092 86.1104C266.564 85.4072 266.169 84.582 265.905 83.6348C265.642 82.6777 265.51 81.6279 265.51 80.4854ZM269.743 80.1777V80.4854C269.743 81.1396 269.792 81.7402 269.89 82.2871C269.997 82.8242 270.168 83.2979 270.402 83.708C270.637 84.1182 270.944 84.4355 271.325 84.6602C271.706 84.8848 272.175 84.9971 272.731 84.9971C273.278 84.9971 273.742 84.8945 274.123 84.6895C274.514 84.4844 274.836 84.2012 275.09 83.8398C275.344 83.4688 275.544 83.0342 275.69 82.5361C275.837 82.0283 275.944 81.4668 276.013 80.8516V79.7676C275.954 79.0938 275.852 78.4785 275.705 77.9219C275.568 77.3555 275.368 76.8672 275.104 76.457C274.851 76.0469 274.528 75.7295 274.138 75.5049C273.757 75.2705 273.298 75.1533 272.761 75.1533C272.214 75.1533 271.745 75.2852 271.354 75.5488C270.974 75.8125 270.661 76.1738 270.417 76.6328C270.183 77.0918 270.012 77.6289 269.904 78.2441C269.797 78.8496 269.743 79.4941 269.743 80.1777ZM275.852 72.1504H279.514V82.9316C279.514 83.3125 279.538 83.6299 279.587 83.8838C279.636 84.1377 279.704 84.3428 279.792 84.499C279.89 84.6553 280.002 84.7676 280.129 84.8359C280.266 84.8945 280.417 84.9238 280.583 84.9238C280.661 84.9238 280.725 84.9189 280.773 84.9092C280.822 84.8896 280.866 84.875 280.905 84.8652L281.257 87.9414C280.944 88.0977 280.646 88.1953 280.363 88.2344C280.08 88.2832 279.772 88.3076 279.44 88.3076C278.864 88.3076 278.342 88.2197 277.873 88.0439C277.404 87.8682 276.989 87.5996 276.628 87.2383C276.276 86.8672 275.988 86.4033 275.764 85.8467C275.539 85.2803 275.383 84.6113 275.295 83.8398V75.5488L275.852 72.1504ZM303.933 73.6445V76.9844H290.793V73.6445H303.933ZM303.933 79.9727V83.3125H290.793V79.9727H303.933ZM321.672 76.2227H323.664C325.109 76.2227 326.34 76.457 327.355 76.9258C328.371 77.3945 329.147 78.0537 329.685 78.9033C330.222 79.7529 330.49 80.7637 330.49 81.9355C330.49 83.2832 330.227 84.4307 329.699 85.3779C329.182 86.3252 328.435 87.0479 327.458 87.5459C326.481 88.0439 325.319 88.293 323.972 88.293C323.2 88.293 322.414 88.1807 321.613 87.9561C320.812 87.7217 320.07 87.3604 319.387 86.8721C318.713 86.3838 318.171 85.7637 317.761 85.0117C317.351 84.25 317.146 83.3418 317.146 82.2871L318.698 82.0967C318.698 82.6338 318.879 83.1221 319.24 83.5615C319.602 84.001 320.104 84.3525 320.749 84.6162C321.394 84.8701 322.146 84.9971 323.005 84.9971C323.698 84.9971 324.284 84.8604 324.763 84.5869C325.251 84.3135 325.622 83.9424 325.876 83.4736C326.14 83.0049 326.271 82.4727 326.271 81.877C326.271 81.1738 326.149 80.5684 325.905 80.0605C325.661 79.543 325.3 79.1475 324.821 78.874C324.343 78.5908 323.757 78.4492 323.063 78.4492H321.672V76.2227ZM322.683 66.3789C324.069 66.3789 325.275 66.6084 326.301 67.0674C327.336 67.5166 328.137 68.1709 328.703 69.0303C329.27 69.8799 329.553 70.915 329.553 72.1357C329.553 73.1416 329.289 74.0498 328.762 74.8604C328.234 75.6709 327.497 76.3154 326.55 76.7939C325.603 77.2725 324.494 77.5117 323.225 77.5117H321.672V75.4463H322.624C323.269 75.4463 323.786 75.3242 324.177 75.0801C324.577 74.8359 324.865 74.4893 325.041 74.04C325.227 73.5908 325.319 73.0537 325.319 72.4287C325.319 71.9502 325.222 71.501 325.026 71.0811C324.841 70.6611 324.553 70.3242 324.162 70.0703C323.771 69.8066 323.278 69.6748 322.683 69.6748C322.136 69.6748 321.643 69.8066 321.203 70.0703C320.773 70.3242 320.432 70.6855 320.178 71.1543C319.934 71.623 319.812 72.1797 319.812 72.8242V93.9326H315.593V72.8242C315.593 71.5352 315.915 70.4072 316.56 69.4404C317.204 68.4736 318.059 67.7217 319.123 67.1846C320.197 66.6475 321.384 66.3789 322.683 66.3789Z" fill="#354551"/>
<path d="M309.707 14.2929C309.317 13.9024 308.683 13.9024 308.293 14.2929L301.929 20.6569C301.538 21.0474 301.538 21.6805 301.929 22.0711C302.319 22.4616 302.953 22.4616 303.343 22.0711L309 16.4142L314.657 22.0711C315.047 22.4616 315.681 22.4616 316.071 22.0711C316.462 21.6805 316.462 21.0474 316.071 20.6569L309.707 14.2929ZM310 55V15H308V55H310Z" fill="#6547BA"/>
<path d="M363.707 14.2929C363.317 13.9024 362.683 13.9024 362.293 14.2929L355.929 20.6569C355.538 21.0474 355.538 21.6805 355.929 22.0711C356.319 22.4616 356.953 22.4616 357.343 22.0711L363 16.4142L368.657 22.0711C369.047 22.4616 369.681 22.4616 370.071 22.0711C370.462 21.6805 370.462 21.0474 370.071 20.6569L363.707 14.2929ZM364 55V15H362V55H364Z" fill="#00D3CD"/>
<path d="M321.012 46.6238V54.9343H318.199V44.3679H320.836L321.012 46.6238ZM320.602 49.28H319.84C319.84 48.4988 319.941 47.7957 320.143 47.1707C320.344 46.5391 320.628 46.002 320.992 45.5593C321.357 45.1101 321.79 44.7683 322.291 44.5339C322.799 44.2931 323.365 44.1726 323.99 44.1726C324.485 44.1726 324.938 44.2442 325.348 44.3875C325.758 44.5307 326.109 44.7585 326.402 45.071C326.702 45.3835 326.93 45.797 327.086 46.3113C327.249 46.8256 327.33 47.4539 327.33 48.196V54.9343H324.498V48.1863C324.498 47.7175 324.433 47.3529 324.303 47.0925C324.173 46.8321 323.98 46.6498 323.727 46.5457C323.479 46.435 323.173 46.3796 322.809 46.3796C322.431 46.3796 322.102 46.4545 321.822 46.6042C321.549 46.754 321.321 46.9623 321.139 47.2292C320.963 47.4897 320.829 47.7957 320.738 48.1472C320.647 48.4988 320.602 48.8764 320.602 49.28ZM333.531 50.7839V58.4695H331.549V53.0496L329.713 53.4695V51.9558L333.346 50.7839H333.531Z" fill="#354551"/>
<path d="M375.012 46.6238V54.9343H372.199V44.3679H374.836L375.012 46.6238ZM374.602 49.28H373.84C373.84 48.4988 373.941 47.7957 374.143 47.1707C374.344 46.5391 374.628 46.002 374.992 45.5593C375.357 45.1101 375.79 44.7683 376.291 44.5339C376.799 44.2931 377.365 44.1726 377.99 44.1726C378.485 44.1726 378.938 44.2442 379.348 44.3875C379.758 44.5307 380.109 44.7585 380.402 45.071C380.702 45.3835 380.93 45.797 381.086 46.3113C381.249 46.8256 381.33 47.4539 381.33 48.196V54.9343H378.498V48.1863C378.498 47.7175 378.433 47.3529 378.303 47.0925C378.173 46.8321 377.98 46.6498 377.727 46.5457C377.479 46.435 377.173 46.3796 376.809 46.3796C376.431 46.3796 376.102 46.4545 375.822 46.6042C375.549 46.754 375.321 46.9623 375.139 47.2292C374.963 47.4897 374.829 47.7957 374.738 48.1472C374.647 48.4988 374.602 48.8764 374.602 49.28ZM389.133 56.907V58.4695H383.107V57.1609L385.9 54.6316C386.141 54.4102 386.337 54.2019 386.486 54.0066C386.636 53.8048 386.747 53.6257 386.818 53.4695C386.896 53.3067 386.936 53.1733 386.936 53.0691C386.936 52.8152 386.854 52.6101 386.691 52.4539C386.535 52.2976 386.301 52.2195 385.988 52.2195C385.63 52.2195 385.36 52.3302 385.178 52.5515C385.002 52.7664 384.914 53.0235 384.914 53.323H382.932C382.932 52.8347 383.052 52.3888 383.293 51.9851C383.534 51.5815 383.876 51.2592 384.318 51.0183C384.761 50.7709 385.288 50.6472 385.9 50.6472C386.538 50.6472 387.082 50.7449 387.531 50.9402C387.98 51.129 388.322 51.4024 388.557 51.7605C388.798 52.1186 388.918 52.5515 388.918 53.0593C388.918 53.4369 388.84 53.7787 388.684 54.0847C388.527 54.3907 388.293 54.6934 387.98 54.9929C387.668 55.2924 387.271 55.6277 386.789 55.9988L385.705 56.907H389.133Z" fill="#354551"/>
<path d="M324 41.5181L327 39.086V38.432L324 36L323.37 36.6744L325.283 38.2277H318V39.2904H325.283L323.37 40.8437L324 41.5181Z" fill="black"/>
<path d="M378 41.5181L381 39.086V38.432L378 36L377.37 36.6744L379.283 38.2277H372V39.2904H379.283L377.37 40.8437L378 41.5181Z" fill="black"/>
</svg>
