<svg width="475" height="227" viewBox="0 0 475 227" fill="none" xmlns="http://www.w3.org/2000/svg">
<path d="M90 81L410 47M6.5 224L140 91.5H468L335.5 224H6.5Z" stroke="#6547BA" stroke-width="5"/>
<path d="M92 156L404 122" stroke="#6547BA" stroke-width="5" stroke-dasharray="9 9"/>
<path d="M373.988 20.4766V37H368.363V15.8672H373.656L373.988 20.4766ZM380.355 15.7305L380.258 20.9453C379.984 20.9062 379.652 20.8737 379.262 20.8477C378.884 20.8086 378.539 20.7891 378.227 20.7891C377.432 20.7891 376.742 20.8932 376.156 21.1016C375.583 21.2969 375.102 21.5898 374.711 21.9805C374.333 22.3711 374.047 22.8464 373.852 23.4062C373.669 23.9661 373.565 24.6042 373.539 25.3203L372.406 24.9688C372.406 23.6016 372.543 22.3451 372.816 21.1992C373.09 20.0404 373.487 19.0312 374.008 18.1719C374.542 17.3125 375.193 16.6484 375.961 16.1797C376.729 15.7109 377.608 15.4766 378.598 15.4766C378.91 15.4766 379.229 15.5026 379.555 15.5547C379.88 15.5938 380.147 15.6523 380.355 15.7305Z" fill="#354551"/>
<path d="M359.676 147.98V147.57C359.676 145.956 359.852 144.471 360.203 143.117C360.568 141.763 361.095 140.591 361.785 139.602C362.488 138.612 363.354 137.844 364.383 137.297C365.411 136.75 366.596 136.477 367.938 136.477C368.862 136.477 369.689 136.652 370.418 137.004C371.16 137.342 371.805 137.837 372.352 138.488C372.911 139.139 373.387 139.914 373.777 140.812C374.168 141.698 374.493 142.688 374.754 143.781C375.014 144.862 375.216 146.021 375.359 147.258V148.117C375.19 149.589 374.923 150.949 374.559 152.199C374.194 153.449 373.719 154.543 373.133 155.48C372.547 156.405 371.818 157.121 370.945 157.629C370.086 158.137 369.07 158.391 367.898 158.391C366.57 158.391 365.392 158.137 364.363 157.629C363.348 157.121 362.488 156.405 361.785 155.48C361.082 154.543 360.555 153.443 360.203 152.18C359.852 150.904 359.676 149.504 359.676 147.98ZM365.32 147.57V147.98C365.32 148.853 365.385 149.654 365.516 150.383C365.659 151.099 365.887 151.73 366.199 152.277C366.512 152.824 366.922 153.247 367.43 153.547C367.938 153.846 368.562 153.996 369.305 153.996C370.034 153.996 370.652 153.859 371.16 153.586C371.681 153.312 372.111 152.935 372.449 152.453C372.788 151.958 373.055 151.379 373.25 150.715C373.445 150.038 373.589 149.289 373.68 148.469V147.023C373.602 146.125 373.465 145.305 373.27 144.562C373.087 143.807 372.82 143.156 372.469 142.609C372.13 142.062 371.701 141.639 371.18 141.34C370.672 141.027 370.06 140.871 369.344 140.871C368.615 140.871 367.99 141.047 367.469 141.398C366.961 141.75 366.544 142.232 366.219 142.844C365.906 143.456 365.678 144.172 365.535 144.992C365.392 145.799 365.32 146.659 365.32 147.57ZM373.465 136.867H378.348V151.242C378.348 151.75 378.38 152.173 378.445 152.512C378.51 152.85 378.602 153.124 378.719 153.332C378.849 153.54 378.999 153.69 379.168 153.781C379.35 153.859 379.552 153.898 379.773 153.898C379.878 153.898 379.962 153.892 380.027 153.879C380.092 153.853 380.151 153.833 380.203 153.82L380.672 157.922C380.255 158.13 379.858 158.26 379.48 158.312C379.103 158.378 378.693 158.41 378.25 158.41C377.482 158.41 376.785 158.293 376.16 158.059C375.535 157.824 374.982 157.466 374.5 156.984C374.031 156.49 373.647 155.871 373.348 155.129C373.048 154.374 372.84 153.482 372.723 152.453V141.398L373.465 136.867Z" fill="#354551"/>
</svg>
