<svg width="370" height="264" viewBox="0 0 370 264" fill="none" xmlns="http://www.w3.org/2000/svg">
<path d="M0 263.5L28.8071 261.633L12.7868 237.619L0 263.5ZM369.5 17L340.693 18.8669L356.713 42.8811L369.5 17ZM20.1046 253.093L352.17 31.5663L349.395 27.4069L17.3298 248.934L20.1046 253.093Z" fill="#6547BA"/>
<path d="M275.488 20.4766V37H269.863V15.8672H275.156L275.488 20.4766ZM281.855 15.7305L281.758 20.9453C281.484 20.9062 281.152 20.8737 280.762 20.8477C280.384 20.8086 280.039 20.7891 279.727 20.7891C278.932 20.7891 278.242 20.8932 277.656 21.1016C277.083 21.2969 276.602 21.5898 276.211 21.9805C275.833 22.3711 275.547 22.8464 275.352 23.4062C275.169 23.9661 275.065 24.6042 275.039 25.3203L273.906 24.9688C273.906 23.6016 274.043 22.3451 274.316 21.1992C274.59 20.0404 274.987 19.0312 275.508 18.1719C276.042 17.3125 276.693 16.6484 277.461 16.1797C278.229 15.7109 279.108 15.4766 280.098 15.4766C280.41 15.4766 280.729 15.5026 281.055 15.5547C281.38 15.5938 281.647 15.6523 281.855 15.7305Z" fill="#354551"/>
<path d="M325.34 92.1602C325.34 91.7565 325.223 91.3919 324.988 91.0664C324.754 90.7409 324.318 90.4414 323.68 90.168C323.055 89.8815 322.15 89.6211 320.965 89.3867C319.897 89.1523 318.901 88.8594 317.977 88.5078C317.065 88.1432 316.271 87.707 315.594 87.1992C314.93 86.6914 314.409 86.0924 314.031 85.4023C313.654 84.6992 313.465 83.8984 313.465 83C313.465 82.1146 313.654 81.2812 314.031 80.5C314.422 79.7188 314.975 79.0286 315.691 78.4297C316.421 77.8177 317.306 77.3424 318.348 77.0039C319.402 76.6523 320.587 76.4766 321.902 76.4766C323.738 76.4766 325.314 76.7695 326.629 77.3555C327.957 77.9414 328.973 78.7487 329.676 79.7773C330.392 80.793 330.75 81.9518 330.75 83.2539H325.125C325.125 82.707 325.008 82.2188 324.773 81.7891C324.552 81.3464 324.201 81.0013 323.719 80.7539C323.25 80.4935 322.638 80.3633 321.883 80.3633C321.258 80.3633 320.717 80.474 320.262 80.6953C319.806 80.9036 319.454 81.1901 319.207 81.5547C318.973 81.9062 318.855 82.2969 318.855 82.7266C318.855 83.0521 318.921 83.3451 319.051 83.6055C319.194 83.8529 319.422 84.0807 319.734 84.2891C320.047 84.4974 320.451 84.6927 320.945 84.875C321.453 85.0443 322.078 85.2005 322.82 85.3438C324.344 85.6562 325.704 86.0664 326.902 86.5742C328.1 87.069 329.051 87.7461 329.754 88.6055C330.457 89.4518 330.809 90.5651 330.809 91.9453C330.809 92.8828 330.6 93.7422 330.184 94.5234C329.767 95.3047 329.168 95.9883 328.387 96.5742C327.605 97.1471 326.668 97.5964 325.574 97.9219C324.493 98.2344 323.276 98.3906 321.922 98.3906C319.956 98.3906 318.289 98.0391 316.922 97.3359C315.568 96.6328 314.539 95.7409 313.836 94.6602C313.146 93.5664 312.801 92.4466 312.801 91.3008H318.133C318.159 92.069 318.354 92.6875 318.719 93.1562C319.096 93.625 319.572 93.9635 320.145 94.1719C320.73 94.3802 321.362 94.4844 322.039 94.4844C322.768 94.4844 323.374 94.3867 323.855 94.1914C324.337 93.9831 324.702 93.7096 324.949 93.3711C325.21 93.0195 325.34 92.6159 325.34 92.1602Z" fill="#354551"/>
</svg>
