<svg width="364" height="130" viewBox="0 0 364 130" fill="none" xmlns="http://www.w3.org/2000/svg">
<path d="M0 115L25 129.434V100.566L0 115ZM363.5 115L338.5 100.566V129.434L363.5 115ZM22.5 117.5H341V112.5H22.5V117.5Z" fill="#6547BA"/>
<path d="M0 54L25 68.4338V39.5662L0 54ZM363.5 54L338.5 39.5662V68.4338L363.5 54ZM22.5 56.5H341V51.5H22.5V56.5Z" fill="#6547BA"/>
<path d="M245.988 20.4766V37H240.363V15.8672H245.656L245.988 20.4766ZM252.355 15.7305L252.258 20.9453C251.984 20.9062 251.652 20.8737 251.262 20.8477C250.884 20.8086 250.539 20.7891 250.227 20.7891C249.432 20.7891 248.742 20.8932 248.156 21.1016C247.583 21.2969 247.102 21.5898 246.711 21.9805C246.333 22.3711 246.047 22.8464 245.852 23.4062C245.669 23.9661 245.565 24.6042 245.539 25.3203L244.406 24.9688C244.406 23.6016 244.543 22.3451 244.816 21.1992C245.09 20.0404 245.487 19.0312 246.008 18.1719C246.542 17.3125 247.193 16.6484 247.961 16.1797C248.729 15.7109 249.608 15.4766 250.598 15.4766C250.91 15.4766 251.229 15.5026 251.555 15.5547C251.88 15.5938 252.147 15.6523 252.355 15.7305Z" fill="#354551"/>
<path d="M295.84 92.1602C295.84 91.7565 295.723 91.3919 295.488 91.0664C295.254 90.7409 294.818 90.4414 294.18 90.168C293.555 89.8815 292.65 89.6211 291.465 89.3867C290.397 89.1523 289.401 88.8594 288.477 88.5078C287.565 88.1432 286.771 87.707 286.094 87.1992C285.43 86.6914 284.909 86.0924 284.531 85.4023C284.154 84.6992 283.965 83.8984 283.965 83C283.965 82.1146 284.154 81.2812 284.531 80.5C284.922 79.7188 285.475 79.0286 286.191 78.4297C286.921 77.8177 287.806 77.3424 288.848 77.0039C289.902 76.6523 291.087 76.4766 292.402 76.4766C294.238 76.4766 295.814 76.7695 297.129 77.3555C298.457 77.9414 299.473 78.7487 300.176 79.7773C300.892 80.793 301.25 81.9518 301.25 83.2539H295.625C295.625 82.707 295.508 82.2188 295.273 81.7891C295.052 81.3464 294.701 81.0013 294.219 80.7539C293.75 80.4935 293.138 80.3633 292.383 80.3633C291.758 80.3633 291.217 80.474 290.762 80.6953C290.306 80.9036 289.954 81.1901 289.707 81.5547C289.473 81.9062 289.355 82.2969 289.355 82.7266C289.355 83.0521 289.421 83.3451 289.551 83.6055C289.694 83.8529 289.922 84.0807 290.234 84.2891C290.547 84.4974 290.951 84.6927 291.445 84.875C291.953 85.0443 292.578 85.2005 293.32 85.3438C294.844 85.6562 296.204 86.0664 297.402 86.5742C298.6 87.069 299.551 87.7461 300.254 88.6055C300.957 89.4518 301.309 90.5651 301.309 91.9453C301.309 92.8828 301.1 93.7422 300.684 94.5234C300.267 95.3047 299.668 95.9883 298.887 96.5742C298.105 97.1471 297.168 97.5964 296.074 97.9219C294.993 98.2344 293.776 98.3906 292.422 98.3906C290.456 98.3906 288.789 98.0391 287.422 97.3359C286.068 96.6328 285.039 95.7409 284.336 94.6602C283.646 93.5664 283.301 92.4466 283.301 91.3008H288.633C288.659 92.069 288.854 92.6875 289.219 93.1562C289.596 93.625 290.072 93.9635 290.645 94.1719C291.23 94.3802 291.862 94.4844 292.539 94.4844C293.268 94.4844 293.874 94.3867 294.355 94.1914C294.837 93.9831 295.202 93.7096 295.449 93.3711C295.71 93.0195 295.84 92.6159 295.84 92.1602Z" fill="#354551"/>
</svg>
