<svg width="389" height="67" viewBox="0 0 389 67" fill="none" xmlns="http://www.w3.org/2000/svg">
<path d="M18.7976 10.5191L16.7719 12.2658L16.3463 11.7814L17.638 10.6659H12.7207V9.90259H17.638L16.3463 8.78703L16.7719 8.30264L18.7976 10.0494V10.5191ZM13.5721 15.8767C13.6308 15.5978 13.6895 15.3483 13.7188 15.1575C13.7482 14.9666 13.7629 14.8052 13.7629 14.6584C13.7629 14.541 13.7629 14.4382 13.7188 14.3501C13.6895 14.2768 13.6454 14.2034 13.5721 14.1593C13.4987 14.1153 13.4106 14.0859 13.3078 14.0566C13.1904 14.0419 13.0583 14.0272 12.8968 14.0125L12.9849 13.5869L14.9518 13.5135H15.4215L14.2619 18.695C14.2032 18.9592 14.1592 19.1793 14.1298 19.3848C14.1005 19.5903 14.0858 19.7518 14.0858 19.8986C14.0858 20.1188 14.1152 20.2655 14.1885 20.3683C14.2619 20.471 14.3647 20.5151 14.5261 20.5151C14.7023 20.5151 14.8931 20.4417 15.0839 20.2802C15.2747 20.1188 15.5243 19.8839 15.8032 19.561L16.2582 20.016C16.0087 20.2802 15.7738 20.5004 15.583 20.6912C15.3775 20.8674 15.1867 21.0288 15.0105 21.1316C14.8344 21.249 14.6436 21.3224 14.4674 21.3664C14.2913 21.4105 14.0858 21.4398 13.8803 21.4398C13.6895 21.4398 13.528 21.4105 13.3812 21.3371C13.2344 21.2637 13.117 21.1609 13.0289 21.0435C12.9262 20.9261 12.8528 20.7793 12.8088 20.6178C12.7647 20.4564 12.7354 20.2802 12.7354 20.0894C12.7354 19.8986 12.7501 19.6637 12.7941 19.4142C12.8381 19.15 12.8822 18.8564 12.9702 18.5335L13.5721 15.8914V15.8767ZM51.9854 21.4398C51.868 21.9976 51.7212 22.4967 51.5304 22.9223C51.3543 23.348 51.1194 23.715 50.8259 24.0085C50.547 24.3021 50.2094 24.5223 49.813 24.6691C49.4167 24.8159 48.9617 24.9039 48.4333 24.9039C48.2718 24.9039 48.1397 24.9039 48.037 24.8892C47.9342 24.8892 47.8315 24.8599 47.7434 24.8305L47.9342 24.126C48.0223 24.1553 48.1103 24.17 48.2278 24.1847C48.3452 24.1994 48.448 24.1847 48.5507 24.1847C48.7709 24.1847 48.9764 24.1553 49.1672 24.0819C49.358 24.0085 49.5342 23.8911 49.6956 23.7003C49.8571 23.5095 50.0039 23.2599 50.136 22.937C50.2681 22.6141 50.4002 22.1884 50.5029 21.6747L51.8093 15.862C51.868 15.5831 51.9267 15.3336 51.9561 15.1428C51.9854 14.952 52.0001 14.7905 52.0001 14.6437C52.0001 14.5263 52.0001 14.4235 51.9561 14.3355C51.9267 14.2621 51.8827 14.1887 51.8093 14.1446C51.7359 14.1006 51.6478 14.0713 51.5451 14.0419C51.4277 14.0272 51.2956 14.0125 51.1341 13.9979L51.2222 13.5722L53.1891 13.4988H53.6441L51.9708 21.4105L51.9854 21.4398ZM56.2275 10.5191L54.2019 12.2658L53.7762 11.7814L55.0679 10.6659H50.1506V9.90259H55.0679L53.7762 8.78703L54.2019 8.30264L56.2275 10.0494V10.5191ZM88.5347 17.9904C88.476 17.7849 88.4319 17.6381 88.3732 17.55C88.3145 17.4766 88.2558 17.4179 88.1824 17.3886C88.109 17.3592 87.9916 17.3445 87.8154 17.3445H87.2577L86.421 21.293H85.0266L87.0962 12.075C87.1696 11.7667 87.2136 11.5172 87.243 11.3411C87.2723 11.1649 87.287 11.0181 87.287 10.8714C87.287 10.6512 87.2136 10.4897 87.0815 10.4017C86.9494 10.3136 86.6999 10.2549 86.3476 10.2549L86.4504 9.8292L88.4907 9.75581H88.9604L87.3751 16.8014H87.6393C88.0356 16.8014 88.4907 16.6253 89.0044 16.273C89.5035 15.9207 89.9145 15.5978 90.208 15.2896C90.5163 14.9813 90.6631 14.7024 90.6631 14.4235C90.6631 14.1593 90.4869 14.0125 90.12 13.9832L90.208 13.5869H92.8208L92.9676 13.9832C92.5272 14.3795 92.0428 14.7758 91.5438 15.1721L89.5475 16.7134L90.3401 19.6197C90.3988 19.8692 90.4576 20.0454 90.5163 20.1628C90.5603 20.2802 90.6337 20.3536 90.6924 20.4123C90.7658 20.471 90.8539 20.4857 90.9566 20.4857C91.1034 20.4857 91.2649 20.4123 91.4557 20.2655C91.6465 20.1188 91.8667 19.8986 92.1162 19.6197L92.5713 20.0747C92.0869 20.5885 91.6905 20.9408 91.3676 21.1462C91.0447 21.3517 90.7511 21.4398 90.4429 21.4398C90.0759 21.4398 89.7823 21.3371 89.5769 21.1316C89.3567 20.9261 89.1952 20.5738 89.0631 20.0894L88.5347 17.9904Z" fill="black"/>
<path d="M93.6569 7.21644L91.6313 8.96317L91.2056 8.47878L92.4973 7.36322H87.5801V6.59995H92.4973L91.2056 5.48439L91.6313 5L93.6569 6.74673V7.21644Z" fill="black"/>
<path d="M15.8327 29.1166V40.008H14.5557V30.5258L11.7521 32.3752L11.1797 31.4211L14.6438 29.1166H15.8327Z" fill="black"/>
<path d="M55.0523 40.008H48.0801V38.9365L51.2653 35.5898C51.8231 35.0174 52.2194 34.577 52.4689 34.2834C52.7185 33.9899 52.9533 33.6376 53.1588 33.2266C53.3643 32.8156 53.4671 32.4046 53.4671 32.0083C53.4671 31.3037 53.2762 30.8046 52.8946 30.5258C52.513 30.2469 51.9111 30.1001 51.0892 30.1001C50.3699 30.1001 49.5773 30.1882 48.6966 30.379L48.2709 30.467L48.1681 29.4102C49.2103 29.1166 50.2965 28.9698 51.4121 28.9698C52.5276 28.9698 53.3643 29.2047 53.9368 29.6744C54.5092 30.1441 54.7881 30.878 54.7881 31.8909C54.7881 32.6688 54.612 33.3293 54.2744 33.9018C53.9368 34.4743 53.3496 35.1641 52.513 35.9715L49.6066 38.9218H55.067V40.0227L55.0523 40.008Z" fill="black"/>
<path d="M78.7588 36.4265V35.3109H85.8191V36.4265H78.7588Z" fill="black"/>
<path d="M90.971 29.3955C92.0132 29.0873 93.1141 28.9405 94.303 28.9405C95.492 28.9405 96.3433 29.1607 96.8718 29.6157C97.4002 30.0707 97.6644 30.79 97.6644 31.7734C97.6644 32.2872 97.591 32.6395 97.4589 32.8743C97.3268 33.0945 97.2094 33.2706 97.1213 33.388C97.0332 33.5055 96.9305 33.6229 96.7984 33.7403C96.5488 33.9312 96.358 34.0633 96.2259 34.1366L96.0498 34.2541C96.6809 34.4889 97.1653 34.7825 97.4736 35.1348C97.7818 35.4871 97.9286 36.0742 97.9286 36.8962C97.9286 38.0117 97.6497 38.8337 97.0773 39.3768C96.5048 39.9199 95.6094 40.1842 94.3911 40.1842C93.4223 40.1842 92.3948 40.0814 91.3233 39.8612L90.8096 39.7438L90.927 38.7016C92.116 38.9512 93.2315 39.0686 94.259 39.0686C95.8296 39.0686 96.6222 38.3494 96.6222 36.9549C96.6222 35.6485 95.8736 34.9586 94.3764 34.8999H92.1747V33.8137H94.3764C94.8461 33.8137 95.2865 33.6229 95.7122 33.2559C96.1378 32.889 96.358 32.4046 96.358 31.7881C96.358 31.1716 96.1819 30.7459 95.8443 30.4817C95.5067 30.2175 94.9342 30.0707 94.1269 30.0707C93.2462 30.0707 92.3802 30.1588 91.5141 30.3203L91.0885 30.4083L90.971 29.3955Z" fill="black"/>
<path d="M5 56.2423V55.1268H12.075V56.2423H5Z" fill="black"/>
<path d="M17.1976 49.2114C18.2398 48.9031 19.3406 48.7563 20.5296 48.7563C21.7185 48.7563 22.5699 48.9765 23.0983 49.4315C23.6267 49.8866 23.891 50.6058 23.891 51.5893C23.891 52.103 23.8176 52.4553 23.6855 52.6901C23.5533 52.9103 23.4359 53.0865 23.3478 53.2039C23.2598 53.3213 23.157 53.4387 23.0249 53.5562C22.7754 53.747 22.5846 53.8791 22.4525 53.9525L22.2763 54.0699C22.9075 54.3048 23.3919 54.5983 23.7001 54.9506C24.0084 55.3029 24.1552 55.89 24.1552 56.712C24.1552 57.8276 23.8763 58.6496 23.3038 59.1927C22.7314 59.7358 21.836 60 20.6177 60C19.6489 60 18.6214 59.8972 17.5499 59.6771L17.0361 59.5596L17.1536 58.5175C18.3425 58.767 19.4581 58.8844 20.4856 58.8844C22.0561 58.8844 22.8488 58.1652 22.8488 56.7707C22.8488 55.4644 22.1002 54.7745 20.603 54.7158H18.4012V53.6296H20.603C21.0727 53.6296 21.513 53.4387 21.9387 53.0718C22.3644 52.7048 22.5846 52.2204 22.5846 51.6039C22.5846 50.9875 22.4084 50.5618 22.0708 50.2976C21.7332 50.0334 21.1608 49.8866 20.3535 49.8866C19.4727 49.8866 18.6067 49.9746 17.7407 50.1361L17.315 50.2242L17.1976 49.2114Z" fill="black"/>
<path d="M42.416 56.2423V55.1268H49.491V56.2423H42.416Z" fill="black"/>
<path d="M61.3944 50.0921C60.411 49.96 59.4422 49.9013 58.5028 49.9013C57.5634 49.9013 56.8441 50.2242 56.3451 50.87C55.8313 51.5159 55.5818 52.4553 55.5818 53.6589L55.9928 53.4975C56.2717 53.3947 56.6386 53.292 57.0937 53.1892C57.5487 53.0865 57.9597 53.0278 58.312 53.0278C60.7633 53.0278 61.9816 54.158 61.9816 56.4185C61.9816 57.5781 61.644 58.4588 60.9835 59.0899C60.3229 59.7211 59.3835 60.0294 58.1652 60.0294C55.5671 60.0294 54.2607 58.1359 54.2607 54.3635C54.2607 52.4553 54.6277 51.0609 55.3763 50.1508C56.1249 49.2554 57.1671 48.8004 58.5175 48.8004C59.4129 48.8004 60.2642 48.8591 61.0568 49.0059L61.4972 49.094L61.3798 50.1361L61.3944 50.0921ZM58.2239 54.1433C57.8569 54.1433 57.446 54.202 56.9909 54.3048C56.5359 54.4075 56.1983 54.5103 55.9488 54.613L55.5671 54.7745C55.5671 56.0222 55.7873 57.0203 56.1983 57.7689C56.6093 58.5175 57.2405 58.8698 58.0918 58.8698C58.9432 58.8698 59.5743 58.6643 60 58.2386C60.4257 57.8129 60.6458 57.2111 60.6458 56.4332C60.6458 55.6552 60.4403 55.0827 60.0147 54.7011C59.589 54.3195 58.9872 54.1433 58.2239 54.1433Z" fill="black"/>
<path d="M88.4473 58.8698C90.4436 58.8698 91.4417 57.6074 91.4564 55.0681C90.3555 55.4937 89.4161 55.6992 88.6235 55.6992C86.2456 55.6992 85.0566 54.5984 85.0566 52.3819C85.0566 51.2664 85.3942 50.3857 86.0841 49.7398C86.7593 49.094 87.6841 48.771 88.8437 48.771C90.1794 48.771 91.1629 49.2701 91.8087 50.2535C92.4546 51.237 92.7775 52.6902 92.7775 54.5984C92.7775 56.5065 92.4105 57.8863 91.6766 58.7377C90.9427 59.589 89.8712 60.0147 88.4473 60.0147C87.6254 60.0147 86.774 59.9413 85.8933 59.7798L85.4676 59.7211L85.5851 58.6936C86.5685 58.8257 87.5373 58.8991 88.462 58.8991L88.4473 58.8698ZM88.7116 54.5837C89.3868 54.5837 90.1647 54.4369 91.0454 54.1433L91.4711 53.9965C91.4417 51.2664 90.561 49.9013 88.829 49.9013C88.051 49.9013 87.4492 50.1214 87.0235 50.5765C86.5832 51.0168 86.3777 51.6333 86.3777 52.3966C86.3777 53.8644 87.1557 54.5984 88.7262 54.5984L88.7116 54.5837Z" fill="black"/>
<path d="M109.524 31.612V30.467H116.658V31.612H109.524ZM109.524 34.6651V33.5201H116.658V34.6651H109.524Z" fill="black"/>
<path d="M123.131 37.6741C121.987 35.1054 121.414 32.7569 121.414 30.6432C121.414 29.5863 121.561 28.4414 121.84 27.1938C122.119 25.9461 122.412 24.9773 122.691 24.2728L123.117 23.2159H124.306C123.924 24.2287 123.557 25.4764 123.234 26.9736C122.911 28.4708 122.735 29.6744 122.735 30.6285C122.735 31.5826 122.867 32.6248 123.131 33.799C123.396 34.9733 123.66 35.9127 123.924 36.6173L124.306 37.6741H123.117H123.131Z" fill="black"/>
<path d="M133.613 25.814V36.7053H132.336V27.2231L129.532 29.0726L128.96 28.1185L132.424 25.814H133.613Z" fill="black"/>
<path d="M137.841 26.3571C138.531 25.8727 139.485 25.6378 140.689 25.6378C141.893 25.6378 142.861 25.8727 143.566 26.3571C144.27 26.8415 144.637 27.546 144.637 28.4854C144.637 29.1753 144.505 29.6891 144.226 30.0414C143.948 30.3936 143.478 30.7312 142.817 31.0248C143.478 31.3184 143.977 31.6707 144.3 32.067C144.623 32.4633 144.799 33.0358 144.799 33.755C144.799 35.8393 143.434 36.8815 140.718 36.8815C138.003 36.8815 136.638 35.898 136.638 33.9458C136.638 33.1679 136.784 32.566 137.093 32.1697C137.401 31.7587 137.871 31.3771 138.517 31.0248C137.915 30.7312 137.489 30.3936 137.225 30.012C136.961 29.6304 136.814 29.1166 136.814 28.4708C136.814 27.546 137.151 26.8415 137.841 26.3718V26.3571ZM137.988 33.7256C137.988 35.0614 138.898 35.7219 140.718 35.7219C142.538 35.7219 143.448 35.0173 143.448 33.6229C143.448 33.0358 143.287 32.6101 142.964 32.3312C142.641 32.0523 142.157 31.8174 141.526 31.6266H139.794C139.192 31.7881 138.737 32.0376 138.443 32.3605C138.15 32.6835 138.003 33.1385 138.003 33.7256H137.988ZM143.287 28.6175C143.287 27.3992 142.436 26.7827 140.733 26.7827C139.03 26.7827 138.179 27.3846 138.179 28.6029C138.179 29.0873 138.311 29.4836 138.575 29.7771C138.839 30.0707 139.25 30.3202 139.794 30.5257H141.526C142.127 30.3349 142.568 30.1001 142.861 29.7918C143.155 29.4983 143.302 29.1019 143.302 28.6175H143.287Z" fill="black"/>
<path d="M150.287 33.1238V32.0083H157.362V33.1238H150.287Z" fill="black"/>
<path d="M171.028 25.814V36.7054H169.751V27.2231L166.947 29.0726L166.375 28.1185L169.839 25.814H171.028Z" fill="black"/>
<path d="M175.256 26.3571C175.946 25.8727 176.9 25.6378 178.104 25.6378C179.308 25.6378 180.276 25.8727 180.981 26.3571C181.686 26.8415 182.052 27.546 182.052 28.4854C182.052 29.1753 181.92 29.6891 181.641 30.0414C181.363 30.3936 180.893 30.7312 180.232 31.0248C180.893 31.3184 181.392 31.6707 181.715 32.067C182.052 32.4633 182.214 33.0358 182.214 33.755C182.214 35.8393 180.849 36.8815 178.133 36.8815C175.418 36.8815 174.053 35.898 174.053 33.9458C174.053 33.1679 174.2 32.566 174.508 32.1697C174.816 31.7587 175.286 31.3771 175.932 31.0248C175.33 30.7312 174.904 30.3936 174.64 30.012C174.376 29.6304 174.229 29.1166 174.229 28.4708C174.229 27.546 174.566 26.8415 175.256 26.3718V26.3571ZM175.403 33.7256C175.403 35.0614 176.313 35.7219 178.133 35.7219C179.953 35.7219 180.864 35.0173 180.864 33.6229C180.864 33.0358 180.702 32.6101 180.379 32.3312C180.056 32.0523 179.572 31.8174 178.941 31.6266H177.209C176.607 31.7881 176.152 32.0376 175.858 32.3605C175.565 32.6835 175.418 33.1385 175.418 33.7256H175.403ZM180.702 28.6175C180.702 27.3992 179.851 26.7827 178.148 26.7827C176.445 26.7827 175.594 27.3846 175.594 28.6029C175.594 29.0873 175.726 29.4836 175.99 29.7771C176.254 30.0707 176.665 30.3202 177.209 30.5257H178.941C179.528 30.3349 179.983 30.1001 180.276 29.7918C180.57 29.4983 180.717 29.1019 180.717 28.6175H180.702Z" fill="black"/>
<path d="M185.559 28.4855C185.677 29.2487 185.735 30.0707 185.735 30.9368C185.735 31.8028 185.589 32.8156 185.31 33.9899C185.016 35.1641 184.737 36.0742 184.458 36.7054L184.033 37.6741H182.844C183.211 36.7934 183.578 35.6338 183.915 34.1954C184.253 32.7569 184.414 31.5679 184.414 30.6285C184.414 29.6891 184.282 28.6029 184.033 27.3699C183.768 26.1369 183.519 25.1388 183.255 24.3755L182.858 23.2159H184.047C184.781 24.8599 185.28 26.6066 185.589 28.4855H185.559Z" fill="black"/>
<path d="M197.111 25.9314L195.085 27.6781L194.66 27.1937L195.951 26.0782H191.034V25.3149H195.951L194.66 24.1994L195.085 23.715L197.111 25.4617V25.9314ZM191.886 31.2743C191.944 30.9955 192.003 30.7459 192.032 30.5551C192.062 30.3643 192.076 30.2028 192.076 30.056C192.076 29.9386 192.076 29.8359 192.032 29.7478C192.003 29.6744 191.959 29.601 191.886 29.557C191.812 29.5129 191.724 29.4836 191.621 29.4542C191.504 29.4395 191.372 29.4249 191.21 29.4102L191.298 28.9845L193.265 28.9111H193.735L192.575 34.0926C192.517 34.3568 192.473 34.577 192.443 34.7825C192.414 34.988 192.399 35.1494 192.399 35.2962C192.399 35.5164 192.429 35.6632 192.502 35.7659C192.575 35.8687 192.678 35.9127 192.84 35.9127C193.016 35.9127 193.207 35.8393 193.397 35.6779C193.588 35.5164 193.838 35.2816 194.117 34.9586L194.572 35.4137C194.322 35.6779 194.087 35.898 193.896 36.0889C193.691 36.265 193.5 36.4265 193.324 36.5292C193.148 36.6466 192.957 36.72 192.781 36.7641C192.605 36.8081 192.399 36.8375 192.194 36.8375C192.003 36.8375 191.841 36.8081 191.695 36.7347C191.548 36.6613 191.43 36.5586 191.342 36.4411C191.24 36.3237 191.166 36.1769 191.122 36.0155C191.078 35.854 191.049 35.6779 191.049 35.4871C191.049 35.2962 191.064 35.0614 191.108 34.8118C191.152 34.5476 191.196 34.2541 191.284 33.9311L191.886 31.289V31.2743Z" fill="black"/>
<path d="M199.665 33.1238V32.0083H202.792V28.7937H203.951V32.0083H207.107V33.1238H203.951V36.3824H202.792V33.1238H199.665Z" fill="black"/>
<path d="M216.722 37.6741C215.577 35.1054 215.005 32.7569 215.005 30.6432C215.005 29.5863 215.152 28.4414 215.431 27.1938C215.709 25.9461 216.003 24.9773 216.282 24.2728L216.708 23.2159H217.897C217.515 24.2287 217.148 25.4764 216.825 26.9736C216.502 28.4708 216.326 29.6744 216.326 30.6285C216.326 31.5826 216.458 32.6248 216.722 33.799C216.986 34.9733 217.251 35.9127 217.515 36.6173L217.897 37.6741H216.708H216.722Z" fill="black"/>
<path d="M221.845 33.1238V32.0083H228.92V33.1238H221.845Z" fill="black"/>
<path d="M236.948 35.7513C238.945 35.7513 239.943 34.4889 239.957 31.9496C238.857 32.3752 237.917 32.5807 237.124 32.5807C234.747 32.5807 233.558 31.4799 233.558 29.2634C233.558 28.1479 233.895 27.2672 234.585 26.6213C235.26 25.9755 236.185 25.6525 237.345 25.6525C238.68 25.6525 239.664 26.1516 240.324 27.135C240.97 28.1185 241.293 29.5717 241.293 31.4799C241.293 33.3881 240.926 34.7678 240.192 35.6192C239.458 36.4705 238.387 36.8962 236.963 36.8962C236.141 36.8962 235.29 36.8228 234.409 36.6613L233.983 36.6026L234.101 35.5751C235.084 35.7072 236.053 35.7806 236.978 35.7806L236.948 35.7513ZM237.213 31.4652C237.888 31.4652 238.666 31.3184 239.546 31.0248L239.972 30.878C239.943 28.1479 239.062 26.7828 237.33 26.7828C236.567 26.7828 235.95 27.0029 235.525 27.458C235.084 27.8983 234.879 28.5148 234.879 29.2781C234.879 30.7459 235.657 31.4799 237.227 31.4799L237.213 31.4652Z" fill="black"/>
<path d="M245.976 33.1238V32.0083H249.102V28.7937H250.262V32.0083H253.418V33.1238H250.262V36.3825H249.102V33.1238H245.976Z" fill="black"/>
<path d="M261.447 35.7513C263.444 35.7513 264.442 34.4889 264.456 31.9496C263.356 32.3752 262.416 32.5807 261.624 32.5807C259.246 32.5807 258.057 31.4799 258.057 29.2634C258.057 28.1479 258.394 27.2672 259.084 26.6213C259.759 25.9755 260.684 25.6525 261.844 25.6525C263.179 25.6525 264.163 26.1516 264.823 27.135C265.469 28.1185 265.792 29.5717 265.792 31.4799C265.792 33.3881 265.425 34.7678 264.691 35.6192C263.957 36.4705 262.886 36.8962 261.462 36.8962C260.64 36.8962 259.789 36.8228 258.908 36.6613L258.482 36.6026L258.6 35.5751C259.583 35.7072 260.552 35.7806 261.477 35.7806L261.447 35.7513ZM261.712 31.4652C262.387 31.4652 263.165 31.3184 264.045 31.0248L264.471 30.878C264.442 28.1479 263.561 26.7828 261.829 26.7828C261.066 26.7828 260.449 27.0029 260.024 27.458C259.583 27.8983 259.378 28.5148 259.378 29.2781C259.378 30.7459 260.156 31.4799 261.726 31.4799L261.712 31.4652Z" fill="black"/>
<path d="M272.514 28.4855C272.632 29.2487 272.69 30.0707 272.69 30.9368C272.69 31.8028 272.544 32.8156 272.265 33.9899C271.971 35.1641 271.692 36.0742 271.413 36.7054L270.988 37.6741H269.799C270.166 36.7934 270.533 35.6338 270.87 34.1954C271.208 32.7569 271.369 31.5679 271.369 30.6285C271.369 29.6891 271.237 28.6029 270.988 27.3699C270.724 26.1369 270.474 25.1388 270.21 24.3755L269.814 23.2159H271.002C271.736 24.8599 272.235 26.6066 272.544 28.4855H272.514Z" fill="black"/>
<path d="M279.838 36.8521C279.72 37.4099 279.574 37.909 279.383 38.3347C279.207 38.7603 278.972 39.1273 278.678 39.4209C278.399 39.7144 278.062 39.9346 277.665 40.0814C277.269 40.2282 276.814 40.3162 276.286 40.3162C276.124 40.3162 275.992 40.3162 275.889 40.3016C275.787 40.3016 275.684 40.2722 275.596 40.2429L275.787 39.5383C275.875 39.5676 275.963 39.5823 276.08 39.597C276.197 39.6117 276.3 39.597 276.403 39.597C276.623 39.597 276.829 39.5676 277.02 39.4943C277.21 39.4209 277.386 39.3034 277.548 39.1126C277.709 38.9218 277.856 38.6723 277.988 38.3493C278.12 38.0264 278.252 37.6007 278.355 37.087L279.662 31.2743C279.72 30.9955 279.779 30.7459 279.808 30.5551C279.838 30.3643 279.852 30.2028 279.852 30.056C279.852 29.9386 279.852 29.8359 279.808 29.7478C279.779 29.6744 279.735 29.601 279.662 29.557C279.588 29.5129 279.5 29.4836 279.397 29.4542C279.28 29.4395 279.148 29.4249 278.986 29.4102L279.074 28.9845L281.041 28.9111H281.496L279.823 36.8228L279.838 36.8521ZM284.08 25.9314L282.054 27.6781L281.629 27.1937L282.92 26.0782H278.003V25.3149H282.92L281.629 24.1994L282.054 23.715L284.08 25.4617V25.9314Z" fill="black"/>
<path d="M286.62 33.1238V32.0083H289.747V28.7937H290.906V32.0083H294.062V33.1238H290.906V36.3824H289.747V33.1238H286.62Z" fill="black"/>
<path d="M304.777 37.6741C303.632 35.1054 303.06 32.7569 303.06 30.6432C303.06 29.5863 303.206 28.4414 303.485 27.1938C303.764 25.9461 304.058 24.9773 304.337 24.2728L304.762 23.2159H305.951C305.57 24.2287 305.203 25.4764 304.88 26.9736C304.557 28.4708 304.381 29.6744 304.381 30.6285C304.381 31.5826 304.513 32.6248 304.777 33.799C305.041 34.9733 305.305 35.9127 305.57 36.6173L305.951 37.6741H304.762H304.777Z" fill="black"/>
<path d="M316.784 26.9736C315.786 26.8415 314.832 26.7828 313.892 26.7828C312.953 26.7828 312.234 27.1057 311.735 27.7515C311.221 28.3974 310.971 29.3368 310.971 30.5404L311.382 30.379C311.661 30.2762 312.028 30.1735 312.483 30.0707C312.938 29.968 313.349 29.9093 313.702 29.9093C316.153 29.9093 317.371 31.0395 317.371 33.3C317.371 34.4596 317.034 35.3403 316.373 35.9714C315.713 36.5879 314.773 36.9109 313.555 36.9109C310.957 36.9109 309.65 35.0173 309.65 31.245C309.65 29.3368 310.017 27.9423 310.766 27.0323C311.515 26.1369 312.557 25.6819 313.907 25.6819C314.803 25.6819 315.654 25.7406 316.446 25.8874L316.887 25.9754L316.769 27.0176L316.784 26.9736ZM313.614 31.0248C313.247 31.0248 312.836 31.0835 312.381 31.1863C311.926 31.289 311.588 31.3918 311.338 31.4945L310.957 31.656C310.957 32.9036 311.177 33.9018 311.588 34.6504C311.999 35.399 312.63 35.7513 313.481 35.7513C314.333 35.7513 314.964 35.5458 315.39 35.1201C315.815 34.6944 316.035 34.0926 316.035 33.3146C316.035 32.5367 315.83 31.9642 315.404 31.5826C314.979 31.2156 314.377 31.0248 313.614 31.0248Z" fill="black"/>
<path d="M322.025 33.1238V32.0083H329.1V33.1238H322.025Z" fill="black"/>
<path d="M344.292 26.9736C343.294 26.8415 342.34 26.7828 341.4 26.7828C340.461 26.7828 339.742 27.1057 339.243 27.7515C338.729 28.3974 338.479 29.3368 338.479 30.5404L338.89 30.379C339.169 30.2762 339.536 30.1735 339.991 30.0707C340.446 29.968 340.857 29.9093 341.209 29.9093C343.661 29.9093 344.879 31.0395 344.879 33.3C344.879 34.4596 344.541 35.3403 343.881 35.9714C343.22 36.5879 342.281 36.9109 341.063 36.9109C338.465 36.9109 337.158 35.0173 337.158 31.245C337.158 29.3368 337.525 27.9423 338.274 27.0323C339.022 26.1369 340.065 25.6819 341.415 25.6819C342.31 25.6819 343.162 25.7406 343.954 25.8874L344.395 25.9754L344.277 27.0176L344.292 26.9736ZM341.121 31.0248C340.754 31.0248 340.343 31.0835 339.888 31.1863C339.433 31.289 339.096 31.3918 338.846 31.4945L338.465 31.656C338.465 32.9036 338.685 33.9018 339.096 34.6504C339.507 35.399 340.138 35.7513 340.989 35.7513C341.841 35.7513 342.472 35.5458 342.897 35.1201C343.323 34.6944 343.543 34.0926 343.543 33.3146C343.543 32.5367 343.338 31.9642 342.912 31.5826C342.486 31.2156 341.885 31.0248 341.121 31.0248Z" fill="black"/>
<path d="M348.475 28.4855C348.593 29.2487 348.651 30.0707 348.651 30.9368C348.651 31.8028 348.505 32.8156 348.226 33.9899C347.932 35.1641 347.653 36.0742 347.374 36.7054L346.949 37.6741H345.76C346.127 36.7934 346.494 35.6338 346.831 34.1954C347.169 32.7569 347.33 31.5679 347.33 30.6285C347.33 29.6891 347.198 28.6029 346.949 27.3699C346.685 26.1369 346.435 25.1388 346.171 24.3755L345.774 23.2159H346.963C347.697 24.8599 348.196 26.6066 348.505 28.4855H348.475Z" fill="black"/>
<path d="M355.991 33.4027C355.932 33.1972 355.888 33.0505 355.829 32.9624C355.77 32.889 355.712 32.8303 355.638 32.8009C355.565 32.7716 355.447 32.7569 355.271 32.7569H354.714L353.877 36.7054H352.482L354.552 27.4873C354.625 27.1791 354.67 26.9296 354.699 26.7534C354.728 26.5773 354.743 26.4305 354.743 26.2837C354.743 26.0635 354.67 25.9021 354.537 25.814C354.405 25.7259 354.156 25.6672 353.803 25.6672L353.906 25.2415L355.947 25.1682H356.416L354.831 32.2138H355.095C355.491 32.2138 355.947 32.0376 356.46 31.6854C356.959 31.3331 357.37 31.0102 357.664 30.7019C357.972 30.3937 358.119 30.1148 358.119 29.8359C358.119 29.5717 357.943 29.4249 357.576 29.3955L357.664 28.9992H360.277L360.423 29.3955C359.983 29.7919 359.499 30.1882 359 30.5845L357.003 32.1257L357.796 35.032C357.855 35.2816 357.913 35.4577 357.972 35.5751C358.016 35.6926 358.09 35.766 358.148 35.8247C358.222 35.8834 358.31 35.8981 358.413 35.8981C358.559 35.8981 358.721 35.8247 358.912 35.6779C359.102 35.5311 359.323 35.3109 359.572 35.032L360.027 35.4871C359.543 36.0008 359.146 36.3531 358.824 36.5586C358.501 36.7641 358.207 36.8522 357.899 36.8522C357.532 36.8522 357.238 36.7494 357.033 36.5439C356.813 36.3384 356.651 35.9861 356.519 35.5018L355.991 33.4027Z" fill="black"/>
<path d="M361.172 22.6288L359.146 24.3755L358.72 23.8911L360.012 22.7755H355.095V22.0123H360.012L358.72 20.8967L359.146 20.4123L361.172 22.1591V22.6288Z" fill="black"/>
<path d="M367.146 31.6119V30.467H374.279V31.6119H367.146ZM367.146 34.665V33.5201H374.279V34.665H367.146Z" fill="black"/>
<path d="M384.114 25.6378C385.024 25.6378 385.743 25.814 386.315 26.1516C387.504 26.8561 388.091 28.6175 388.091 31.4358C388.091 33.4321 387.768 34.8412 387.108 35.6485C386.447 36.4558 385.464 36.8815 384.143 36.8815C382.822 36.8815 381.824 36.4705 381.163 35.6632C380.503 34.8559 380.165 33.4174 380.165 31.3331C380.165 29.2487 380.488 27.7956 381.149 26.9295C381.809 26.0635 382.792 25.6378 384.128 25.6378H384.114ZM384.128 26.7681C383.497 26.7681 382.998 26.9002 382.646 27.1644C381.868 27.7075 381.471 29.1313 381.471 31.4358C381.471 33.0651 381.692 34.1953 382.117 34.8118C382.543 35.4283 383.218 35.7513 384.128 35.7513C385.038 35.7513 385.713 35.443 386.139 34.8118C386.565 34.1807 386.785 33.0211 386.785 31.3184C386.785 29.6157 386.579 28.4414 386.169 27.7662C385.758 27.091 385.082 26.7681 384.128 26.7681Z" fill="black"/>
<path d="M387.077 22.6288L385.051 24.3755L384.626 23.8911L385.917 22.7755H381V22.0123H385.917L384.626 20.8967L385.051 20.4123L387.077 22.1591V22.6288Z" fill="black"/>
<path d="M0.703025 0H0V66.6046H0.703025V0Z" fill="black"/>
<path d="M104.596 0H103.893V66.6046H104.596V0Z" fill="black"/>
</svg>
