<svg width="381" height="263" viewBox="0 0 381 263" fill="none" xmlns="http://www.w3.org/2000/svg">
<path d="M112.176 153.732L5 260.106H269.127L375.5 153.732H112.176Z" stroke="#00D3CD" stroke-width="4.01408"/>
<path d="M166.32 209L168 207.237V206.763L166.32 205L165.967 205.489L167.038 206.615H159V207.385H167.038L165.967 208.511L166.32 209Z" fill="#172833"/>
<path d="M238.602 219.665H240.201C241.362 219.665 242.35 219.853 243.165 220.229C243.98 220.606 244.604 221.135 245.035 221.817C245.466 222.499 245.682 223.31 245.682 224.251C245.682 225.333 245.47 226.254 245.047 227.015C244.631 227.775 244.031 228.355 243.247 228.755C242.463 229.155 241.53 229.355 240.448 229.355C239.829 229.355 239.198 229.265 238.555 229.084C237.912 228.896 237.316 228.606 236.767 228.214C236.227 227.822 235.791 227.324 235.462 226.721C235.133 226.109 234.968 225.38 234.968 224.533L236.215 224.38C236.215 224.812 236.36 225.204 236.65 225.556C236.94 225.909 237.344 226.192 237.861 226.403C238.379 226.607 238.982 226.709 239.672 226.709C240.229 226.709 240.699 226.599 241.083 226.38C241.475 226.16 241.773 225.862 241.977 225.486C242.189 225.11 242.295 224.682 242.295 224.204C242.295 223.64 242.197 223.154 242.001 222.746C241.805 222.33 241.515 222.013 241.13 221.793C240.746 221.566 240.276 221.452 239.719 221.452H238.602V219.665ZM239.413 211.762C240.527 211.762 241.495 211.946 242.318 212.315C243.149 212.675 243.792 213.201 244.247 213.891C244.702 214.573 244.929 215.404 244.929 216.384C244.929 217.191 244.717 217.92 244.294 218.571C243.871 219.222 243.279 219.739 242.518 220.123C241.758 220.508 240.868 220.7 239.849 220.7H238.602V219.041H239.366C239.884 219.041 240.299 218.943 240.613 218.747C240.934 218.551 241.166 218.273 241.307 217.912C241.456 217.552 241.53 217.121 241.53 216.619C241.53 216.235 241.452 215.874 241.295 215.537C241.146 215.2 240.915 214.929 240.601 214.725C240.288 214.514 239.892 214.408 239.413 214.408C238.974 214.408 238.579 214.514 238.226 214.725C237.881 214.929 237.606 215.219 237.403 215.596C237.207 215.972 237.109 216.419 237.109 216.936V233.883H233.722V216.936C233.722 215.901 233.98 214.996 234.498 214.22C235.015 213.444 235.701 212.84 236.556 212.409C237.418 211.978 238.371 211.762 239.413 211.762Z" fill="#354551"/>
<path d="M162.984 217.457L164.86 211.157H166.687L163.914 219.12H162.711L162.984 217.457ZM161.256 211.157L163.126 217.457L163.411 219.12H162.197L159.44 211.157H161.256ZM169.407 217.339V222.12H168.38V218.507L167.271 218.845V218.051L169.305 217.339H169.407Z" fill="#354551"/>
<path d="M112.176 2L5 108.373H269.127L375.5 2H112.176Z" stroke="#6547BA" stroke-width="4.01408"/>
<path d="M146.707 22.2929C146.317 21.9024 145.683 21.9024 145.293 22.2929L138.929 28.6569C138.538 29.0474 138.538 29.6805 138.929 30.0711C139.319 30.4616 139.953 30.4616 140.343 30.0711L146 24.4142L151.657 30.0711C152.047 30.4616 152.681 30.4616 153.071 30.0711C153.462 29.6805 153.462 29.0474 153.071 28.6569L146.707 22.2929ZM147 63V23H145V63H147Z" fill="#6547BA"/>
<path d="M146.707 181.293C146.317 180.902 145.683 180.902 145.293 181.293L138.929 187.657C138.538 188.047 138.538 188.681 138.929 189.071C139.319 189.462 139.953 189.462 140.343 189.071L146 183.414L151.657 189.071C152.047 189.462 152.681 189.462 153.071 189.071C153.462 188.681 153.462 188.047 153.071 187.657L146.707 181.293ZM147 222V182H145V222H147Z" fill="#00D3CD"/>
<path d="M166.32 53L168 51.237V50.763L166.32 49L165.967 49.4889L167.038 50.6148H159V51.3852H167.038L165.967 52.5111L166.32 53Z" fill="#172833"/>
<path d="M162.984 61.4572L164.86 55.1571H166.687L163.914 63.1198H162.711L162.984 61.4572ZM161.256 55.1571L163.126 61.4572L163.411 63.1198H162.197L159.44 55.1571H161.256ZM170.332 65.3224V66.1198H167.031V65.4438L168.573 63.8097C168.718 63.6435 168.833 63.4969 168.918 63.37C169.005 63.2431 169.069 63.1283 169.108 63.0255C169.148 62.9205 169.167 62.8242 169.167 62.7367C169.167 62.5945 169.144 62.4742 169.098 62.3758C169.055 62.2773 168.99 62.2019 168.905 62.1494C168.819 62.0969 168.716 62.0706 168.593 62.0706C168.462 62.0706 168.349 62.1045 168.255 62.1723C168.161 62.2401 168.089 62.3342 168.038 62.4545C167.988 62.5727 167.963 62.7072 167.963 62.8581H166.933C166.933 62.5672 167.003 62.3025 167.143 62.064C167.283 61.8234 167.478 61.632 167.73 61.4898C167.982 61.3454 168.276 61.2733 168.613 61.2733C168.958 61.2733 169.248 61.3279 169.482 61.4373C169.716 61.5467 169.894 61.7031 170.014 61.9065C170.134 62.11 170.194 62.355 170.194 62.6416C170.194 62.8034 170.168 62.9598 170.116 63.1108C170.065 63.2617 169.992 63.4116 169.896 63.5603C169.799 63.7091 169.684 63.8611 169.548 64.0164C169.412 64.1696 169.259 64.3314 169.089 64.5021L168.367 65.3224H170.332Z" fill="#354551"/>
<path d="M233.683 71.3544V71.1075C233.683 70.1353 233.789 69.2416 234.001 68.4262C234.22 67.6108 234.538 66.9052 234.953 66.3094C235.377 65.7136 235.898 65.251 236.518 64.9217C237.137 64.5924 237.85 64.4278 238.658 64.4278C239.214 64.4278 239.712 64.5336 240.151 64.7453C240.598 64.9492 240.986 65.2471 241.316 65.6391C241.653 66.0311 241.939 66.4976 242.174 67.0385C242.409 67.5716 242.605 68.1675 242.762 68.826C242.919 69.4768 243.04 70.1745 243.127 70.9193V71.4368C243.025 72.3227 242.864 73.142 242.644 73.8946C242.425 74.6472 242.139 75.3058 241.786 75.8703C241.433 76.4269 240.994 76.8581 240.469 77.1639C239.951 77.4696 239.34 77.6225 238.634 77.6225C237.835 77.6225 237.125 77.4696 236.506 77.1639C235.894 76.8581 235.377 76.4269 234.953 75.8703C234.53 75.3058 234.213 74.6433 234.001 73.8828C233.789 73.1145 233.683 72.2717 233.683 71.3544ZM237.082 71.1075V71.3544C237.082 71.8797 237.121 72.3619 237.2 72.8009C237.286 73.2321 237.423 73.6124 237.611 73.9416C237.799 74.2709 238.046 74.5257 238.352 74.706C238.658 74.8864 239.034 74.9765 239.481 74.9765C239.92 74.9765 240.292 74.8942 240.598 74.7296C240.912 74.5649 241.171 74.3376 241.374 74.0475C241.578 73.7496 241.739 73.4007 241.857 73.0008C241.974 72.5932 242.06 72.1424 242.115 71.6484V70.7782C242.068 70.2372 241.986 69.7433 241.868 69.2964C241.759 68.8417 241.598 68.4497 241.386 68.1204C241.182 67.7912 240.924 67.5364 240.61 67.356C240.304 67.1679 239.936 67.0738 239.505 67.0738C239.066 67.0738 238.689 67.1796 238.376 67.3913C238.07 67.603 237.819 67.8931 237.623 68.2616C237.435 68.63 237.298 69.0612 237.211 69.5552C237.125 70.0412 237.082 70.5587 237.082 71.1075ZM241.986 64.663H244.926V73.3184C244.926 73.6241 244.946 73.8789 244.985 74.0828C245.024 74.2866 245.079 74.4512 245.149 74.5767C245.228 74.7021 245.318 74.7923 245.42 74.8472C245.53 74.8942 245.651 74.9177 245.784 74.9177C245.847 74.9177 245.898 74.9138 245.937 74.906C245.976 74.8903 246.012 74.8785 246.043 74.8707L246.325 77.3403C246.074 77.4657 245.835 77.5441 245.608 77.5755C245.381 77.6147 245.134 77.6343 244.867 77.6343C244.405 77.6343 243.985 77.5637 243.609 77.4226C243.232 77.2815 242.899 77.0659 242.609 76.7758C242.327 76.4779 242.096 76.1055 241.915 75.6586C241.735 75.2039 241.61 74.6668 241.539 74.0475V67.3913L241.986 64.663Z" fill="#354551"/>
</svg>
