<svg width="475" height="327" viewBox="0 0 475 327" fill="none" xmlns="http://www.w3.org/2000/svg">
<path d="M140 192L6.5 324.5H335.5L468 192H140Z" stroke="#00D3CD" stroke-width="5"/>
<path d="M297.636 274.723H299.628C301.073 274.723 302.304 274.957 303.319 275.426C304.335 275.895 305.111 276.554 305.648 277.403C306.186 278.253 306.454 279.264 306.454 280.436C306.454 281.783 306.19 282.931 305.663 283.878C305.146 284.825 304.398 285.548 303.422 286.046C302.445 286.544 301.283 286.793 299.936 286.793C299.164 286.793 298.378 286.681 297.577 286.456C296.776 286.222 296.034 285.86 295.351 285.372C294.677 284.884 294.135 284.264 293.725 283.512C293.314 282.75 293.109 281.842 293.109 280.787L294.662 280.597C294.662 281.134 294.843 281.622 295.204 282.062C295.565 282.501 296.068 282.853 296.713 283.116C297.357 283.37 298.109 283.497 298.969 283.497C299.662 283.497 300.248 283.36 300.727 283.087C301.215 282.813 301.586 282.442 301.84 281.974C302.104 281.505 302.235 280.973 302.235 280.377C302.235 279.674 302.113 279.068 301.869 278.561C301.625 278.043 301.264 277.647 300.785 277.374C300.307 277.091 299.721 276.949 299.027 276.949H297.636V274.723ZM298.646 264.879C300.033 264.879 301.239 265.108 302.265 265.567C303.3 266.017 304.101 266.671 304.667 267.53C305.233 268.38 305.517 269.415 305.517 270.636C305.517 271.642 305.253 272.55 304.726 273.36C304.198 274.171 303.461 274.815 302.514 275.294C301.566 275.772 300.458 276.012 299.188 276.012H297.636V273.946H298.588C299.232 273.946 299.75 273.824 300.141 273.58C300.541 273.336 300.829 272.989 301.005 272.54C301.19 272.091 301.283 271.554 301.283 270.929C301.283 270.45 301.186 270.001 300.99 269.581C300.805 269.161 300.517 268.824 300.126 268.57C299.735 268.307 299.242 268.175 298.646 268.175C298.1 268.175 297.606 268.307 297.167 268.57C296.737 268.824 296.396 269.186 296.142 269.654C295.897 270.123 295.775 270.68 295.775 271.324V292.433H291.557V271.324C291.557 270.035 291.879 268.907 292.523 267.94C293.168 266.974 294.022 266.222 295.087 265.685C296.161 265.147 297.348 264.879 298.646 264.879Z" fill="#354551"/>
<path d="M140 3L6.5 135.5H335.5L468 3H140Z" stroke="#6547BA" stroke-width="5"/>
<path d="M291.132 89.9854V89.6777C291.132 88.4668 291.264 87.3535 291.527 86.3379C291.801 85.3223 292.196 84.4434 292.714 83.7012C293.241 82.959 293.891 82.3828 294.662 81.9727C295.434 81.5625 296.322 81.3574 297.328 81.3574C298.021 81.3574 298.642 81.4893 299.188 81.7529C299.745 82.0068 300.229 82.3779 300.639 82.8662C301.059 83.3545 301.415 83.9355 301.708 84.6094C302.001 85.2734 302.245 86.0156 302.44 86.8359C302.636 87.6465 302.787 88.5156 302.895 89.4434V90.0879C302.768 91.1914 302.567 92.2119 302.294 93.1494C302.021 94.0869 301.664 94.9072 301.225 95.6104C300.785 96.3037 300.238 96.8408 299.584 97.2217C298.939 97.6025 298.178 97.793 297.299 97.793C296.303 97.793 295.419 97.6025 294.647 97.2217C293.886 96.8408 293.241 96.3037 292.714 95.6104C292.187 94.9072 291.791 94.082 291.527 93.1348C291.264 92.1777 291.132 91.1279 291.132 89.9854ZM295.365 89.6777V89.9854C295.365 90.6396 295.414 91.2402 295.512 91.7871C295.619 92.3242 295.79 92.7979 296.024 93.208C296.259 93.6182 296.566 93.9355 296.947 94.1602C297.328 94.3848 297.797 94.4971 298.354 94.4971C298.9 94.4971 299.364 94.3945 299.745 94.1895C300.136 93.9844 300.458 93.7012 300.712 93.3398C300.966 92.9688 301.166 92.5342 301.312 92.0361C301.459 91.5283 301.566 90.9668 301.635 90.3516V89.2676C301.576 88.5938 301.474 87.9785 301.327 87.4219C301.19 86.8555 300.99 86.3672 300.727 85.957C300.473 85.5469 300.15 85.2295 299.76 85.0049C299.379 84.7705 298.92 84.6533 298.383 84.6533C297.836 84.6533 297.367 84.7852 296.977 85.0488C296.596 85.3125 296.283 85.6738 296.039 86.1328C295.805 86.5918 295.634 87.1289 295.526 87.7441C295.419 88.3496 295.365 88.9941 295.365 89.6777ZM301.474 81.6504H305.136V92.4316C305.136 92.8125 305.16 93.1299 305.209 93.3838C305.258 93.6377 305.326 93.8428 305.414 93.999C305.512 94.1553 305.624 94.2676 305.751 94.3359C305.888 94.3945 306.039 94.4238 306.205 94.4238C306.283 94.4238 306.347 94.4189 306.396 94.4092C306.444 94.3896 306.488 94.375 306.527 94.3652L306.879 97.4414C306.566 97.5977 306.269 97.6953 305.985 97.7344C305.702 97.7832 305.395 97.8076 305.062 97.8076C304.486 97.8076 303.964 97.7197 303.495 97.5439C303.026 97.3682 302.611 97.0996 302.25 96.7383C301.898 96.3672 301.61 95.9033 301.386 95.3467C301.161 94.7803 301.005 94.1113 300.917 93.3398V85.0488L301.474 81.6504Z" fill="#354551"/>
</svg>
