<svg width="392" height="67" viewBox="0 0 392 67" fill="none" xmlns="http://www.w3.org/2000/svg">
<path d="M0.703025 0H0V66.6046H0.703025V0Z" fill="black"/>
<path d="M104.596 0H103.893V66.6046H104.596V0Z" fill="black"/>
<path d="M18.7904 10.5162L16.7659 12.262L16.3404 11.7778L17.6314 10.6629H12.7168V9.9H17.6314L16.3404 8.78503L16.7659 8.3009L18.7904 10.0467V10.5162ZM13.5677 15.8709C13.6264 15.5922 13.6851 15.3428 13.7144 15.1521C13.7437 14.9613 13.7584 14.8 13.7584 14.6533C13.7584 14.5359 13.7584 14.4332 13.7144 14.3452C13.6851 14.2718 13.641 14.1985 13.5677 14.1545C13.4943 14.1105 13.4063 14.0811 13.3036 14.0518C13.1863 14.0371 13.0542 14.0224 12.8928 14.0078L12.9809 13.5823L14.9467 13.509H15.4162L14.2572 18.6877C14.1985 18.9517 14.1545 19.1718 14.1252 19.3772C14.0958 19.5826 14.0812 19.744 14.0812 19.8907C14.0812 20.1107 14.1105 20.2574 14.1839 20.3601C14.2572 20.4628 14.3599 20.5068 14.5213 20.5068C14.6973 20.5068 14.888 20.4335 15.0788 20.2721C15.2695 20.1107 15.5189 19.876 15.7976 19.5532L16.2524 20.008C16.003 20.2721 15.7683 20.4922 15.5776 20.6829C15.3722 20.8589 15.1815 21.0203 15.0054 21.123C14.8294 21.2403 14.6386 21.3137 14.4626 21.3577C14.2865 21.4017 14.0812 21.4311 13.8758 21.4311C13.6851 21.4311 13.5237 21.4017 13.377 21.3284C13.2303 21.255 13.1129 21.1523 13.0249 21.035C12.9222 20.9176 12.8488 20.7709 12.8048 20.6095C12.7608 20.4481 12.7315 20.2721 12.7315 20.0814C12.7315 19.8907 12.7461 19.6559 12.7901 19.4065C12.8342 19.1425 12.8782 18.849 12.9662 18.5263L13.5677 15.8856V15.8709ZM51.9606 21.4311C51.8432 21.9885 51.6965 22.4873 51.5058 22.9128C51.3298 23.3382 51.095 23.705 50.8016 23.9984C50.5229 24.2918 50.1854 24.5119 49.7893 24.6586C49.3932 24.8053 48.9384 24.8933 48.4103 24.8933C48.2489 24.8933 48.1169 24.8933 48.0142 24.8787C47.9115 24.8787 47.8088 24.8493 47.7208 24.82L47.9115 24.1158C47.9995 24.1451 48.0876 24.1598 48.2049 24.1745C48.3223 24.1891 48.425 24.1745 48.5277 24.1745C48.7477 24.1745 48.9531 24.1451 49.1438 24.0718C49.3346 23.9984 49.5106 23.8811 49.672 23.6903C49.8334 23.4996 49.9801 23.2502 50.1121 22.9275C50.2441 22.6047 50.3762 22.1793 50.4789 21.6658L51.7845 15.8562C51.8432 15.5775 51.9019 15.3281 51.9312 15.1374C51.9606 14.9467 51.9753 14.7853 51.9753 14.6386C51.9753 14.5212 51.9753 14.4185 51.9312 14.3305C51.9019 14.2572 51.8579 14.1838 51.7845 14.1398C51.7112 14.0958 51.6232 14.0664 51.5205 14.0371C51.4031 14.0224 51.2711 14.0078 51.1097 13.9931L51.1977 13.5676L53.1636 13.4943H53.6184L51.9459 21.4017L51.9606 21.4311ZM56.2004 10.5162L54.1758 12.262L53.7504 11.7778L55.0414 10.6629H50.1268V9.9H55.0414L53.7504 8.78503L54.1758 8.3009L56.2004 10.0467V10.5162ZM88.4903 17.9835C88.4316 17.7781 88.3876 17.6314 88.3289 17.5434C88.2703 17.47 88.2116 17.4113 88.1382 17.382C88.0649 17.3526 87.9475 17.338 87.7715 17.338H87.214L86.3778 21.2844H84.9841L87.0526 12.0712C87.126 11.7632 87.17 11.5138 87.1993 11.3377C87.2286 11.1617 87.2433 11.015 87.2433 10.8683C87.2433 10.6482 87.17 10.4868 87.0379 10.3988C86.9059 10.3108 86.6565 10.2521 86.3044 10.2521L86.4071 9.82664L88.4463 9.75329H88.9158L87.3313 16.7952H87.5954C87.9915 16.7952 88.4463 16.6191 88.9598 16.267C89.4586 15.9149 89.8694 15.5922 90.1628 15.2841C90.4562 14.976 90.6176 14.6973 90.6176 14.4185C90.6176 14.1545 90.4415 14.0078 90.0747 13.9784L90.1628 13.5823H92.7741L92.9208 13.9784C92.4807 14.3745 91.9966 14.7706 91.4978 15.1667L89.5026 16.7071L90.2948 19.6119C90.3535 19.8613 90.4122 20.0374 90.4708 20.1547C90.5149 20.2721 90.5882 20.3454 90.6469 20.4041C90.7203 20.4628 90.8083 20.4775 90.911 20.4775C91.0577 20.4775 91.219 20.4041 91.4098 20.2574C91.6005 20.1107 91.8205 19.8907 92.0699 19.6119L92.5247 20.0667C92.0406 20.5802 91.6445 20.9323 91.3217 21.1377C90.999 21.343 90.7056 21.4311 90.3975 21.4311C90.0307 21.4311 89.7373 21.3284 89.5319 21.123C89.3119 20.9176 89.1505 20.5655 89.0185 20.0814L88.4903 17.9835Z" fill="black"/>
<path d="M93.6098 7.21526L91.5852 8.96106L91.1598 8.47693L92.4508 7.36196H87.5361V6.59909H92.4508L91.1598 5.48413L91.5852 5L93.6098 6.7458V7.21526Z" fill="black"/>
<path d="M15.8273 29.1037V39.9893H14.551V30.5121L11.7489 32.3606L11.1768 31.407L14.639 29.1037H15.8273Z" fill="black"/>
<path d="M55.0261 39.9893H48.0576V38.9184L51.2411 35.5735C51.7986 35.0013 52.1947 34.5612 52.4441 34.2678C52.6935 33.9744 52.9282 33.6223 53.1336 33.2115C53.339 32.8007 53.4417 32.3899 53.4417 31.9938C53.4417 31.2897 53.251 30.7909 52.8696 30.5121C52.4881 30.2334 51.8866 30.0867 51.0651 30.0867C50.3462 30.0867 49.554 30.1747 48.6738 30.3654L48.2483 30.4534L48.1456 29.3971C49.1873 29.1037 50.2729 28.957 51.3878 28.957C52.5028 28.957 53.339 29.1918 53.9112 29.6612C54.4833 30.1307 54.7621 30.8642 54.7621 31.8765C54.7621 32.654 54.586 33.3142 54.2486 33.8863C53.9112 34.4585 53.3244 35.148 52.4881 35.9549L49.5834 38.9037H55.0408V40.004L55.0261 39.9893Z" fill="black"/>
<path d="M78.7197 36.4098V35.2948H85.7763V36.4098H78.7197Z" fill="black"/>
<path d="M90.925 29.3825C91.9667 29.0744 93.067 28.9277 94.2553 28.9277C95.4436 28.9277 96.2945 29.1478 96.8226 29.6026C97.3508 30.0574 97.6148 30.7762 97.6148 31.7592C97.6148 32.2726 97.5415 32.6247 97.4094 32.8594C97.2774 33.0795 97.16 33.2556 97.072 33.3729C96.984 33.4903 96.8813 33.6076 96.7493 33.725C96.4999 33.9157 96.3092 34.0478 96.1771 34.1211L96.0011 34.2385C96.6319 34.4732 97.116 34.7666 97.4241 35.1187C97.7322 35.4708 97.8789 36.0576 97.8789 36.8792C97.8789 37.9941 97.6002 38.8157 97.028 39.3585C96.4559 39.9013 95.561 40.1654 94.3433 40.1654C93.375 40.1654 92.3481 40.0627 91.2771 39.8426L90.7637 39.7253L90.881 38.6837C92.0694 38.9331 93.1843 39.0504 94.2113 39.0504C95.781 39.0504 96.5732 38.3316 96.5732 36.9379C96.5732 35.6322 95.825 34.9427 94.3286 34.884H92.128V33.7984H94.3286C94.7981 33.7984 95.2382 33.6076 95.6636 33.2409C96.0891 32.8741 96.3092 32.39 96.3092 31.7738C96.3092 31.1577 96.1331 30.7322 95.7957 30.4681C95.4583 30.2041 94.8861 30.0574 94.0792 30.0574C93.199 30.0574 92.3334 30.1454 91.4679 30.3068L91.0424 30.3948L90.925 29.3825Z" fill="black"/>
<path d="M5 56.2151V55.1001H12.0712V56.2151H5Z" fill="black"/>
<path d="M17.1917 49.1877C18.2333 48.8796 19.3336 48.7329 20.5219 48.7329C21.7102 48.7329 22.5611 48.953 23.0892 49.4078C23.6174 49.8625 23.8814 50.5814 23.8814 51.5643C23.8814 52.0778 23.8081 52.4299 23.676 52.6646C23.544 52.8847 23.4266 53.0607 23.3386 53.1781C23.2506 53.2955 23.1479 53.4128 23.0159 53.5302C22.7665 53.7209 22.5758 53.8529 22.4437 53.9263L22.2677 54.0437C22.8985 54.2784 23.3826 54.5718 23.6907 54.9239C23.9988 55.276 24.1455 55.8628 24.1455 56.6844C24.1455 57.7993 23.8668 58.6209 23.2946 59.1637C22.7225 59.7065 21.8276 59.9706 20.6099 59.9706C19.6416 59.9706 18.6147 59.8532 17.5437 59.6478L17.0303 59.5305L17.1476 58.4888C18.336 58.7382 19.4509 58.8556 20.4779 58.8556C22.0476 58.8556 22.8398 58.1368 22.8398 56.743C22.8398 55.4374 22.0916 54.7478 20.5952 54.7038H18.3946V53.6182H20.5952C21.0647 53.6182 21.5048 53.4422 21.9302 53.0607C22.3557 52.694 22.5758 52.2098 22.5758 51.5937C22.5758 50.9775 22.3997 50.5521 22.0623 50.288C21.7249 50.0239 21.1527 49.8772 20.3458 49.8772C19.4656 49.8772 18.6 49.9652 17.7345 50.1266L17.309 50.2146L17.1917 49.2024V49.1877Z" fill="black"/>
<path d="M42.3955 56.2151V55.1001H49.4667V56.2151H42.3955Z" fill="black"/>
<path d="M61.3643 50.068C60.3813 49.936 59.4131 49.8773 58.4742 49.8773C57.5353 49.8773 56.8164 50.2001 56.3176 50.8456C55.8041 51.4911 55.5547 52.43 55.5547 53.633L55.9655 53.4716C56.2442 53.3689 56.611 53.2662 57.0658 53.1635C57.5206 53.0608 57.9314 53.0022 58.2835 53.0022C60.7334 53.0022 61.9511 54.1318 61.9511 56.3911C61.9511 57.55 61.6137 58.4303 60.9535 59.0611C60.2933 59.6773 59.3544 60 58.1367 60C55.5401 60 54.2344 58.1075 54.2344 54.3372C54.2344 52.43 54.6011 51.0363 55.3493 50.1267C56.0975 49.2318 57.1391 48.777 58.4888 48.777C59.3837 48.777 60.2346 48.8357 61.0268 48.9824L61.467 49.0705L61.3496 50.1121L61.3643 50.068ZM58.1954 54.1171C57.8287 54.1171 57.4179 54.1758 56.9631 54.2785C56.5083 54.3812 56.1709 54.4839 55.9215 54.5866L55.5401 54.748C55.5401 55.995 55.7601 56.9926 56.1709 57.7408C56.5817 58.4743 57.2125 58.8411 58.0634 58.8411C58.9143 58.8411 59.5451 58.6357 59.9706 58.2102C60.396 57.7848 60.6161 57.1833 60.6161 56.4057C60.6161 55.6282 60.4107 55.056 59.9852 54.6746C59.5598 54.2932 58.9583 54.1171 58.1954 54.1171Z" fill="black"/>
<path d="M88.4026 58.841C90.3978 58.841 91.3954 57.5794 91.41 55.0414C90.3098 55.4668 89.3708 55.6722 88.5786 55.6722C86.202 55.6722 85.0137 54.5719 85.0137 52.3566C85.0137 51.2417 85.3511 50.3614 86.0406 49.7159C86.7155 49.0704 87.6397 48.7477 88.7987 48.7477C90.1337 48.7477 91.1166 49.2465 91.7621 50.2294C92.4076 51.2123 92.7304 52.6647 92.7304 54.5719C92.7304 56.4791 92.3636 57.8581 91.6301 58.709C90.8966 59.5599 89.8256 59.9853 88.4026 59.9853C87.581 59.9853 86.7301 59.912 85.8499 59.7506L85.4244 59.6919L85.5418 58.665C86.5247 58.797 87.493 58.8557 88.4172 58.8557L88.4026 58.841ZM88.6666 54.5572C89.3415 54.5572 90.119 54.4105 90.9993 54.1171L91.4247 53.9704C91.3954 51.2417 90.5151 49.8773 88.784 49.8773C88.0065 49.8773 87.405 50.0974 86.9795 50.5522C86.5394 50.9923 86.334 51.6084 86.334 52.3713C86.334 53.8384 87.1116 54.5719 88.6813 54.5719L88.6666 54.5572Z" fill="black"/>
<path d="M109.469 31.5977V30.4534H116.599V31.5977H109.469ZM109.469 34.6492V33.5049H116.599V34.6492H109.469Z" fill="black"/>
<path d="M123.068 37.6566C121.924 35.0893 121.352 32.742 121.352 30.6294C121.352 29.5731 121.498 28.4288 121.777 27.1818C122.056 25.9348 122.349 24.9666 122.628 24.2624L123.053 23.2061H124.242C123.86 24.2184 123.493 25.4654 123.171 26.9618C122.848 28.4582 122.672 29.6612 122.672 30.6148C122.672 31.5683 122.804 32.61 123.068 33.7836C123.332 34.9572 123.596 35.8962 123.86 36.6004L124.242 37.6566H123.053H123.068Z" fill="black"/>
<path d="M133.543 25.8029V36.6884H132.267V27.2112L129.465 29.0597L128.893 28.1061L132.355 25.8029H133.543Z" fill="black"/>
<path d="M137.769 26.3457C138.459 25.8616 139.413 25.6268 140.615 25.6268C141.818 25.6268 142.787 25.8616 143.491 26.3457C144.195 26.8298 144.562 27.534 144.562 28.4729C144.562 29.1624 144.43 29.6759 144.151 30.028C143.872 30.3801 143.403 30.7175 142.743 31.0109C143.403 31.3043 143.902 31.6564 144.224 32.0525C144.547 32.4486 144.723 33.0208 144.723 33.7397C144.723 35.8229 143.359 36.8645 140.645 36.8645C137.931 36.8645 136.566 35.8816 136.566 33.9304C136.566 33.1528 136.713 32.5513 137.021 32.1552C137.329 31.7445 137.799 31.363 138.444 31.0109C137.843 30.7175 137.417 30.3801 137.153 29.9987C136.889 29.6172 136.742 29.1038 136.742 28.4583C136.742 27.534 137.08 26.8298 137.769 26.3604V26.3457ZM137.916 33.7103C137.916 35.0453 138.826 35.7055 140.645 35.7055C142.464 35.7055 143.374 35.0013 143.374 33.6076C143.374 33.0208 143.212 32.5954 142.889 32.3166C142.567 32.0379 142.083 31.8031 141.452 31.6124H139.721C139.119 31.7738 138.664 32.0232 138.371 32.346C138.077 32.6687 137.931 33.1235 137.931 33.7103H137.916ZM143.212 28.605C143.212 27.3873 142.361 26.7711 140.659 26.7711C138.958 26.7711 138.107 27.3726 138.107 28.5903C138.107 29.0744 138.239 29.4705 138.503 29.7639C138.767 30.0573 139.178 30.3067 139.721 30.5121H141.452C142.053 30.3214 142.493 30.0867 142.787 29.7786C143.08 29.4852 143.227 29.0891 143.227 28.605H143.212Z" fill="black"/>
<path d="M150.21 33.1089V31.9939H157.281V33.1089H150.21Z" fill="black"/>
<path d="M170.94 25.8029V36.6884H169.663V27.2112L166.861 29.0597L166.289 28.1061L169.751 25.8029H170.94Z" fill="black"/>
<path d="M175.165 26.3457C175.854 25.8616 176.808 25.6268 178.011 25.6268C179.214 25.6268 180.182 25.8616 180.886 26.3457C181.591 26.8298 181.957 27.534 181.957 28.4729C181.957 29.1624 181.825 29.6759 181.547 30.028C181.268 30.3801 180.798 30.7175 180.138 31.0109C180.798 31.3043 181.297 31.6564 181.62 32.0525C181.957 32.4486 182.119 33.0208 182.119 33.7397C182.119 35.8229 180.754 36.8645 178.04 36.8645C175.326 36.8645 173.962 35.8816 173.962 33.9304C173.962 33.1528 174.109 32.5513 174.417 32.1552C174.725 31.7445 175.194 31.363 175.84 31.0109C175.238 30.7175 174.813 30.3801 174.549 29.9987C174.285 29.6172 174.138 29.1038 174.138 28.4583C174.138 27.534 174.475 26.8298 175.165 26.3604V26.3457ZM175.312 33.7103C175.312 35.0453 176.221 35.7055 178.04 35.7055C179.859 35.7055 180.769 35.0013 180.769 33.6076C180.769 33.0208 180.608 32.5954 180.285 32.3166C179.962 32.0379 179.478 31.8031 178.847 31.6124H177.116C176.515 31.7738 176.06 32.0232 175.766 32.346C175.473 32.6687 175.326 33.1235 175.326 33.7103H175.312ZM180.608 28.605C180.608 27.3873 179.757 26.7711 178.055 26.7711C176.353 26.7711 175.502 27.3726 175.502 28.5903C175.502 29.0744 175.634 29.4705 175.898 29.7639C176.162 30.0573 176.573 30.3067 177.116 30.5121H178.847C179.434 30.3214 179.889 30.0867 180.182 29.7786C180.476 29.4852 180.622 29.0891 180.622 28.605H180.608Z" fill="black"/>
<path d="M185.463 28.4729C185.58 29.2357 185.639 30.0573 185.639 30.9228C185.639 31.7884 185.492 32.8007 185.214 33.9743C184.92 35.148 184.642 36.0575 184.363 36.6884L183.937 37.6566H182.749C183.116 36.7764 183.483 35.6174 183.82 34.1797C184.157 32.742 184.319 31.5537 184.319 30.6148C184.319 29.6758 184.187 28.5902 183.937 27.3579C183.673 26.1256 183.424 25.128 183.16 24.3651L182.764 23.2061H183.952C184.686 24.8492 185.184 26.595 185.492 28.4729H185.463Z" fill="black"/>
<path d="M197.009 25.9202L194.985 27.666L194.559 27.1819L195.85 26.0669H190.936V25.304H195.85L194.559 24.1891L194.985 23.705L197.009 25.4508V25.9202ZM191.786 31.2603C191.845 30.9816 191.904 30.7322 191.933 30.5414C191.962 30.3507 191.977 30.1893 191.977 30.0426C191.977 29.9253 191.977 29.8226 191.933 29.7346C191.904 29.6612 191.86 29.5879 191.786 29.5438C191.713 29.4998 191.625 29.4705 191.522 29.4412C191.405 29.4265 191.273 29.4118 191.112 29.3971L191.2 28.9717L193.165 28.8983H193.635L192.476 34.0771C192.417 34.3411 192.373 34.5612 192.344 34.7666C192.315 34.972 192.3 35.1333 192.3 35.28C192.3 35.5001 192.329 35.6468 192.403 35.7495C192.476 35.8522 192.579 35.8962 192.74 35.8962C192.916 35.8962 193.107 35.8229 193.298 35.6615C193.488 35.5001 193.738 35.2654 194.016 34.9426L194.471 35.3974C194.222 35.6615 193.987 35.8815 193.796 36.0723C193.591 36.2483 193.4 36.4097 193.224 36.5124C193.048 36.6297 192.857 36.7031 192.681 36.7471C192.505 36.7911 192.3 36.8205 192.095 36.8205C191.904 36.8205 191.742 36.7911 191.596 36.7178C191.449 36.6444 191.332 36.5417 191.244 36.4243C191.141 36.307 191.068 36.1603 191.024 35.9989C190.98 35.8375 190.95 35.6615 190.95 35.4708C190.95 35.28 190.965 35.0453 191.009 34.7959C191.053 34.5318 191.097 34.2384 191.185 33.9157L191.786 31.275V31.2603Z" fill="black"/>
<path d="M199.562 33.1088V31.9939H202.686V28.781H203.845V31.9939H207V33.1088H203.845V36.3657H202.686V33.1088H199.562Z" fill="black"/>
<path d="M216.609 37.6566C215.465 35.0893 214.893 32.742 214.893 30.6294C214.893 29.5731 215.039 28.4288 215.318 27.1818C215.597 25.9348 215.89 24.9666 216.169 24.2624L216.594 23.2061H217.783C217.401 24.2184 217.034 25.4654 216.712 26.9618C216.389 28.4582 216.213 29.6612 216.213 30.6148C216.213 31.5683 216.345 32.61 216.609 33.7836C216.873 34.9572 217.137 35.8962 217.401 36.6004L217.783 37.6566H216.594H216.609Z" fill="black"/>
<path d="M221.729 33.1089V31.9939H228.801V33.1089H221.729Z" fill="black"/>
<path d="M236.824 35.7348C238.82 35.7348 239.817 34.4732 239.832 31.9352C238.732 32.3606 237.793 32.566 237 32.566C234.624 32.566 233.436 31.4657 233.436 29.2504C233.436 28.1355 233.773 27.2552 234.462 26.6097C235.137 25.9642 236.062 25.6415 237.221 25.6415C238.556 25.6415 239.539 26.1403 240.199 27.1232C240.844 28.1061 241.167 29.5585 241.167 31.4657C241.167 33.3729 240.8 34.7519 240.067 35.6028C239.333 36.4537 238.262 36.8791 236.839 36.8791C236.018 36.8791 235.167 36.8058 234.286 36.6444L233.861 36.5857L233.978 35.5588C234.961 35.6908 235.93 35.7642 236.854 35.7642L236.824 35.7348ZM237.089 31.451C237.763 31.451 238.541 31.3043 239.421 31.0109L239.847 30.8642C239.817 28.1355 238.937 26.7711 237.206 26.7711C236.443 26.7711 235.827 26.9912 235.401 27.446C234.961 27.8861 234.756 28.5022 234.756 29.2651C234.756 30.7322 235.533 31.4657 237.103 31.4657L237.089 31.451Z" fill="black"/>
<path d="M245.847 33.1088V31.9939H248.972V28.781H250.13V31.9939H253.285V33.1088H250.13V36.3657H248.972V33.1088H245.847Z" fill="black"/>
<path d="M261.31 35.7349C263.305 35.7349 264.303 34.4732 264.317 31.9352C263.217 32.3607 262.278 32.5661 261.486 32.5661C259.109 32.5661 257.921 31.4658 257.921 29.2505C257.921 28.1355 258.258 27.2553 258.948 26.6098C259.623 25.9643 260.547 25.6415 261.706 25.6415C263.041 25.6415 264.024 26.1403 264.684 27.1233C265.33 28.1062 265.652 29.5586 265.652 31.4658C265.652 33.3729 265.286 34.752 264.552 35.6029C263.818 36.4538 262.748 36.8792 261.324 36.8792C260.503 36.8792 259.652 36.8058 258.772 36.6445L258.346 36.5858L258.464 35.5588C259.447 35.6909 260.415 35.7642 261.339 35.7642L261.31 35.7349ZM261.574 31.4511C262.249 31.4511 263.026 31.3044 263.906 31.011L264.332 30.8643C264.303 28.1355 263.422 26.7712 261.691 26.7712C260.928 26.7712 260.312 26.9912 259.887 27.446C259.447 27.8861 259.241 28.5023 259.241 29.2652C259.241 30.7322 260.019 31.4658 261.589 31.4658L261.574 31.4511Z" fill="black"/>
<path d="M272.372 28.4729C272.49 29.2357 272.548 30.0573 272.548 30.9228C272.548 31.7884 272.402 32.8007 272.123 33.9743C271.829 35.148 271.551 36.0575 271.272 36.6884L270.847 37.6566H269.658C270.025 36.7764 270.392 35.6174 270.729 34.1797C271.067 32.742 271.228 31.5537 271.228 30.6148C271.228 29.6758 271.096 28.5902 270.847 27.3579C270.582 26.1256 270.333 25.128 270.069 24.3651L269.673 23.2061H270.861C271.595 24.8492 272.094 26.595 272.402 28.4729H272.372Z" fill="black"/>
<path d="M279.691 36.8351C279.574 37.3926 279.427 37.8914 279.236 38.3168C279.06 38.7423 278.825 39.1091 278.532 39.4025C278.253 39.6959 277.916 39.9159 277.52 40.0626C277.124 40.2094 276.669 40.2974 276.141 40.2974C275.979 40.2974 275.847 40.2974 275.745 40.2827C275.642 40.2827 275.539 40.2534 275.451 40.224L275.642 39.5198C275.73 39.5492 275.818 39.5638 275.935 39.5785C276.053 39.5932 276.155 39.5785 276.258 39.5785C276.478 39.5785 276.684 39.5492 276.874 39.4758C277.065 39.4025 277.241 39.2851 277.402 39.0944C277.564 38.9037 277.71 38.6543 277.842 38.3315C277.974 38.0088 278.107 37.5833 278.209 37.0699L279.515 31.2603C279.574 30.9816 279.632 30.7322 279.662 30.5414C279.691 30.3507 279.706 30.1894 279.706 30.0426C279.706 29.9253 279.706 29.8226 279.662 29.7346C279.632 29.6612 279.588 29.5879 279.515 29.5438C279.442 29.4998 279.354 29.4705 279.251 29.4412C279.133 29.4265 279.001 29.4118 278.84 29.3971L278.928 28.9717L280.894 28.8983H281.349L279.676 36.8058L279.691 36.8351ZM283.931 25.9202L281.906 27.666L281.481 27.1819L282.772 26.0669H277.857V25.304H282.772L281.481 24.1891L281.906 23.705L283.931 25.4508V25.9202Z" fill="black"/>
<path d="M286.47 33.1088V31.9939H289.595V28.781H290.754V31.9939H293.908V33.1088H290.754V36.3657H289.595V33.1088H286.47Z" fill="black"/>
<path d="M304.617 37.6566C303.473 35.0893 302.9 32.742 302.9 30.6294C302.9 29.5731 303.047 28.4288 303.326 27.1818C303.605 25.9348 303.898 24.9666 304.177 24.2624L304.602 23.2061H305.79C305.409 24.2184 305.042 25.4654 304.72 26.9618C304.397 28.4582 304.221 29.6612 304.221 30.6148C304.221 31.5683 304.353 32.61 304.617 33.7836C304.881 34.9572 305.145 35.8962 305.409 36.6004L305.79 37.6566H304.602H304.617Z" fill="black"/>
<path d="M316.617 26.9619C315.62 26.8299 314.666 26.7712 313.727 26.7712C312.788 26.7712 312.069 27.0939 311.571 27.7394C311.057 28.385 310.808 29.3239 310.808 30.5269L311.218 30.3655C311.497 30.2628 311.864 30.1601 312.319 30.0574C312.774 29.9547 313.184 29.896 313.536 29.896C315.986 29.896 317.204 31.0257 317.204 33.2849C317.204 34.4439 316.867 35.3241 316.206 35.955C315.546 36.5711 314.607 36.8939 313.39 36.8939C310.793 36.8939 309.487 35.0014 309.487 31.231C309.487 29.3239 309.854 27.9302 310.602 27.0206C311.35 26.1257 312.392 25.6709 313.742 25.6709C314.637 25.6709 315.488 25.7296 316.28 25.8763L316.72 25.9643L316.603 27.0059L316.617 26.9619ZM313.448 31.011C313.082 31.011 312.671 31.0697 312.216 31.1724C311.761 31.2751 311.424 31.3778 311.174 31.4804L310.793 31.6418C310.793 32.8888 311.013 33.8864 311.424 34.6346C311.835 35.3828 312.465 35.7349 313.316 35.7349C314.167 35.7349 314.798 35.5295 315.224 35.1041C315.649 34.6786 315.869 34.0771 315.869 33.2996C315.869 32.5221 315.664 31.9499 315.238 31.5685C314.813 31.2017 314.211 31.011 313.448 31.011Z" fill="black"/>
<path d="M321.855 33.1089V31.9939H328.927V33.1089H321.855Z" fill="black"/>
<path d="M344.11 26.9619C343.113 26.8299 342.159 26.7712 341.22 26.7712C340.281 26.7712 339.563 27.0939 339.064 27.7394C338.55 28.385 338.301 29.3239 338.301 30.5269L338.712 30.3655C338.99 30.2628 339.357 30.1601 339.812 30.0574C340.267 29.9547 340.677 29.896 341.03 29.896C343.48 29.896 344.697 31.0257 344.697 33.2849C344.697 34.4439 344.36 35.3241 343.7 35.955C343.039 36.5711 342.101 36.8939 340.883 36.8939C338.286 36.8939 336.98 35.0014 336.98 31.231C336.98 29.3239 337.347 27.9302 338.095 27.0206C338.844 26.1257 339.885 25.6709 341.235 25.6709C342.13 25.6709 342.981 25.7296 343.773 25.8763L344.213 25.9643L344.096 27.0059L344.11 26.9619ZM340.942 31.011C340.575 31.011 340.164 31.0697 339.709 31.1724C339.254 31.2751 338.917 31.3778 338.668 31.4804L338.286 31.6418C338.286 32.8888 338.506 33.8864 338.917 34.6346C339.328 35.3828 339.959 35.7349 340.809 35.7349C341.66 35.7349 342.291 35.5295 342.717 35.1041C343.142 34.6786 343.362 34.0771 343.362 33.2996C343.362 32.5221 343.157 31.9499 342.731 31.5685C342.306 31.2017 341.704 31.011 340.942 31.011Z" fill="black"/>
<path d="M348.292 28.4729C348.41 29.2357 348.468 30.0573 348.468 30.9228C348.468 31.7884 348.322 32.8007 348.043 33.9743C347.749 35.148 347.471 36.0575 347.192 36.6884L346.766 37.6566H345.578C345.945 36.7764 346.312 35.6174 346.649 34.1797C346.987 32.742 347.148 31.5537 347.148 30.6148C347.148 29.6758 347.016 28.5902 346.766 27.3579C346.502 26.1256 346.253 25.128 345.989 24.3651L345.593 23.2061H346.781C347.515 24.8492 348.013 26.595 348.322 28.4729H348.292Z" fill="black"/>
<path d="M355.803 33.3875C355.744 33.1822 355.7 33.0354 355.642 32.9474C355.583 32.8741 355.524 32.8154 355.451 32.786C355.378 32.7567 355.26 32.742 355.084 32.742H354.527L353.691 36.6884H352.297L354.365 27.4753C354.439 27.1672 354.483 26.9178 354.512 26.7418C354.541 26.5657 354.556 26.419 354.556 26.2723C354.556 26.0523 354.483 25.8909 354.351 25.8029C354.219 25.7148 353.969 25.6561 353.617 25.6561L353.72 25.2307L355.759 25.1573H356.229L354.644 32.1992H354.908C355.304 32.1992 355.759 32.0232 356.273 31.6711C356.771 31.319 357.182 30.9962 357.476 30.6882C357.769 30.3801 357.93 30.1013 357.93 29.8226C357.93 29.5585 357.754 29.4118 357.388 29.3825L357.476 28.9864H360.087L360.234 29.3825C359.794 29.7786 359.309 30.1747 358.811 30.5708L356.815 32.1112L357.608 35.016C357.666 35.2654 357.725 35.4414 357.784 35.5588C357.828 35.6762 357.901 35.7495 357.96 35.8082C358.033 35.8669 358.121 35.8815 358.224 35.8815C358.371 35.8815 358.532 35.8082 358.723 35.6615C358.913 35.5148 359.133 35.2947 359.383 35.016L359.838 35.4708C359.353 35.9842 358.957 36.3363 358.635 36.5417C358.312 36.7471 358.018 36.8351 357.71 36.8351C357.344 36.8351 357.05 36.7324 356.845 36.527C356.625 36.3217 356.463 35.9696 356.331 35.4854L355.803 33.3875Z" fill="black"/>
<path d="M360.981 22.6194L358.956 24.3652L358.531 23.881L359.822 22.7661H354.907V22.0032H359.822L358.531 20.8882L358.956 20.4041L360.981 22.1499V22.6194Z" fill="black"/>
<path d="M366.952 31.5977V30.4534H374.082V31.5977H366.952ZM366.952 34.6492V33.5049H374.082V34.6492H366.952Z" fill="black"/>
<path d="M383.911 25.6268C384.821 25.6268 385.54 25.8029 386.112 26.1403C387.3 26.8445 387.887 28.605 387.887 31.4217C387.887 33.4169 387.564 34.8253 386.904 35.6322C386.244 36.439 385.261 36.8645 383.941 36.8645C382.62 36.8645 381.623 36.4537 380.962 35.6468C380.302 34.84 379.965 33.4022 379.965 31.319C379.965 29.2358 380.288 27.7834 380.948 26.9178C381.608 26.0523 382.591 25.6268 383.926 25.6268H383.911ZM383.926 26.7565C383.295 26.7565 382.796 26.8885 382.444 27.1526C381.667 27.6954 381.271 29.1184 381.271 31.4217C381.271 33.0501 381.491 34.1798 381.916 34.7959C382.342 35.4121 383.016 35.7349 383.926 35.7349C384.835 35.7349 385.51 35.4268 385.936 34.7959C386.361 34.1651 386.581 33.0061 386.581 31.3043C386.581 29.6026 386.376 28.4289 385.965 27.7541C385.554 27.0792 384.88 26.7565 383.926 26.7565Z" fill="black"/>
<path d="M391.789 22.6194L389.765 24.3652L389.339 23.881L390.63 22.7661H385.716V22.0032H390.63L389.339 20.8882L389.765 20.4041L391.789 22.1499V22.6194Z" fill="black"/>
</svg>
