<svg width="439" height="431" viewBox="0 0 439 431" fill="none" xmlns="http://www.w3.org/2000/svg">
<path d="M272 168.5L219.943 325.5L110.944 405.311L162.5 251L272 168.5Z" fill="#9747FF" fill-opacity="0.1" stroke="#6547BA" stroke-width="5" stroke-linejoin="round"/>
<path d="M109.246 169L8 248H331L431.488 169H109.246Z" fill="#00D3CD" fill-opacity="0.2" stroke="#00D3CD" stroke-width="5"/>
<path d="M322.951 26.31L271.944 168.5L162.5 251.5L214.995 94.7511L322.951 26.31Z" fill="#9747FF" fill-opacity="0.1" stroke="#6547BA" stroke-width="5" stroke-linejoin="round"/>
<path d="M160.636 320.223H162.628C164.073 320.223 165.304 320.457 166.319 320.926C167.335 321.395 168.111 322.054 168.648 322.903C169.186 323.753 169.454 324.764 169.454 325.936C169.454 327.283 169.19 328.431 168.663 329.378C168.146 330.325 167.398 331.048 166.422 331.546C165.445 332.044 164.283 332.293 162.936 332.293C162.164 332.293 161.378 332.181 160.577 331.956C159.776 331.722 159.034 331.36 158.351 330.872C157.677 330.384 157.135 329.764 156.725 329.012C156.314 328.25 156.109 327.342 156.109 326.287L157.662 326.097C157.662 326.634 157.843 327.122 158.204 327.562C158.565 328.001 159.068 328.353 159.713 328.616C160.357 328.87 161.109 328.997 161.969 328.997C162.662 328.997 163.248 328.86 163.727 328.587C164.215 328.313 164.586 327.942 164.84 327.474C165.104 327.005 165.235 326.473 165.235 325.877C165.235 325.174 165.113 324.568 164.869 324.061C164.625 323.543 164.264 323.147 163.785 322.874C163.307 322.591 162.721 322.449 162.027 322.449H160.636V320.223ZM161.646 310.379C163.033 310.379 164.239 310.608 165.265 311.067C166.3 311.517 167.101 312.171 167.667 313.03C168.233 313.88 168.517 314.915 168.517 316.136C168.517 317.142 168.253 318.05 167.726 318.86C167.198 319.671 166.461 320.315 165.514 320.794C164.566 321.272 163.458 321.512 162.188 321.512H160.636V319.446H161.588C162.232 319.446 162.75 319.324 163.141 319.08C163.541 318.836 163.829 318.489 164.005 318.04C164.19 317.591 164.283 317.054 164.283 316.429C164.283 315.95 164.186 315.501 163.99 315.081C163.805 314.661 163.517 314.324 163.126 314.07C162.735 313.807 162.242 313.675 161.646 313.675C161.1 313.675 160.606 313.807 160.167 314.07C159.737 314.324 159.396 314.686 159.142 315.154C158.897 315.623 158.775 316.18 158.775 316.824V337.933H154.557V316.824C154.557 315.535 154.879 314.407 155.523 313.44C156.168 312.474 157.022 311.722 158.087 311.185C159.161 310.647 160.348 310.379 161.646 310.379Z" fill="#354551"/>
<path d="M67.1318 224.485V224.178C67.1318 222.967 67.2637 221.854 67.5273 220.838C67.8008 219.822 68.1963 218.943 68.7139 218.201C69.2412 217.459 69.8906 216.883 70.6621 216.473C71.4336 216.062 72.3223 215.857 73.3281 215.857C74.0215 215.857 74.6416 215.989 75.1885 216.253C75.7451 216.507 76.2285 216.878 76.6387 217.366C77.0586 217.854 77.415 218.436 77.708 219.109C78.001 219.773 78.2451 220.516 78.4404 221.336C78.6357 222.146 78.7871 223.016 78.8945 223.943V224.588C78.7676 225.691 78.5674 226.712 78.2939 227.649C78.0205 228.587 77.6641 229.407 77.2246 230.11C76.7852 230.804 76.2383 231.341 75.584 231.722C74.9395 232.103 74.1777 232.293 73.2988 232.293C72.3027 232.293 71.4189 232.103 70.6475 231.722C69.8857 231.341 69.2412 230.804 68.7139 230.11C68.1865 229.407 67.791 228.582 67.5273 227.635C67.2637 226.678 67.1318 225.628 67.1318 224.485ZM71.3652 224.178V224.485C71.3652 225.14 71.4141 225.74 71.5117 226.287C71.6191 226.824 71.79 227.298 72.0244 227.708C72.2588 228.118 72.5664 228.436 72.9473 228.66C73.3281 228.885 73.7969 228.997 74.3535 228.997C74.9004 228.997 75.3643 228.895 75.7451 228.689C76.1357 228.484 76.458 228.201 76.7119 227.84C76.9658 227.469 77.166 227.034 77.3125 226.536C77.459 226.028 77.5664 225.467 77.6348 224.852V223.768C77.5762 223.094 77.4736 222.479 77.3271 221.922C77.1904 221.355 76.9902 220.867 76.7266 220.457C76.4727 220.047 76.1504 219.729 75.7598 219.505C75.3789 219.271 74.9199 219.153 74.3828 219.153C73.8359 219.153 73.3672 219.285 72.9766 219.549C72.5957 219.812 72.2832 220.174 72.0391 220.633C71.8047 221.092 71.6338 221.629 71.5264 222.244C71.4189 222.85 71.3652 223.494 71.3652 224.178ZM77.4736 216.15H81.1357V226.932C81.1357 227.312 81.1602 227.63 81.209 227.884C81.2578 228.138 81.3262 228.343 81.4141 228.499C81.5117 228.655 81.624 228.768 81.751 228.836C81.8877 228.895 82.0391 228.924 82.2051 228.924C82.2832 228.924 82.3467 228.919 82.3955 228.909C82.4443 228.89 82.4883 228.875 82.5273 228.865L82.8789 231.941C82.5664 232.098 82.2686 232.195 81.9854 232.234C81.7021 232.283 81.3945 232.308 81.0625 232.308C80.4863 232.308 79.9639 232.22 79.4951 232.044C79.0264 231.868 78.6113 231.6 78.25 231.238C77.8984 230.867 77.6104 230.403 77.3857 229.847C77.1611 229.28 77.0049 228.611 76.917 227.84V219.549L77.4736 216.15Z" fill="#354551"/>
<path d="M299.866 145.607V158H295.647V142.15H299.617L299.866 145.607ZM304.642 142.048L304.568 145.959C304.363 145.93 304.114 145.905 303.821 145.886C303.538 145.856 303.279 145.842 303.045 145.842C302.449 145.842 301.932 145.92 301.492 146.076C301.062 146.223 300.701 146.442 300.408 146.735C300.125 147.028 299.91 147.385 299.764 147.805C299.627 148.225 299.549 148.703 299.529 149.24L298.68 148.977C298.68 147.951 298.782 147.009 298.987 146.149C299.192 145.28 299.49 144.523 299.881 143.879C300.281 143.234 300.77 142.736 301.346 142.385C301.922 142.033 302.581 141.857 303.323 141.857C303.558 141.857 303.797 141.877 304.041 141.916C304.285 141.945 304.485 141.989 304.642 142.048Z" fill="#354551"/>
<path d="M360.881 64.0924L363.86 60.9665V60.1259L360.881 57L360.255 57.8668L362.155 59.8632H347.902V61.2292H362.155L360.255 63.2255L360.881 64.0924Z" fill="#172833"/>
<path d="M354.562 79.3565L357.888 68.1857H361.127L356.211 82.3043H354.078L354.562 79.3565ZM351.498 68.1857L354.815 79.3565L355.319 82.3043H353.166L348.279 68.1857H351.498ZM366.305 78.1832V85.8146H364.337V80.4328L362.514 80.8498V79.3468L366.121 78.1832H366.305Z" fill="#354551"/>
<path d="M382.071 114.429L385.071 111.28V110.434L382.071 107.286L381.441 108.159L383.354 110.169H369V111.545H383.354L381.441 113.555L382.071 114.429Z" fill="#172833"/>
<path d="M375.633 129.674L378.982 118.423H382.244L377.293 132.642H375.144L375.633 129.674ZM372.547 118.423L375.887 129.674L376.394 132.642H374.226L369.304 118.423H372.547ZM389.061 134.615V136.178H383.035V134.869L385.828 132.34C386.069 132.118 386.264 131.91 386.414 131.715C386.564 131.513 386.675 131.334 386.746 131.177C386.824 131.015 386.863 130.881 386.863 130.777C386.863 130.523 386.782 130.318 386.619 130.162C386.463 130.006 386.229 129.927 385.916 129.927C385.558 129.927 385.288 130.038 385.106 130.259C384.93 130.474 384.842 130.731 384.842 131.031H382.859C382.859 130.543 382.98 130.097 383.221 129.693C383.462 129.289 383.803 128.967 384.246 128.726C384.689 128.479 385.216 128.355 385.828 128.355C386.466 128.355 387.01 128.453 387.459 128.648C387.908 128.837 388.25 129.11 388.485 129.468C388.725 129.827 388.846 130.259 388.846 130.767C388.846 131.145 388.768 131.487 388.612 131.793C388.455 132.099 388.221 132.401 387.908 132.701C387.596 133 387.199 133.336 386.717 133.707L385.633 134.615H389.061Z" fill="#354551"/>
<path d="M335.637 75.9417C335.914 75.6647 335.914 75.2157 335.637 74.9387L331.124 70.4251C330.847 70.1481 330.398 70.1481 330.121 70.4251C329.844 70.7021 329.844 71.1511 330.121 71.4281L334.133 75.4402L330.121 79.4523C329.844 79.7292 329.844 80.1783 330.121 80.4553C330.398 80.7322 330.847 80.7322 331.124 80.4553L335.637 75.9417ZM294 76.1494L335.136 76.1494V74.7309L294 74.7309V76.1494Z" fill="#ED3B48"/>
<path d="M379.505 141.066C379.226 140.787 378.774 140.787 378.495 141.066L373.949 145.612C373.67 145.891 373.67 146.343 373.949 146.622C374.228 146.901 374.68 146.901 374.959 146.622L379 142.582L383.041 146.622C383.32 146.901 383.772 146.901 384.051 146.622C384.33 146.343 384.33 145.891 384.051 145.612L379.505 141.066ZM379.714 183L379.714 141.571L378.286 141.571L378.286 183L379.714 183Z" fill="#ED3B48"/>
</svg>
