<svg width="412" height="396" viewBox="0 0 412 396" fill="none" xmlns="http://www.w3.org/2000/svg">
<path d="M121.773 130.273L6.5 244.683H290.581L404.991 130.273H121.773Z" stroke="#6547BA" stroke-width="5"/>
<path d="M190.419 239.07L213.301 191.579" stroke="#6547BA" stroke-width="5" stroke-dasharray="5 5"/>
<path d="M215.891 186.83L299.648 15M112.275 394.063L185.238 246.41" stroke="#6547BA" stroke-width="5"/>
<path d="M264.676 210.98V210.57C264.676 208.956 264.852 207.471 265.203 206.117C265.568 204.763 266.095 203.591 266.785 202.602C267.488 201.612 268.354 200.844 269.383 200.297C270.411 199.75 271.596 199.477 272.938 199.477C273.862 199.477 274.689 199.652 275.418 200.004C276.16 200.342 276.805 200.837 277.352 201.488C277.911 202.139 278.387 202.914 278.777 203.812C279.168 204.698 279.493 205.688 279.754 206.781C280.014 207.862 280.216 209.021 280.359 210.258V211.117C280.19 212.589 279.923 213.949 279.559 215.199C279.194 216.449 278.719 217.543 278.133 218.48C277.547 219.405 276.818 220.121 275.945 220.629C275.086 221.137 274.07 221.391 272.898 221.391C271.57 221.391 270.392 221.137 269.363 220.629C268.348 220.121 267.488 219.405 266.785 218.48C266.082 217.543 265.555 216.443 265.203 215.18C264.852 213.904 264.676 212.504 264.676 210.98ZM270.32 210.57V210.98C270.32 211.853 270.385 212.654 270.516 213.383C270.659 214.099 270.887 214.73 271.199 215.277C271.512 215.824 271.922 216.247 272.43 216.547C272.938 216.846 273.562 216.996 274.305 216.996C275.034 216.996 275.652 216.859 276.16 216.586C276.681 216.312 277.111 215.935 277.449 215.453C277.788 214.958 278.055 214.379 278.25 213.715C278.445 213.038 278.589 212.289 278.68 211.469V210.023C278.602 209.125 278.465 208.305 278.27 207.562C278.087 206.807 277.82 206.156 277.469 205.609C277.13 205.062 276.701 204.639 276.18 204.34C275.672 204.027 275.06 203.871 274.344 203.871C273.615 203.871 272.99 204.047 272.469 204.398C271.961 204.75 271.544 205.232 271.219 205.844C270.906 206.456 270.678 207.172 270.535 207.992C270.392 208.799 270.32 209.659 270.32 210.57ZM278.465 199.867H283.348V214.242C283.348 214.75 283.38 215.173 283.445 215.512C283.51 215.85 283.602 216.124 283.719 216.332C283.849 216.54 283.999 216.69 284.168 216.781C284.35 216.859 284.552 216.898 284.773 216.898C284.878 216.898 284.962 216.892 285.027 216.879C285.092 216.853 285.151 216.833 285.203 216.82L285.672 220.922C285.255 221.13 284.858 221.26 284.48 221.312C284.103 221.378 283.693 221.41 283.25 221.41C282.482 221.41 281.785 221.293 281.16 221.059C280.535 220.824 279.982 220.466 279.5 219.984C279.031 219.49 278.647 218.871 278.348 218.129C278.048 217.374 277.84 216.482 277.723 215.453V204.398L278.465 199.867Z" fill="#354551"/>
<path d="M255.988 20.4766V37H250.363V15.8672H255.656L255.988 20.4766ZM262.355 15.7305L262.258 20.9453C261.984 20.9062 261.652 20.8737 261.262 20.8477C260.884 20.8086 260.539 20.7891 260.227 20.7891C259.432 20.7891 258.742 20.8932 258.156 21.1016C257.583 21.2969 257.102 21.5898 256.711 21.9805C256.333 22.3711 256.047 22.8464 255.852 23.4062C255.669 23.9661 255.565 24.6042 255.539 25.3203L254.406 24.9688C254.406 23.6016 254.543 22.3451 254.816 21.1992C255.09 20.0404 255.487 19.0312 256.008 18.1719C256.542 17.3125 257.193 16.6484 257.961 16.1797C258.729 15.7109 259.608 15.4766 260.598 15.4766C260.91 15.4766 261.229 15.5026 261.555 15.5547C261.88 15.5938 262.147 15.6523 262.355 15.7305Z" fill="#354551"/>
</svg>
