<svg width="416" height="226" viewBox="0 0 416 226" fill="none" xmlns="http://www.w3.org/2000/svg">
<path d="M37.5 47L53.6716 70.9126L66.2947 44.9512L37.5 47ZM400.5 223.5L384.328 199.587L371.705 225.549L400.5 223.5ZM56.6417 59.087L379.172 215.91L381.358 211.413L58.8281 54.5904L56.6417 59.087Z" fill="#6547BA"/>
<path d="M34.5 223.5L63.2889 225.629L50.7378 199.632L34.5 223.5ZM398 48L369.211 45.8715L381.762 71.8677L398 48ZM55.849 215.969L378.825 60.034L376.651 55.5313L53.6751 211.466L55.849 215.969Z" fill="#6547BA"/>
<path d="M408.988 20.4766V37H403.363V15.8672H408.656L408.988 20.4766ZM415.355 15.7305L415.258 20.9453C414.984 20.9062 414.652 20.8737 414.262 20.8477C413.884 20.8086 413.539 20.7891 413.227 20.7891C412.432 20.7891 411.742 20.8932 411.156 21.1016C410.583 21.2969 410.102 21.5898 409.711 21.9805C409.333 22.3711 409.047 22.8464 408.852 23.4062C408.669 23.9661 408.565 24.6042 408.539 25.3203L407.406 24.9688C407.406 23.6016 407.543 22.3451 407.816 21.1992C408.09 20.0404 408.487 19.0312 409.008 18.1719C409.542 17.3125 410.193 16.6484 410.961 16.1797C411.729 15.7109 412.608 15.4766 413.598 15.4766C413.91 15.4766 414.229 15.5026 414.555 15.5547C414.88 15.5938 415.147 15.6523 415.355 15.7305Z" fill="#354551"/>
<path d="M13.8398 31.1602C13.8398 30.7565 13.7227 30.3919 13.4883 30.0664C13.2539 29.7409 12.8177 29.4414 12.1797 29.168C11.5547 28.8815 10.6497 28.6211 9.46484 28.3867C8.39714 28.1523 7.40104 27.8594 6.47656 27.5078C5.5651 27.1432 4.77083 26.707 4.09375 26.1992C3.42969 25.6914 2.90885 25.0924 2.53125 24.4023C2.15365 23.6992 1.96484 22.8984 1.96484 22C1.96484 21.1146 2.15365 20.2812 2.53125 19.5C2.92188 18.7188 3.47526 18.0286 4.19141 17.4297C4.92057 16.8177 5.80599 16.3424 6.84766 16.0039C7.90234 15.6523 9.08724 15.4766 10.4023 15.4766C12.2383 15.4766 13.8138 15.7695 15.1289 16.3555C16.457 16.9414 17.4727 17.7487 18.1758 18.7773C18.8919 19.793 19.25 20.9518 19.25 22.2539H13.625C13.625 21.707 13.5078 21.2188 13.2734 20.7891C13.0521 20.3464 12.7005 20.0013 12.2188 19.7539C11.75 19.4935 11.138 19.3633 10.3828 19.3633C9.75781 19.3633 9.21745 19.474 8.76172 19.6953C8.30599 19.9036 7.95443 20.1901 7.70703 20.5547C7.47266 20.9062 7.35547 21.2969 7.35547 21.7266C7.35547 22.0521 7.42057 22.3451 7.55078 22.6055C7.69401 22.8529 7.92188 23.0807 8.23438 23.2891C8.54688 23.4974 8.95052 23.6927 9.44531 23.875C9.95312 24.0443 10.5781 24.2005 11.3203 24.3438C12.8438 24.6562 14.2044 25.0664 15.4023 25.5742C16.6003 26.069 17.5508 26.7461 18.2539 27.6055C18.957 28.4518 19.3086 29.5651 19.3086 30.9453C19.3086 31.8828 19.1003 32.7422 18.6836 33.5234C18.2669 34.3047 17.668 34.9883 16.8867 35.5742C16.1055 36.1471 15.168 36.5964 14.0742 36.9219C12.9935 37.2344 11.776 37.3906 10.4219 37.3906C8.45573 37.3906 6.78906 37.0391 5.42188 36.3359C4.06771 35.6328 3.03906 34.7409 2.33594 33.6602C1.64583 32.5664 1.30078 31.4466 1.30078 30.3008H6.63281C6.65885 31.069 6.85417 31.6875 7.21875 32.1562C7.59635 32.625 8.07161 32.9635 8.64453 33.1719C9.23047 33.3802 9.86198 33.4844 10.5391 33.4844C11.2682 33.4844 11.8737 33.3867 12.3555 33.1914C12.8372 32.9831 13.2018 32.7096 13.4492 32.3711C13.7096 32.0195 13.8398 31.6159 13.8398 31.1602Z" fill="#354551"/>
<path d="M117.1 111.891L120.947 114.938L119.102 116.539L115.312 113.492L117.1 111.891ZM121.045 106.559V107.232C121.045 108.313 120.898 109.283 120.605 110.143C120.319 111.002 119.906 111.734 119.365 112.34C118.825 112.939 118.187 113.398 117.451 113.717C116.715 114.036 115.898 114.195 115 114.195C114.108 114.195 113.291 114.036 112.549 113.717C111.807 113.398 111.165 112.939 110.625 112.34C110.085 111.734 109.665 111.002 109.365 110.143C109.072 109.283 108.926 108.313 108.926 107.232V106.559C108.926 105.471 109.072 104.501 109.365 103.648C109.665 102.789 110.081 102.057 110.615 101.451C111.149 100.846 111.787 100.383 112.529 100.064C113.271 99.7454 114.089 99.5859 114.98 99.5859C115.879 99.5859 116.696 99.7454 117.432 100.064C118.174 100.383 118.815 100.846 119.355 101.451C119.896 102.057 120.312 102.789 120.605 103.648C120.898 104.501 121.045 105.471 121.045 106.559ZM118.086 107.232V106.539C118.086 105.784 118.014 105.12 117.871 104.547C117.734 103.974 117.533 103.492 117.266 103.102C117.005 102.711 116.683 102.418 116.299 102.223C115.915 102.021 115.475 101.92 114.98 101.92C114.486 101.92 114.046 102.021 113.662 102.223C113.278 102.418 112.956 102.711 112.695 103.102C112.435 103.492 112.236 103.974 112.1 104.547C111.963 105.12 111.895 105.784 111.895 106.539V107.232C111.895 107.981 111.963 108.645 112.1 109.225C112.236 109.798 112.435 110.283 112.695 110.68C112.962 111.07 113.288 111.367 113.672 111.568C114.062 111.77 114.505 111.871 115 111.871C115.495 111.871 115.931 111.77 116.309 111.568C116.693 111.367 117.015 111.07 117.275 110.68C117.542 110.283 117.744 109.798 117.881 109.225C118.018 108.645 118.086 107.981 118.086 107.232Z" fill="#354551"/>
<path d="M328.861 108.932H325.238V106.646H328.861C329.421 106.646 329.877 106.555 330.229 106.373C330.58 106.184 330.837 105.924 331 105.592C331.163 105.26 331.244 104.885 331.244 104.469C331.244 104.046 331.163 103.652 331 103.287C330.837 102.923 330.58 102.63 330.229 102.408C329.877 102.187 329.421 102.076 328.861 102.076H326.254V114H323.324V99.7812H328.861C329.975 99.7812 330.928 99.9831 331.723 100.387C332.523 100.784 333.135 101.334 333.559 102.037C333.982 102.74 334.193 103.544 334.193 104.449C334.193 105.367 333.982 106.161 333.559 106.832C333.135 107.503 332.523 108.02 331.723 108.385C330.928 108.749 329.975 108.932 328.861 108.932Z" fill="#354551"/>
<path d="M73 87H365" stroke="#00D3CD" stroke-width="5" stroke-dasharray="8 8"/>
</svg>
