<svg width="449" height="67" viewBox="0 0 449 67" fill="none" xmlns="http://www.w3.org/2000/svg">
<path d="M1 0V66.78" stroke="black" stroke-width="1.01757" stroke-miterlimit="10"/>
<path d="M110 0V66.78" stroke="black" stroke-width="1.01757" stroke-miterlimit="10"/>
<path d="M14.0137 16.9367V15.905H20.5431V16.9367H14.0137Z" fill="black"/>
<path d="M25.3077 10.4208C26.2579 10.1357 27.2896 10 28.3892 10C29.4887 10 30.276 10.2036 30.7647 10.6244C31.2534 11.0452 31.4978 11.7104 31.4978 12.6199C31.4978 13.095 31.4299 13.4208 31.3077 13.638C31.1855 13.8416 31.0769 14.0045 31.0091 14.1131C30.9276 14.2217 30.8326 14.3303 30.7104 14.4389C30.4797 14.6154 30.3032 14.7376 30.181 14.8054L30.0181 14.914C30.6154 15.1312 31.0498 15.4027 31.3349 15.7285C31.6199 16.0543 31.7693 16.5973 31.7693 17.3575C31.7693 18.3891 31.5113 19.1493 30.9819 19.6516C30.4525 20.1538 29.6245 20.3982 28.4978 20.3982C27.6018 20.3982 26.6516 20.3032 25.6607 20.0995L25.1855 19.9909L25.2941 19.0271C26.3937 19.2579 27.4254 19.3665 28.3756 19.3665C29.8281 19.3665 30.5611 18.7014 30.5611 17.4118C30.5611 16.2036 29.8688 15.5656 28.4842 15.5113H26.448V14.5068H28.4842C28.905 14.5068 29.3258 14.3303 29.7195 13.991C30.1131 13.6516 30.3168 13.2036 30.3168 12.6335C30.3168 12.0633 30.1539 11.6697 29.8417 11.4253C29.5294 11.181 29 11.0452 28.2534 11.0452C27.4389 11.0452 26.638 11.1267 25.8371 11.276L25.4435 11.3575L25.3349 10.4208H25.3077Z" fill="black"/>
<path d="M56.5837 19.3665C58.4299 19.3665 59.353 18.199 59.3665 15.8506C58.3484 16.2443 57.4797 16.4343 56.7466 16.4343C54.5475 16.4343 53.448 15.4162 53.448 13.3665C53.448 12.3348 53.7602 11.5203 54.3982 10.923C55.0227 10.3257 55.8779 10.0271 56.9503 10.0271C58.1856 10.0271 59.0951 10.4886 59.6923 11.3981C60.2896 12.3076 60.5883 13.6515 60.5883 15.4162C60.5883 17.1809 60.2489 18.457 59.5702 19.2443C58.8914 20.0316 57.9005 20.4253 56.5837 20.4253C55.8236 20.4253 55.0362 20.3574 54.2218 20.2081L53.8281 20.1538L53.9367 19.2036C54.8462 19.3257 55.7421 19.3936 56.5973 19.3936L56.5837 19.3665ZM56.8145 15.3891C57.439 15.3891 58.1584 15.2533 58.9729 14.9819L59.3665 14.8461C59.3394 12.3212 58.5249 11.0588 56.9231 11.0588C56.2037 11.0588 55.6471 11.2624 55.2534 11.6832C54.8462 12.0904 54.6561 12.6606 54.6561 13.3665C54.6561 14.7239 55.3756 15.4027 56.8281 15.4027L56.8145 15.3891Z" fill="black"/>
<path d="M82.2263 16.9367V15.905H88.7693V16.9367H82.2263Z" fill="black"/>
<path d="M93.5883 11.2355V10.1631H99.8462V11.7106L95.9639 20.3984L94.8507 20.0454L98.6516 11.6291V11.2355H93.5747H93.5883Z" fill="black"/>
<path d="M29.0136 37.5432V35.5749H24.1267V34.6518L27.0045 27.4573H28.2806L25.362 34.5297H29.0136V31.3804H30.1946V34.5297H31.4842V35.5749H30.1946V37.5432H29.0136Z" fill="black"/>
<path d="M48.6155 34.2309V33.1992H55.1449V34.2309H48.6155Z" fill="black"/>
<path d="M70.1718 27.4707V37.5431H68.9908V28.7739L66.3981 30.4843L65.8687 29.6019L69.0723 27.4707H70.1718Z" fill="black"/>
<path d="M94.0225 28.5431V27.4707H100.28V29.0182L96.398 37.706L95.2849 37.3531L99.0858 28.9368V28.5431H94.0225Z" fill="black"/>
<path d="M14 51.5385V50.5068H20.543V51.5385H14Z" fill="black"/>
<path d="M25.2804 45.0363C26.2442 44.7512 27.2623 44.6155 28.3619 44.6155C29.4614 44.6155 30.2488 44.8191 30.7374 45.2399C31.2261 45.6607 31.4705 46.3259 31.4705 47.2354C31.4705 47.7105 31.4026 48.0363 31.2804 48.2535C31.1583 48.4571 31.0497 48.62 30.9682 48.7286C30.8868 48.8372 30.7917 48.9458 30.6696 49.0544C30.4388 49.2309 30.2623 49.353 30.1402 49.4209L29.9773 49.5295C30.561 49.7467 31.0089 50.0182 31.294 50.344C31.5791 50.6698 31.7148 51.2128 31.7148 51.9729C31.7148 53.0046 31.4569 53.7648 30.9275 54.2671C30.3981 54.7693 29.57 55.0137 28.4433 55.0137C27.5474 55.0137 26.5972 54.9186 25.6062 54.715L25.1311 54.6064L25.2397 53.6426C26.3392 53.8734 27.3709 53.982 28.3211 53.982C29.7736 53.982 30.5067 53.3168 30.5067 52.0272C30.5067 50.8191 29.8144 50.1811 28.4297 50.1268H26.3935V49.1223H28.4297C28.8641 49.1223 29.2714 48.9458 29.665 48.6064C30.0587 48.2671 30.2623 47.8191 30.2623 47.249C30.2623 46.6788 30.0994 46.2852 29.7872 46.0408C29.475 45.7965 28.9456 45.6607 28.199 45.6607C27.3845 45.6607 26.5836 45.7422 25.7827 45.8915L25.389 45.9729L25.2804 45.0363Z" fill="black"/>
<path d="M60.2893 54.8507H53.8413V53.8598L56.787 50.7648C57.3028 50.2353 57.6694 49.8281 57.9001 49.5566C58.1309 49.2851 58.3481 48.9593 58.5381 48.5792C58.7282 48.1991 58.8232 47.819 58.8232 47.4525C58.8232 46.8009 58.6467 46.3394 58.2938 46.0815C57.9409 45.8236 57.3843 45.6878 56.6241 45.6878C55.959 45.6878 55.2259 45.7693 54.4114 45.9457L54.0178 46.0272L53.9228 45.0498C54.8866 44.7783 55.8911 44.6426 56.9228 44.6426C57.9544 44.6426 58.7282 44.8598 59.2576 45.2942C59.787 45.7286 60.0449 46.4073 60.0449 47.3439C60.0449 48.0634 59.882 48.6743 59.5698 49.2037C59.2576 49.7331 58.7146 50.3711 57.9409 51.1177L55.2531 53.8462H60.3028V54.8643L60.2893 54.8507Z" fill="black"/>
<path d="M82.2126 51.5385V50.5068H88.7421V51.5385H82.2126Z" fill="black"/>
<path d="M99.6833 44.7784V45.8508H94.7829L94.5114 49.1358C95.2987 48.715 96.086 48.5114 96.8734 48.5114C99.0181 48.5114 100.077 49.5024 100.077 51.4843C100.077 52.6245 99.7783 53.4933 99.1946 54.0906C98.6109 54.6879 97.7693 54.9865 96.7105 54.9865C95.8553 54.9865 94.905 54.8779 93.8734 54.6471L93.3711 54.5386L93.5068 53.6019C94.6743 53.8327 95.6652 53.9413 96.4661 53.9413C97.267 53.9413 97.8643 53.7376 98.2715 53.3168C98.6788 52.9096 98.8824 52.3259 98.8824 51.5793C98.8824 50.8327 98.6924 50.3033 98.3258 50.0046C97.9593 49.6924 97.4299 49.5431 96.7376 49.5431C96.3711 49.5431 95.991 49.5974 95.5838 49.6924C95.1765 49.7874 94.8779 49.896 94.6607 49.991L94.3349 50.1404L93.5204 49.991L93.7919 44.7512H99.6697L99.6833 44.7784Z" fill="black"/>
<path d="M116.448 31.801V30.7422H123.045V31.801H116.448ZM116.448 34.6381V33.5793H123.045V34.6381H116.448Z" fill="black"/>
<path d="M129.032 37.4074C127.973 35.0319 127.443 32.8599 127.443 30.9052C127.443 29.9278 127.579 28.869 127.837 27.7151C128.095 26.5748 128.366 25.6653 128.624 25.0138L129.018 24.0364H130.118C129.765 24.973 129.425 26.1269 129.127 27.5115C128.828 28.8961 128.665 30.0092 128.665 30.8916C128.665 31.7739 128.787 32.7377 129.032 33.8237C129.276 34.9097 129.52 35.7785 129.765 36.43L130.118 37.4074H129.018H129.032Z" fill="black"/>
<path d="M133.783 33.2128V32.1812H140.326V33.2128H133.783Z" fill="black"/>
<path d="M149.909 26.4526V36.525H148.728V27.7558L146.136 29.4662L145.606 28.5839L148.81 26.4526H149.909Z" fill="black"/>
<path d="M159.493 26.4527V27.5251H154.593L154.321 30.8102C155.109 30.3893 155.896 30.1857 156.683 30.1857C158.814 30.1857 159.887 31.1767 159.887 33.1586C159.887 34.2988 159.588 35.1676 159.004 35.7649C158.407 36.3622 157.579 36.6608 156.52 36.6608C155.665 36.6608 154.715 36.5522 153.683 36.3215L153.181 36.2129L153.317 35.2762C154.484 35.507 155.475 35.6156 156.276 35.6156C157.077 35.6156 157.674 35.412 158.081 34.9911C158.489 34.5839 158.692 34.0002 158.692 33.2536C158.692 32.507 158.502 31.9776 158.136 31.6789C157.769 31.3667 157.24 31.2174 156.561 31.2174C156.194 31.2174 155.814 31.2717 155.407 31.3667C155 31.4617 154.701 31.5703 154.484 31.6654L154.158 31.8147L153.344 31.6654L153.615 26.4255H159.493V26.4527Z" fill="black"/>
<path d="M165.167 33.2125V32.1809H168.058V29.208H169.131V32.1809H172.049V33.2125H169.131V36.2261H168.058V33.2125H165.167Z" fill="black"/>
<path d="M184.077 36.5249V34.5566H179.19V33.6335L182.068 26.439H183.344L180.425 33.5114H184.077V30.362H185.258V33.5114H186.547V34.5566H185.258V36.5249H184.077Z" fill="black"/>
<path d="M194.312 36.5248H187.864V35.5338L190.81 32.4388C191.326 31.9094 191.692 31.5022 191.923 31.2307C192.154 30.9592 192.371 30.6334 192.561 30.2533C192.751 29.8732 192.846 29.4931 192.846 29.1266C192.846 28.475 192.67 28.0135 192.317 27.7556C191.964 27.4976 191.407 27.3619 190.647 27.3619C189.982 27.3619 189.249 27.4433 188.434 27.6198L188.041 27.7013L187.946 26.7239C188.91 26.4524 189.914 26.3167 190.946 26.3167C191.977 26.3167 192.751 26.5338 193.281 26.9682C193.81 27.4026 194.068 28.0814 194.068 29.018C194.068 29.7375 193.905 30.3483 193.593 30.8777C193.281 31.4071 192.738 32.0452 191.964 32.7918L189.276 35.5203H194.326V36.5384L194.312 36.5248Z" fill="black"/>
<path d="M197.95 28.9231C198.059 29.629 198.113 30.3892 198.113 31.1901C198.113 31.991 197.977 32.9276 197.719 34.0136C197.448 35.0996 197.19 35.9412 196.932 36.5249L196.539 37.4208H195.439C195.778 36.6064 196.118 35.534 196.43 34.2036C196.742 32.8733 196.891 31.7738 196.891 30.905C196.891 30.0362 196.769 29.0317 196.539 27.8914C196.294 26.7512 196.063 25.8281 195.819 25.1222L195.453 24.0498H196.552C197.231 25.5702 197.692 27.1855 197.977 28.9231H197.95Z" fill="black"/>
<path d="M205.891 33.2125V32.1809H208.783V29.208H209.855V32.1809H212.773V33.2125H209.855V36.2261H208.783V33.2125H205.891Z" fill="black"/>
<path d="M221.665 37.4074C220.607 35.0319 220.077 32.8599 220.077 30.9052C220.077 29.9278 220.213 28.869 220.471 27.7151C220.729 26.5613 221 25.6653 221.258 25.0138L221.652 24.0364H222.751C222.398 24.973 222.059 26.1269 221.76 27.5115C221.462 28.8961 221.299 30.0092 221.299 30.8916C221.299 31.7739 221.421 32.7377 221.665 33.8237C221.91 34.9097 222.154 35.7785 222.398 36.43L222.751 37.4074H221.652H221.665Z" fill="black"/>
<path d="M226.416 33.2128V32.1812H232.959V33.2128H226.416Z" fill="black"/>
<path d="M242.543 26.4524V36.5248H241.362V27.7556L238.769 29.466L238.24 28.5836L241.443 26.4524H242.543Z" fill="black"/>
<path d="M246.466 26.9413C247.104 26.4933 247.986 26.2761 249.099 26.2761C250.212 26.2761 251.108 26.4933 251.76 26.9413C252.411 27.3892 252.751 28.0408 252.751 28.9096C252.751 29.5476 252.629 30.0227 252.371 30.3485C252.113 30.6743 251.678 30.9865 251.067 31.258C251.678 31.5295 252.14 31.8553 252.439 32.2218C252.751 32.5883 252.9 33.1178 252.9 33.7829C252.9 35.7105 251.638 36.6743 249.126 36.6743C246.615 36.6743 245.353 35.7648 245.353 33.9594C245.353 33.2399 245.488 32.6834 245.773 32.3168C246.058 31.9368 246.493 31.5838 247.09 31.258C246.534 30.9865 246.14 30.6743 245.896 30.3214C245.651 29.9684 245.515 29.4933 245.515 28.896C245.515 28.0408 245.828 27.3892 246.466 26.9549V26.9413ZM246.588 33.7558C246.588 34.9911 247.429 35.6019 249.113 35.6019C250.796 35.6019 251.638 34.9503 251.638 33.6607C251.638 33.1178 251.488 32.7241 251.19 32.4662C250.891 32.2082 250.443 31.9911 249.859 31.8146H248.258C247.701 31.9639 247.28 32.1947 247.009 32.4933C246.737 32.792 246.601 33.2128 246.601 33.7558H246.588ZM251.488 29.0454C251.488 27.9187 250.701 27.3485 249.126 27.3485C247.552 27.3485 246.764 27.9051 246.764 29.0318C246.764 29.4797 246.886 29.8463 247.131 30.1178C247.375 30.3892 247.755 30.62 248.258 30.8101H249.859C250.402 30.6336 250.823 30.4164 251.095 30.1313C251.366 29.8598 251.502 29.4933 251.502 29.0454H251.488Z" fill="black"/>
<path d="M256.864 35.6426C258.71 35.6426 259.633 34.4752 259.647 32.1268C258.629 32.5204 257.76 32.7105 257.027 32.7105C254.828 32.7105 253.729 31.6924 253.729 29.6426C253.729 28.6109 254.041 27.7964 254.679 27.1992C255.303 26.6019 256.158 26.3032 257.231 26.3032C258.466 26.3032 259.376 26.7648 259.986 27.6743C260.584 28.5838 260.882 29.9277 260.882 31.6924C260.882 33.4571 260.543 34.7331 259.864 35.5204C259.186 36.3077 258.195 36.7014 256.878 36.7014C256.118 36.7014 255.33 36.6335 254.516 36.4842L254.122 36.4299L254.231 35.4797C255.14 35.6019 256.036 35.6697 256.891 35.6697L256.864 35.6426ZM257.109 31.6652C257.733 31.6652 258.452 31.5295 259.267 31.258L259.661 31.1222C259.633 28.5973 258.819 27.3349 257.217 27.3349C256.511 27.3349 255.941 27.5385 255.548 27.9593C255.14 28.3666 254.95 28.9367 254.95 29.6426C254.95 31.0001 255.67 31.6788 257.122 31.6788L257.109 31.6652Z" fill="black"/>
<path d="M264.928 33.2125V32.1809H267.819V29.208H268.892V32.1809H271.81V33.2125H268.892V36.2261H267.819V33.2125H264.928Z" fill="black"/>
<path d="M285.303 26.4524V36.5248H284.122V27.7556L281.529 29.466L281 28.5836L284.204 26.4524H285.303Z" fill="black"/>
<path d="M289.226 26.9413C289.864 26.4933 290.746 26.2761 291.859 26.2761C292.973 26.2761 293.868 26.4933 294.52 26.9413C295.172 27.3892 295.511 28.0408 295.511 28.9096C295.511 29.5476 295.389 30.0227 295.131 30.3485C294.873 30.6743 294.439 30.9865 293.828 31.258C294.439 31.5295 294.9 31.8553 295.199 32.2218C295.511 32.5883 295.66 33.1178 295.66 33.7829C295.66 35.7105 294.398 36.6743 291.887 36.6743C289.375 36.6743 288.113 35.7648 288.113 33.9594C288.113 33.2399 288.249 32.6834 288.534 32.3168C288.819 31.9368 289.253 31.5838 289.85 31.258C289.294 30.9865 288.9 30.6743 288.656 30.3214C288.411 29.9684 288.276 29.4933 288.276 28.896C288.276 28.0408 288.588 27.3892 289.226 26.9549V26.9413ZM289.348 33.7558C289.348 34.9911 290.19 35.6019 291.873 35.6019C293.556 35.6019 294.398 34.9503 294.398 33.6607C294.398 33.1178 294.249 32.7241 293.95 32.4662C293.651 32.2082 293.203 31.9911 292.62 31.8146H291.018C290.461 31.9639 290.04 32.1947 289.769 32.4933C289.497 32.792 289.362 33.2128 289.362 33.7558H289.348ZM294.249 29.0454C294.249 27.9187 293.461 27.3485 291.887 27.3485C290.312 27.3485 289.525 27.9051 289.525 29.0318C289.525 29.4797 289.647 29.8463 289.891 30.1178C290.135 30.3892 290.516 30.62 291.018 30.8101H292.62C293.163 30.6336 293.583 30.4164 293.855 30.1313C294.126 29.8598 294.262 29.4933 294.262 29.0454H294.249Z" fill="black"/>
<path d="M300.113 26.2761C300.955 26.2761 301.62 26.439 302.149 26.7512C303.249 27.4028 303.792 29.0318 303.792 31.6381C303.792 33.4843 303.493 34.7874 302.882 35.534C302.271 36.2806 301.362 36.6743 300.14 36.6743C298.918 36.6743 297.995 36.2942 297.384 35.5476C296.774 34.801 296.461 33.4707 296.461 31.5431C296.461 29.6155 296.76 28.2716 297.371 27.4707C297.982 26.6698 298.891 26.2761 300.127 26.2761H300.113ZM300.14 27.3349C299.556 27.3349 299.095 27.4571 298.769 27.7015C298.05 28.2037 297.683 29.5205 297.683 31.6517C297.683 33.1585 297.887 34.2037 298.28 34.7739C298.674 35.344 299.299 35.6426 300.14 35.6426C300.982 35.6426 301.606 35.3576 302 34.7739C302.394 34.1902 302.597 33.1178 302.597 31.5431C302.597 29.9684 302.407 28.8825 302.027 28.258C301.647 27.6336 301.023 27.3349 300.14 27.3349Z" fill="black"/>
<path d="M306.887 28.9231C306.996 29.629 307.05 30.3892 307.05 31.1901C307.05 31.991 306.914 32.9276 306.657 34.0136C306.385 35.0996 306.127 35.9412 305.869 36.5249L305.476 37.4208H304.376C304.715 36.6064 305.055 35.534 305.367 34.2036C305.679 32.8733 305.828 31.7738 305.828 30.905C305.828 30.0362 305.706 29.0317 305.476 27.8914C305.231 26.7512 305 25.8281 304.756 25.1222L304.39 24.0498H305.489C306.168 25.5702 306.629 27.1855 306.914 28.9231H306.887Z" fill="black"/>
<path d="M313.796 33.2125V32.1809H316.688V29.208H317.76V32.1809H320.679V33.2125H317.76V36.2261H316.688V33.2125H313.796Z" fill="black"/>
<path d="M330.602 37.4074C329.543 35.0319 329.014 32.8599 329.014 30.9052C329.014 29.9278 329.149 28.869 329.407 27.7151C329.665 26.5613 329.937 25.6653 330.195 25.0138L330.588 24.0364H331.688C331.335 24.973 330.996 26.1269 330.697 27.5115C330.398 28.8961 330.235 30.0092 330.235 30.8916C330.235 31.7739 330.358 32.7377 330.602 33.8237C330.846 34.9097 331.091 35.7785 331.335 36.43L331.688 37.4074H330.588H330.602Z" fill="black"/>
<path d="M335.353 33.2128V32.1812H341.896V33.2128H335.353Z" fill="black"/>
<path d="M352.824 26.4527V27.5251H347.923L347.652 30.8102C348.439 30.3893 349.227 30.1857 350.014 30.1857C352.159 30.1857 353.218 31.1767 353.218 33.1586C353.218 34.2988 352.919 35.1676 352.335 35.7649C351.752 36.3622 350.91 36.6608 349.851 36.6608C348.996 36.6608 348.046 36.5522 347.014 36.3215L346.512 36.2129L346.647 35.2762C347.815 35.507 348.806 35.6156 349.607 35.6156C350.408 35.6156 351.005 35.412 351.412 34.9911C351.819 34.5839 352.023 34.0002 352.023 33.2536C352.023 32.507 351.833 31.9776 351.466 31.6789C351.1 31.3803 350.571 31.2174 349.892 31.2174C349.525 31.2174 349.145 31.2717 348.738 31.3667C348.331 31.4617 348.032 31.5703 347.815 31.6654L347.489 31.8147L346.675 31.6654L346.946 26.4255H352.824V26.4527Z" fill="black"/>
<path d="M361.145 27.5112C360.222 27.389 359.34 27.3347 358.471 27.3347C357.602 27.3347 356.937 27.6334 356.475 28.2307C356 28.828 355.77 29.6967 355.77 30.8099L356.15 30.6605C356.408 30.5655 356.747 30.4705 357.168 30.3755C357.589 30.2805 357.969 30.2262 358.294 30.2262C360.561 30.2262 361.688 31.2714 361.688 33.3619C361.688 34.4343 361.376 35.2488 360.765 35.8325C360.154 36.4026 359.285 36.7013 358.159 36.7013C355.756 36.7013 354.548 34.9501 354.548 31.4614C354.548 29.6967 354.887 28.4071 355.58 27.5655C356.272 26.7375 357.236 26.3167 358.485 26.3167C359.313 26.3167 360.1 26.3709 360.833 26.5067L361.24 26.5881L361.132 27.5519L361.145 27.5112ZM358.213 31.2714C357.874 31.2714 357.494 31.3257 357.073 31.4207C356.652 31.5157 356.34 31.6108 356.109 31.7058L355.756 31.8551C355.756 33.009 355.96 33.932 356.34 34.6243C356.72 35.3166 357.304 35.6424 358.091 35.6424C358.878 35.6424 359.462 35.4524 359.856 35.0587C360.249 34.6651 360.453 34.1085 360.453 33.389C360.453 32.6696 360.263 32.1402 359.869 31.7872C359.475 31.4479 358.919 31.2714 358.213 31.2714Z" fill="black"/>
<path d="M365.72 33.2125V32.1809H368.611V29.208H369.684V32.1809H372.602V33.2125H369.684V36.2261H368.611V33.2125H365.72Z" fill="black"/>
<path d="M386.624 36.5248H380.176V35.5338L383.122 32.4388C383.638 31.9094 384.004 31.5022 384.235 31.2307C384.466 30.9592 384.683 30.6334 384.873 30.2533C385.063 29.8732 385.158 29.4931 385.158 29.1266C385.158 28.475 384.982 28.0135 384.629 27.7556C384.276 27.4976 383.719 27.3619 382.959 27.3619C382.294 27.3619 381.561 27.4433 380.746 27.6198L380.353 27.7013L380.258 26.7239C381.222 26.4524 382.226 26.3167 383.258 26.3167C384.289 26.3167 385.063 26.5338 385.593 26.9682C386.122 27.4026 386.38 28.0814 386.38 29.018C386.38 29.7375 386.217 30.3483 385.905 30.8777C385.593 31.4071 385.05 32.0452 384.276 32.7918L381.588 35.5203H386.638V36.5384L386.624 36.5248Z" fill="black"/>
<path d="M393.316 26.4526V36.525H392.135V27.7558L389.543 29.4662L389.013 28.5839L392.217 26.4526H393.316Z" fill="black"/>
<path d="M398.516 28.9231C398.625 29.629 398.679 30.3892 398.679 31.1901C398.679 31.991 398.543 32.9276 398.285 34.0136C398.014 35.0996 397.756 35.9412 397.498 36.5249L397.104 37.4208H396.005C396.344 36.6064 396.684 35.534 396.996 34.2036C397.308 32.8733 397.457 31.7738 397.457 30.905C397.457 30.0362 397.335 29.0317 397.104 27.8914C396.86 26.7512 396.629 25.8281 396.385 25.1222L396.018 24.0498H397.118C397.797 25.5702 398.258 27.1855 398.543 28.9231H398.516Z" fill="black"/>
<path d="M407.598 31.801V30.7422H414.195V31.801H407.598ZM407.598 34.6381V33.5793H414.195V34.6381H407.598Z" fill="black"/>
<path d="M422.896 33.2128V32.1812H429.439V33.2128H422.896Z" fill="black"/>
<path d="M439.023 26.4529V36.5253H437.842V27.756L435.249 29.4665L434.72 28.5841L437.923 26.4529H439.023Z" fill="black"/>
<path d="M442.512 27.5114V26.439H448.77V27.9865L444.887 36.6743L443.774 36.3213L447.575 27.905V27.5114H442.498H442.512Z" fill="black"/>
</svg>
