<svg width="486" height="67" viewBox="0 0 486 67" fill="none" xmlns="http://www.w3.org/2000/svg">
<path d="M1 0.219727V66.9997" stroke="black" stroke-width="1.01757" stroke-miterlimit="10"/>
<path d="M107.4 0.219727V66.9997" stroke="black" stroke-width="1.01757" stroke-miterlimit="10"/>
<path d="M23.8125 11.5336L21.7868 13.2803L21.3612 12.7959L22.6529 11.6804H17.7356V10.9171H22.6529L21.3612 9.80153L21.7868 9.31714L23.8125 11.0639V11.5336ZM18.5869 16.8765C18.6457 16.5976 18.7044 16.3481 18.7337 16.1573C18.7631 15.9665 18.7778 15.805 18.7778 15.6582C18.7778 15.5408 18.7778 15.438 18.7337 15.35C18.7044 15.2766 18.6603 15.2032 18.5869 15.1591C18.5136 15.1151 18.4255 15.0858 18.3227 15.0564C18.2053 15.0417 18.0732 15.027 17.9117 15.0124L17.9998 14.5867L19.9667 14.5133H20.4364L19.2768 19.6948C19.2181 19.959 19.1741 20.1792 19.1447 20.3847C19.1154 20.5902 19.1007 20.7516 19.1007 20.8984C19.1007 21.1186 19.13 21.2654 19.2034 21.3681C19.2768 21.4709 19.3796 21.5149 19.541 21.5149C19.7172 21.5149 19.908 21.4415 20.0988 21.28C20.2896 21.1186 20.5392 20.8837 20.8181 20.5608L21.2731 21.0158C21.0236 21.28 20.7887 21.5002 20.5979 21.691C20.3924 21.8672 20.2016 22.0286 20.0254 22.1314C19.8493 22.2488 19.6585 22.3222 19.4823 22.3662C19.3062 22.4103 19.1007 22.4396 18.8952 22.4396C18.7044 22.4396 18.5429 22.4103 18.3961 22.3369C18.2493 22.2635 18.1319 22.1607 18.0438 22.0433C17.9411 21.9259 17.8677 21.7791 17.8237 21.6176C17.7796 21.4562 17.7503 21.28 17.7503 21.0892C17.7503 20.8984 17.765 20.6635 17.809 20.414C17.853 20.1498 17.8971 19.8562 17.9851 19.5333L18.5869 16.8912V16.8765ZM57.0003 22.4396C56.8829 22.9974 56.7361 23.4965 56.5453 23.9222C56.3692 24.3478 56.1343 24.7148 55.8407 25.0084C55.5619 25.3019 55.2243 25.5221 54.8279 25.6689C54.4316 25.8157 53.9766 25.9037 53.4482 25.9037C53.2867 25.9037 53.1546 25.9037 53.0518 25.8891C52.9491 25.8891 52.8463 25.8597 52.7583 25.8303L52.9491 25.1258C53.0372 25.1551 53.1252 25.1698 53.2427 25.1845C53.3601 25.1992 53.4628 25.1845 53.5656 25.1845C53.7858 25.1845 53.9913 25.1551 54.1821 25.0817C54.3729 25.0084 54.549 24.8909 54.7105 24.7001C54.872 24.5093 55.0188 24.2598 55.1509 23.9368C55.283 23.6139 55.4151 23.1882 55.5178 22.6745L56.8242 16.8618C56.8829 16.583 56.9416 16.3334 56.971 16.1426C57.0003 15.9518 57.015 15.7903 57.015 15.6435C57.015 15.5261 57.015 15.4234 56.971 15.3353C56.9416 15.2619 56.8976 15.1885 56.8242 15.1445C56.7508 15.1004 56.6627 15.0711 56.56 15.0417C56.4426 15.027 56.3105 15.0124 56.149 14.9977L56.2371 14.572L58.204 14.4986H58.659L56.9857 22.4103L57.0003 22.4396ZM61.2424 11.5336L59.2168 13.2803L58.7911 12.7959L60.0828 11.6804H55.1655V10.9171H60.0828L58.7911 9.80153L59.2168 9.31714L61.2424 11.0639V11.5336ZM93.5496 18.9902C93.4909 18.7847 93.4468 18.6379 93.3881 18.5499C93.3294 18.4765 93.2707 18.4178 93.1973 18.3884C93.1239 18.359 93.0065 18.3444 92.8303 18.3444H92.2726L91.4359 22.2929H90.0414L92.1111 13.0748C92.1845 12.7666 92.2285 12.517 92.2579 12.3409C92.2872 12.1648 92.3019 12.018 92.3019 11.8712C92.3019 11.651 92.2285 11.4895 92.0964 11.4015C91.9643 11.3134 91.7148 11.2547 91.3625 11.2547L91.4652 10.829L93.5055 10.7556H93.9753L92.39 17.8013H92.6542C93.0505 17.8013 93.5055 17.6251 94.0193 17.2728C94.5184 16.9206 94.9294 16.5976 95.2229 16.2894C95.5165 15.9811 95.6779 15.7022 95.6779 15.4234C95.6779 15.1591 95.5018 15.0124 95.1348 14.983L95.2229 14.5867H97.8357L97.9825 14.983C97.5421 15.3793 97.0577 15.7756 96.5587 16.172L94.5624 17.7132L95.355 20.6195C95.4137 20.869 95.4725 21.0452 95.5312 21.1626C95.5752 21.28 95.6486 21.3534 95.7073 21.4121C95.7807 21.4709 95.8688 21.4855 95.9715 21.4855C96.1183 21.4855 96.2798 21.4121 96.4706 21.2654C96.6614 21.1186 96.8816 20.8984 97.1311 20.6195L97.5861 21.0745C97.1018 21.5883 96.7054 21.9406 96.3825 22.1461C96.0596 22.3516 95.766 22.4396 95.4578 22.4396C95.0908 22.4396 94.7972 22.3369 94.5917 22.1314C94.3716 21.9259 94.2101 21.5736 94.078 21.0892L93.5496 18.9902Z" fill="black"/>
<path d="M98.6723 8.2162L96.6467 9.96293L96.221 9.47854L97.5127 8.36298H92.5955V7.5997H97.5127L96.221 6.48414L96.6467 5.99976L98.6723 7.74649V8.2162Z" fill="black"/>
<path d="M20.3628 41.0222V38.8939H15.0786V37.9104L18.1758 30.1309H19.5702L16.4143 37.7783H20.3628V34.3729H21.6399V37.7783H23.0343V38.8939H21.6399V41.0222H20.3628Z" fill="black"/>
<path d="M47.4299 37.4261V36.3105H54.5049V37.4261H47.4299Z" fill="black"/>
<path d="M64.8679 30.1162V41.0076H63.5909V31.5254L60.7873 33.3748L60.2148 32.4208L63.6789 30.1016H64.8679V30.1162Z" fill="black"/>
<path d="M90.6431 31.2758V30.1162H97.4098V31.7895L93.2118 41.1837L92.0082 40.8021L96.1181 31.7015V31.2758H90.6284H90.6431Z" fill="black"/>
<path d="M10 57.242V56.1265H17.0603V57.242H10Z" fill="black"/>
<path d="M22.1978 50.2112C23.2253 49.9029 24.3408 49.7415 25.5298 49.7415C26.7187 49.7415 27.5701 49.9616 28.0985 50.4167C28.6269 50.8717 28.8911 51.5909 28.8911 52.5744C28.8911 53.0735 28.8177 53.4404 28.6856 53.6753C28.5535 53.8954 28.4361 54.0716 28.3627 54.189C28.2746 54.3064 28.1719 54.4239 28.0398 54.5413C27.7903 54.7321 27.5994 54.8642 27.4673 54.9376L27.2912 55.055C27.937 55.2899 28.4067 55.5835 28.715 55.9357C29.0232 56.288 29.1847 56.8752 29.1847 57.6972C29.1847 58.8127 28.9058 59.6347 28.3334 60.1778C27.7609 60.7209 26.8655 60.9851 25.6472 60.9851C24.6784 60.9851 23.6509 60.8677 22.5794 60.6622L22.0657 60.5448L22.1831 59.5026C23.3721 59.7521 24.4876 59.8696 25.5151 59.8696C27.0857 59.8696 27.8783 59.1503 27.8783 57.7559C27.8783 56.4495 27.1297 55.7596 25.6325 55.7156H23.4308V54.6294H25.6325C26.0876 54.6294 26.5426 54.4532 26.9683 54.0716C27.3939 53.7046 27.6141 53.2202 27.6141 52.6037C27.6141 51.9873 27.438 51.5616 27.1004 51.2974C26.7628 51.0332 26.1903 50.8864 25.383 50.8864C24.5023 50.8864 23.6363 50.9744 22.7702 51.1359L22.3446 51.224L22.2271 50.2112H22.1978Z" fill="black"/>
<path d="M60.0531 60.8385H53.0808V59.7669L56.266 56.4203C56.8238 55.8478 57.2201 55.4074 57.4697 55.1139C57.7192 54.8203 57.954 54.468 58.1595 54.057C58.365 53.646 58.4678 53.2497 58.4678 52.8387C58.4678 52.1342 58.277 51.6351 57.8953 51.3562C57.5137 51.0626 56.9119 50.9305 56.0899 50.9305C55.3706 50.9305 54.578 51.0186 53.6973 51.2094L53.2716 51.2975L53.1689 50.2406C54.211 49.9471 55.2973 49.8003 56.4128 49.8003C57.5284 49.8003 58.365 50.0351 58.9228 50.5049C59.4953 50.9746 59.7742 51.7085 59.7742 52.7213C59.7742 53.4846 59.598 54.1598 59.2604 54.7322C58.9228 55.3047 58.3357 55.9946 57.499 56.8019L54.5927 59.7523H60.0531V60.8531V60.8385Z" fill="black"/>
<path d="M79.3555 57.242V56.1265H86.4305V57.242H79.3555Z" fill="black"/>
<path d="M98.2466 49.9322V51.0918H92.9477L92.6541 54.644C93.5055 54.1889 94.3568 53.9688 95.2082 53.9688C97.5127 53.9688 98.6723 55.0403 98.6723 57.1833C98.6723 58.4163 98.3493 59.3557 97.7182 60.0016C97.0723 60.6474 96.1769 60.9704 95.032 60.9704C94.1073 60.9704 93.0798 60.8529 91.9642 60.6034L91.4211 60.486L91.5679 59.4732C92.8303 59.7227 93.9018 59.8401 94.7678 59.8401C95.6338 59.8401 96.2797 59.6199 96.72 59.1649C97.1604 58.7099 97.3806 58.0934 97.3806 57.2861C97.3806 56.4788 97.1751 55.9063 96.7788 55.5834C96.3824 55.2458 95.81 55.0843 95.0761 55.0843C94.6797 55.0843 94.2688 55.143 93.8284 55.2458C93.388 55.3485 93.0651 55.466 92.8303 55.5687L92.478 55.7302L91.5973 55.5687L91.8909 49.9028H98.2466V49.9322Z" fill="black"/>
<path d="M114.54 32.612V31.467H121.673V32.612H114.54ZM114.54 35.6651V34.5201H121.673V35.6651H114.54Z" fill="black"/>
<path d="M128.147 38.6738C127.002 36.1051 126.429 33.7565 126.429 31.6428C126.429 30.586 126.576 29.4411 126.855 28.2081C127.134 26.9751 127.427 25.9916 127.706 25.2871L128.132 24.2302H129.321C128.939 25.243 128.572 26.4907 128.249 27.9879C127.926 29.4851 127.75 30.6887 127.75 31.6428C127.75 32.5969 127.882 33.6391 128.147 34.8134C128.411 35.9876 128.675 36.927 128.939 37.6316L129.321 38.6885H128.132L128.147 38.6738Z" fill="black"/>
<path d="M140.08 26.8135V27.9731H134.781L134.488 31.5253C135.339 31.0703 136.19 30.8501 137.042 30.8501C139.346 30.8501 140.506 31.9216 140.506 34.0647C140.506 35.2977 140.183 36.2371 139.552 36.8829C138.906 37.5288 138.01 37.8517 136.866 37.8517C135.941 37.8517 134.913 37.7343 133.798 37.4847L133.255 37.3673L133.401 36.3545C134.664 36.604 135.735 36.7215 136.601 36.7215C137.467 36.7215 138.113 36.5013 138.554 36.0463C138.994 35.5912 139.214 34.9747 139.214 34.1674C139.214 33.3601 139.009 32.7877 138.612 32.4647C138.216 32.1271 137.643 31.9657 136.91 31.9657C136.513 31.9657 136.102 32.0244 135.662 32.1271C135.222 32.2299 134.899 32.3473 134.664 32.45L134.311 32.6115L133.431 32.45L133.724 26.7842H140.08V26.8135Z" fill="black"/>
<path d="M146.495 34.1234V33.0078H153.555V34.1234H146.495Z" fill="black"/>
<path d="M167.235 26.8135V37.7049H165.958V28.2226L163.154 30.0721L162.582 29.118L166.046 26.7988H167.235V26.8135Z" fill="black"/>
<path d="M175.675 37.7198V35.5914H170.391V34.6079L173.488 26.8284H174.883L171.727 34.4758H175.675V31.0704H176.952V34.4758H178.347V35.5914H176.952V37.7198H175.675Z" fill="black"/>
<path d="M181.767 29.4851C181.884 30.2631 181.943 31.0704 181.943 31.9364C181.943 32.8024 181.796 33.8153 181.517 34.9895C181.238 36.1638 180.945 37.0739 180.666 37.705L180.24 38.6738H179.051C179.418 37.7931 179.785 36.6335 180.123 35.195C180.46 33.7565 180.622 32.5676 180.622 31.6282C180.622 30.6888 180.49 29.6026 180.24 28.3696C179.976 27.1366 179.726 26.1384 179.462 25.3752L179.066 24.2156H180.255C180.989 25.8596 181.488 27.6063 181.796 29.4851H181.767Z" fill="black"/>
<path d="M193.333 26.9313L191.308 28.678L190.882 28.1936L192.174 27.0781H187.256V26.3148H192.174L190.882 25.1992L191.308 24.7148L193.333 26.4616V26.9313ZM188.108 32.2742C188.166 31.9953 188.225 31.7458 188.254 31.555C188.284 31.3642 188.299 31.2027 188.299 31.0559C188.299 30.9385 188.299 30.8357 188.254 30.7477C188.225 30.6743 188.181 30.6009 188.108 30.5568C188.034 30.5128 187.946 30.4835 187.843 30.4541C187.726 30.4394 187.594 30.4247 187.432 30.4101L187.521 29.9844L189.487 29.911H189.957L188.798 35.0925C188.739 35.3567 188.695 35.5769 188.665 35.7824C188.636 35.9879 188.621 36.1493 188.621 36.2961C188.621 36.5163 188.651 36.6631 188.724 36.7658C188.798 36.8686 188.9 36.9126 189.062 36.9126C189.238 36.9126 189.429 36.8392 189.62 36.6777C189.81 36.5163 190.06 36.2814 190.339 35.9585L190.794 36.4135C190.544 36.6777 190.309 36.8979 190.119 37.0887C189.913 37.2649 189.722 37.4263 189.546 37.5291C189.37 37.6465 189.179 37.7199 189.003 37.7639C188.827 37.808 188.621 37.8373 188.416 37.8373C188.225 37.8373 188.064 37.808 187.917 37.7346C187.77 37.6612 187.653 37.5585 187.565 37.441C187.462 37.3236 187.388 37.1768 187.344 37.0153C187.3 36.8539 187.271 36.6777 187.271 36.4869C187.271 36.2961 187.286 36.0613 187.33 35.8117C187.374 35.5475 187.418 35.2539 187.506 34.931L188.108 32.2889V32.2742Z" fill="black"/>
<path d="M194.771 34.1236V33.008H197.898V29.7935H199.058V33.008H202.213V34.1236H199.058V37.3822H197.898V34.1236H194.771Z" fill="black"/>
<path d="M212.929 38.6738C211.784 36.1051 211.212 33.7565 211.212 31.6428C211.212 30.586 211.359 29.4411 211.638 28.2081C211.916 26.9751 212.21 25.9916 212.489 25.2871L212.915 24.2302H214.104C213.722 25.243 213.355 26.4907 213.032 27.9879C212.709 29.4851 212.533 30.6887 212.533 31.6428C212.533 32.5969 212.665 33.6391 212.929 34.8134C213.193 35.9876 213.458 36.927 213.722 37.6316L214.104 38.6885H212.915L212.929 38.6738Z" fill="black"/>
<path d="M218.066 34.1234V33.0078H225.141V34.1234H218.066Z" fill="black"/>
<path d="M237.192 37.72H230.22V36.6485L233.405 33.3018C233.963 32.7294 234.359 32.289 234.609 31.9955C234.858 31.7019 235.093 31.3496 235.298 30.9386C235.504 30.5276 235.607 30.1313 235.607 29.7203C235.607 29.0158 235.416 28.5167 235.034 28.2378C234.653 27.9589 234.051 27.8121 233.229 27.8121C232.51 27.8121 231.717 27.9002 230.836 28.091L230.411 28.1791L230.308 27.1222C231.35 26.8287 232.436 26.6819 233.552 26.6819C234.667 26.6819 235.504 26.9167 236.076 27.3864C236.649 27.8562 236.928 28.5901 236.928 29.6029C236.928 30.3662 236.752 31.0414 236.414 31.6138C236.076 32.1863 235.489 32.8762 234.653 33.6835L231.746 36.6338H237.207V37.7347L237.192 37.72Z" fill="black"/>
<path d="M244.414 26.814V37.7054H243.137V28.2231L240.333 30.0726L239.761 29.1185L243.225 26.7993H244.414V26.814Z" fill="black"/>
<path d="M250.917 34.1236V33.008H254.043V29.7935H255.203V33.008H258.358V34.1236H255.203V37.3822H254.043V34.1236H250.917Z" fill="black"/>
<path d="M273.521 37.72H266.549V36.6485L269.734 33.3018C270.292 32.7294 270.688 32.289 270.938 31.9955C271.187 31.7019 271.422 31.3496 271.628 30.9386C271.833 30.5276 271.936 30.1313 271.936 29.7203C271.936 29.0158 271.745 28.5167 271.363 28.2378C270.982 27.9589 270.38 27.8121 269.558 27.8121C268.839 27.8121 268.046 27.9002 267.165 28.091L266.74 28.1791L266.637 27.1222C267.679 26.8287 268.765 26.6819 269.881 26.6819C270.996 26.6819 271.833 26.9167 272.406 27.3864C272.978 27.8562 273.257 28.5901 273.257 29.6029C273.257 30.3662 273.081 31.0414 272.743 31.6138C272.406 32.1863 271.818 32.8762 270.982 33.6835L268.075 36.6338H273.536V37.7347L273.521 37.72Z" fill="black"/>
<path d="M278.937 26.6377C279.847 26.6377 280.567 26.8138 281.139 27.1514C282.328 27.856 282.915 29.6174 282.915 32.4357C282.915 34.4319 282.592 35.8411 281.932 36.6484C281.271 37.4557 280.288 37.8814 278.967 37.8814C277.646 37.8814 276.647 37.4704 275.987 36.663C275.326 35.8557 274.989 34.4173 274.989 32.3329C274.989 30.2486 275.312 28.7807 275.972 27.9294C276.633 27.0634 277.616 26.6377 278.952 26.6377H278.937ZM278.952 27.7679C278.321 27.7679 277.822 27.9 277.469 28.1642C276.691 28.7074 276.295 30.1312 276.295 32.4357C276.295 34.065 276.515 35.1952 276.941 35.8117C277.367 36.4282 278.042 36.7511 278.952 36.7511C279.862 36.7511 280.537 36.4429 280.963 35.8117C281.389 35.1805 281.609 34.0209 281.609 32.3182C281.609 30.6155 281.403 29.4413 280.992 28.7661C280.581 28.0909 279.906 27.7679 278.952 27.7679Z" fill="black"/>
<path d="M286.365 29.4851C286.483 30.2631 286.542 31.0704 286.542 31.9364C286.542 32.8024 286.395 33.8153 286.116 34.9895C285.837 36.1638 285.543 37.0739 285.265 37.705L284.839 38.6738H283.65C284.017 37.7931 284.384 36.6335 284.721 35.195C285.059 33.7565 285.221 32.5676 285.221 31.6282C285.221 30.6888 285.088 29.6026 284.839 28.3696C284.575 27.1366 284.325 26.1384 284.061 25.3752L283.665 24.2156H284.854C285.587 25.8596 286.087 27.6063 286.395 29.4851H286.365Z" fill="black"/>
<path d="M293.689 37.852C293.572 38.4098 293.425 38.9089 293.234 39.3345C293.058 39.7602 292.823 40.1272 292.53 40.4207C292.251 40.7143 291.913 40.9345 291.517 41.0813C291.121 41.2281 290.666 41.3161 290.137 41.3161C289.976 41.3161 289.844 41.3161 289.741 41.3014C289.638 41.3014 289.535 41.2721 289.447 41.2427L289.638 40.5382C289.726 40.5675 289.814 40.5822 289.932 40.5969C290.049 40.6116 290.152 40.5969 290.255 40.5969C290.475 40.5969 290.68 40.5675 290.871 40.4941C291.062 40.4207 291.238 40.3033 291.399 40.1125C291.561 39.9217 291.708 39.6721 291.84 39.3492C291.972 39.0263 292.104 38.6006 292.207 38.0869L293.513 32.2742C293.572 31.9953 293.631 31.7458 293.66 31.555C293.689 31.3642 293.704 31.2027 293.704 31.0559C293.704 30.9385 293.704 30.8357 293.66 30.7477C293.631 30.6743 293.587 30.6009 293.513 30.5568C293.44 30.5128 293.352 30.4835 293.249 30.4541C293.132 30.4394 292.999 30.4247 292.838 30.4101L292.926 29.9844L294.893 29.911H295.348L293.675 37.8227L293.689 37.852ZM297.931 26.9313L295.906 28.678L295.48 28.1936L296.772 27.0781H291.855V26.3148H296.772L295.48 25.1992L295.906 24.7148L297.931 26.4616V26.9313Z" fill="black"/>
<path d="M300.471 34.1236V33.008H303.598V29.7935H304.757V33.008H307.913V34.1236H304.757V37.3822H303.598V34.1236H300.471Z" fill="black"/>
<path d="M318.628 38.6738C317.483 36.1051 316.911 33.7565 316.911 31.6428C316.911 30.586 317.057 29.4411 317.336 28.2081C317.615 26.9751 317.909 25.9916 318.188 25.2871L318.613 24.2302H319.802C319.421 25.243 319.054 26.4907 318.731 27.9879C318.408 29.4851 318.232 30.6887 318.232 31.6428C318.232 32.5969 318.364 33.6391 318.628 34.8134C318.892 35.9876 319.156 36.927 319.421 37.6316L319.802 38.6885H318.613L318.628 38.6738Z" fill="black"/>
<path d="M324.426 27.3569C325.116 26.8725 326.07 26.6377 327.274 26.6377C328.478 26.6377 329.446 26.8725 330.151 27.3569C330.855 27.8413 331.222 28.5459 331.222 29.4853C331.222 30.1605 331.09 30.6889 330.811 31.0412C330.533 31.3935 330.063 31.7311 329.402 32.0247C330.063 32.3182 330.562 32.6705 330.885 33.0668C331.222 33.4632 331.384 34.0356 331.384 34.7549C331.384 36.8392 330.019 37.8814 327.303 37.8814C324.588 37.8814 323.223 36.8979 323.223 34.9457C323.223 34.1677 323.369 33.5659 323.678 33.1549C323.986 32.7439 324.456 32.3623 325.101 32.01C324.5 31.7164 324.074 31.3788 323.81 30.9972C323.546 30.6155 323.399 30.1018 323.399 29.4559C323.399 28.5312 323.736 27.8266 324.426 27.3569ZM324.558 34.7255C324.558 36.0612 325.468 36.7218 327.289 36.7218C329.109 36.7218 330.019 36.0172 330.019 34.6227C330.019 34.0356 329.857 33.6099 329.534 33.3311C329.211 33.0522 328.727 32.8173 328.096 32.6265H326.364C325.762 32.7879 325.307 33.0375 325.013 33.3604C324.72 33.6833 324.573 34.1384 324.573 34.7255H324.558ZM329.857 29.6174C329.857 28.3991 329.006 27.7826 327.303 27.7826C325.601 27.7826 324.749 28.3844 324.749 29.6027C324.749 30.0871 324.881 30.4834 325.146 30.777C325.41 31.0706 325.821 31.3201 326.364 31.5256H328.096C328.683 31.3348 329.138 31.0999 329.432 30.7917C329.725 30.4981 329.872 30.1018 329.872 29.6174H329.857Z" fill="black"/>
<path d="M335.875 34.1234V33.0078H342.95V34.1234H335.875Z" fill="black"/>
<path d="M351.376 27.0928C352.418 26.7845 353.519 26.623 354.708 26.623C355.897 26.623 356.749 26.8432 357.277 27.2983C357.805 27.7533 358.07 28.4725 358.07 29.456C358.07 29.955 357.996 30.322 357.864 30.5569C357.732 30.777 357.615 30.9532 357.541 31.0706C357.453 31.188 357.35 31.3055 357.218 31.4229C356.969 31.6137 356.778 31.7458 356.646 31.8192L356.47 31.9366C357.101 32.1715 357.585 32.4651 357.893 32.8173C358.202 33.1696 358.349 33.7568 358.349 34.5787C358.349 35.6943 358.07 36.5163 357.497 37.0594C356.925 37.6025 356.029 37.8667 354.811 37.8667C353.842 37.8667 352.815 37.7493 351.743 37.5438L351.229 37.4264L351.347 36.3842C352.536 36.6337 353.651 36.7512 354.679 36.7512C356.25 36.7512 357.042 36.0319 357.042 34.6375C357.042 33.3311 356.294 32.6412 354.796 32.5972H352.595V31.511H354.796C355.251 31.511 355.706 31.3348 356.132 30.9532C356.558 30.5862 356.778 30.1018 356.778 29.4853C356.778 28.8688 356.602 28.4432 356.264 28.179C355.927 27.9147 355.354 27.768 354.547 27.768C353.666 27.768 352.8 27.856 351.934 28.0175L351.508 28.1056L351.391 27.0928H351.376Z" fill="black"/>
<path d="M362.326 29.4851C362.443 30.2631 362.502 31.0704 362.502 31.9364C362.502 32.8024 362.355 33.8153 362.076 34.9895C361.797 36.1638 361.504 37.0739 361.225 37.705L360.799 38.6738H359.61C359.977 37.7931 360.344 36.6335 360.682 35.195C361.019 33.7565 361.181 32.5676 361.181 31.6282C361.181 30.6888 361.049 29.6026 360.799 28.3696C360.535 27.1366 360.286 26.1384 360.021 25.3752L359.625 24.2156H360.814C361.548 25.8596 362.047 27.6063 362.355 29.4851H362.326Z" fill="black"/>
<path d="M370.957 34.4026C370.898 34.1971 370.854 34.0503 370.795 33.9622C370.737 33.8888 370.678 33.8301 370.605 33.8007C370.531 33.7714 370.414 33.7567 370.238 33.7567H369.68L368.843 37.7052H367.449L369.518 28.4872C369.592 28.1789 369.636 27.9294 369.665 27.7532C369.695 27.5771 369.709 27.4303 369.709 27.2835C369.709 27.0634 369.636 26.9019 369.504 26.8138C369.372 26.7257 369.122 26.667 368.77 26.667L368.873 26.2414L370.913 26.168H371.383L369.797 33.2136H370.061C370.458 33.2136 370.913 33.0375 371.427 32.6852C371.926 32.3329 372.337 32.01 372.63 31.7017C372.924 31.3935 373.085 31.1146 373.085 30.8357C373.085 30.5715 372.909 30.4247 372.542 30.3954L372.63 29.999H375.243L375.39 30.3954C374.949 30.7917 374.465 31.188 373.966 31.5843L371.97 33.1255L372.762 36.0319C372.821 36.2814 372.88 36.4575 372.938 36.575C372.982 36.6924 373.056 36.7658 373.115 36.8245C373.188 36.8832 373.276 36.8979 373.379 36.8979C373.526 36.8979 373.687 36.8245 373.878 36.6777C374.069 36.5309 374.289 36.3107 374.538 36.0319L374.993 36.4869C374.509 37.0006 374.113 37.3529 373.79 37.5584C373.467 37.7639 373.173 37.852 372.865 37.852C372.498 37.852 372.205 37.7492 371.999 37.5437C371.779 37.3382 371.617 36.986 371.485 36.5016L370.957 34.4026Z" fill="black"/>
<path d="M376.094 23.6285L374.069 25.3753L373.643 24.8909L374.935 23.7753H370.018V23.0121H374.935L373.643 21.8965L374.069 21.4121L376.094 23.1588V23.6285Z" fill="black"/>
<path d="M380.967 32.612V31.467H388.101V32.612H380.967ZM380.967 35.6651V34.5201H388.101V35.6651H380.967Z" fill="black"/>
<path d="M397.524 34.1234V33.0078H404.599V34.1234H397.524Z" fill="black"/>
<path d="M412.614 36.7511C414.61 36.7511 415.608 35.4887 415.623 32.9494C414.522 33.3751 413.583 33.5806 412.79 33.5806C410.412 33.5806 409.223 32.4797 409.223 30.2632C409.223 29.1477 409.561 28.267 410.251 27.6211C410.926 26.9753 411.851 26.6523 413.01 26.6523C414.346 26.6523 415.329 27.1367 415.99 28.1349C416.636 29.1183 416.959 30.5715 416.959 32.4797C416.959 34.3879 416.592 35.7676 415.858 36.619C415.124 37.4703 414.052 37.896 412.629 37.896C411.807 37.896 410.955 37.8226 410.074 37.6612L409.649 37.6024L409.766 36.5749C410.75 36.7071 411.718 36.7658 412.643 36.7658L412.614 36.7511ZM412.878 32.465C413.553 32.465 414.331 32.3182 415.212 32.0246L415.638 31.8779C415.608 29.1477 414.728 27.7826 412.995 27.7826C412.232 27.7826 411.616 28.0028 411.19 28.4578C410.75 28.8981 410.544 29.5146 410.544 30.2779C410.544 31.7458 411.322 32.4797 412.893 32.4797L412.878 32.465Z" fill="black"/>
<path d="M424.518 26.9313L422.492 28.678L422.066 28.1936L423.358 27.0781H418.441V26.3148H423.358L422.066 25.1992L422.492 24.7148L424.518 26.4616V26.9313ZM419.292 32.2742C419.351 31.9953 419.41 31.7458 419.439 31.555C419.468 31.3642 419.483 31.2027 419.483 31.0559C419.483 30.9385 419.483 30.8357 419.439 30.7477C419.41 30.6743 419.366 30.6009 419.292 30.5568C419.219 30.5128 419.131 30.4835 419.028 30.4541C418.911 30.4394 418.779 30.4247 418.617 30.4101L418.705 29.9844L420.672 29.911H421.142L419.982 35.0925C419.923 35.3567 419.879 35.5769 419.85 35.7824C419.821 35.9879 419.806 36.1493 419.806 36.2961C419.806 36.5163 419.835 36.6631 419.909 36.7658C419.982 36.8686 420.085 36.9126 420.246 36.9126C420.422 36.9126 420.613 36.8392 420.804 36.6777C420.995 36.5163 421.244 36.2814 421.523 35.9585L421.978 36.4135C421.729 36.6777 421.494 36.8979 421.303 37.0887C421.098 37.2649 420.907 37.4263 420.731 37.5291C420.555 37.6465 420.364 37.7199 420.188 37.7639C420.012 37.808 419.806 37.8373 419.6 37.8373C419.41 37.8373 419.248 37.808 419.101 37.7346C418.955 37.6612 418.837 37.5585 418.749 37.441C418.646 37.3236 418.573 37.1768 418.529 37.0153C418.485 36.8539 418.456 36.6777 418.456 36.4869C418.456 36.2961 418.47 36.0613 418.514 35.8117C418.558 35.5475 418.602 35.2539 418.69 34.931L419.292 32.2889V32.2742ZM427.351 33.5219V32.4504H437.288V33.5219H427.351ZM444.51 37.852C444.392 38.4098 444.246 38.9089 444.055 39.3345C443.879 39.7602 443.644 40.1272 443.35 40.4207C443.071 40.7143 442.734 40.9345 442.337 41.0813C441.941 41.2281 441.486 41.3161 440.958 41.3161C440.796 41.3161 440.664 41.3161 440.561 41.3014C440.458 41.3014 440.356 41.2721 440.268 41.2427L440.459 40.5382C440.547 40.5675 440.635 40.5822 440.752 40.5969C440.87 40.6116 440.972 40.5969 441.075 40.5969C441.295 40.5969 441.501 40.5675 441.692 40.4941C441.882 40.4207 442.058 40.3033 442.22 40.1125C442.381 39.9217 442.528 39.6721 442.66 39.3492C442.792 39.0263 442.925 38.6006 443.027 38.0869L444.334 32.2742C444.392 31.9953 444.451 31.7458 444.48 31.555C444.51 31.3642 444.524 31.2027 444.524 31.0559C444.524 30.9385 444.524 30.8357 444.48 30.7477C444.451 30.6743 444.407 30.6009 444.334 30.5568C444.26 30.5128 444.172 30.4835 444.069 30.4541C443.952 30.4394 443.82 30.4247 443.658 30.4101L443.746 29.9844L445.713 29.911H446.168L444.495 37.8227L444.51 37.852ZM448.752 26.9313L446.726 28.678L446.301 28.1936L447.592 27.0781H442.675V26.3148H447.592L446.301 25.1992L446.726 24.7148L448.752 26.4616V26.9313Z" fill="black"/>
<path d="M452.378 34.1236V33.008H455.504V29.7935H456.664V33.008H459.82V34.1236H456.664V37.3822H455.504V34.1236H452.378Z" fill="black"/>
<path d="M471.651 26.8135V27.9731H466.352L466.058 31.5253C466.91 31.0703 467.761 30.8501 468.612 30.8501C470.931 30.8501 472.076 31.9216 472.076 34.0647C472.076 35.2977 471.753 36.2371 471.122 36.8829C470.491 37.5288 469.581 37.8517 468.436 37.8517C467.511 37.8517 466.484 37.7343 465.368 37.4847L464.825 37.3673L464.972 36.3545C466.234 36.604 467.306 36.7215 468.172 36.7215C469.038 36.7215 469.684 36.5013 470.124 36.0463C470.564 35.6059 470.785 34.9747 470.785 34.1674C470.785 33.3601 470.579 32.7877 470.183 32.4647C469.787 32.1418 469.214 31.9657 468.48 31.9657C468.084 31.9657 467.673 32.0244 467.232 32.1271C466.792 32.2445 466.469 32.3473 466.234 32.45L465.882 32.6115L465.001 32.45L465.295 26.7842H471.651V26.8135Z" fill="black"/>
<path d="M479.929 34.4026C479.87 34.1971 479.826 34.0503 479.768 33.9622C479.709 33.8888 479.65 33.8301 479.577 33.8007C479.503 33.7714 479.386 33.7567 479.21 33.7567H478.652L477.815 37.7052H476.421L478.491 28.4872C478.564 28.1789 478.608 27.9294 478.637 27.7532C478.667 27.5771 478.681 27.4303 478.681 27.2835C478.681 27.0634 478.608 26.9019 478.476 26.8138C478.344 26.7257 478.094 26.667 477.742 26.667L477.845 26.2414L479.885 26.168H480.355L478.769 33.2136H479.034C479.43 33.2136 479.885 33.0375 480.399 32.6852C480.898 32.3329 481.309 32.01 481.602 31.7017C481.896 31.3935 482.057 31.1146 482.057 30.8357C482.057 30.5715 481.881 30.4247 481.514 30.3954L481.602 29.999H484.215L484.362 30.3954C483.922 30.7917 483.437 31.188 482.938 31.5843L480.942 33.1255L481.734 36.0319C481.793 36.2814 481.852 36.4575 481.911 36.575C481.955 36.6924 482.028 36.7658 482.087 36.8245C482.16 36.8832 482.248 36.8979 482.351 36.8979C482.498 36.8979 482.659 36.8245 482.85 36.6777C483.041 36.5309 483.261 36.3107 483.511 36.0319L483.966 36.4869C483.481 37.0006 483.085 37.3529 482.762 37.5584C482.439 37.7639 482.145 37.852 481.837 37.852C481.47 37.852 481.177 37.7492 480.971 37.5437C480.751 37.3382 480.59 36.986 480.457 36.5016L479.929 34.4026Z" fill="black"/>
<path d="M485.081 23.6285L483.056 25.3753L482.63 24.8909L483.922 23.7753H479.004V23.0121H483.922L482.63 21.8965L483.056 21.4121L485.081 23.1588V23.6285Z" fill="black"/>
</svg>
