<svg width="475" height="216" viewBox="0 0 475 216" fill="none" xmlns="http://www.w3.org/2000/svg">
<path d="M81 189.5L230 148L379 106.5M6.5 213.5L140 81H468L335.5 213.5H6.5Z" stroke="#6547BA" stroke-width="5"/>
<path d="M308.5 150.5L280.53 143.358L288.33 171.152L308.5 150.5ZM154.176 196.407L287.512 158.987L286.161 154.173L152.824 191.593L154.176 196.407Z" fill="#00D3CD"/>
<path d="M362.547 131.434V131.219C362.547 129.845 362.69 128.598 362.977 127.479C363.27 126.359 363.654 125.376 364.129 124.529C364.611 123.676 365.135 122.97 365.701 122.41C366.268 121.85 366.831 121.447 367.391 121.199L367.928 122.684C367.557 122.957 367.192 123.335 366.834 123.816C366.476 124.292 366.15 124.878 365.857 125.574C365.571 126.264 365.34 127.078 365.164 128.016C364.988 128.947 364.9 130.008 364.9 131.199V131.453C364.9 132.645 364.988 133.709 365.164 134.646C365.34 135.577 365.571 136.391 365.857 137.088C366.15 137.791 366.476 138.383 366.834 138.865C367.192 139.347 367.557 139.728 367.928 140.008L367.391 141.453C366.831 141.206 366.268 140.802 365.701 140.242C365.135 139.689 364.611 138.986 364.129 138.133C363.654 137.286 363.27 136.303 362.977 135.184C362.69 134.057 362.547 132.807 362.547 131.434ZM372.225 128.738V137H369.412V126.434H372.059L372.225 128.738ZM375.408 126.365L375.359 128.973C375.223 128.953 375.057 128.937 374.861 128.924C374.673 128.904 374.5 128.895 374.344 128.895C373.947 128.895 373.602 128.947 373.309 129.051C373.022 129.148 372.781 129.295 372.586 129.49C372.397 129.686 372.254 129.923 372.156 130.203C372.065 130.483 372.013 130.802 372 131.16L371.434 130.984C371.434 130.301 371.502 129.673 371.639 129.1C371.775 128.52 371.974 128.016 372.234 127.586C372.501 127.156 372.827 126.824 373.211 126.59C373.595 126.355 374.035 126.238 374.529 126.238C374.686 126.238 374.845 126.251 375.008 126.277C375.171 126.297 375.304 126.326 375.408 126.365ZM381.57 131.219V131.434C381.57 132.762 381.421 133.986 381.121 135.105C380.822 136.219 380.424 137.205 379.93 138.064C379.441 138.93 378.904 139.65 378.318 140.223C377.739 140.796 377.16 141.206 376.58 141.453L376.033 140.008C376.404 139.734 376.766 139.357 377.117 138.875C377.475 138.393 377.801 137.801 378.094 137.098C378.387 136.401 378.618 135.584 378.787 134.646C378.963 133.709 379.051 132.645 379.051 131.453V131.199C379.051 130.008 378.963 128.943 378.787 128.006C378.611 127.068 378.374 126.251 378.074 125.555C377.781 124.852 377.456 124.262 377.098 123.787C376.746 123.305 376.391 122.928 376.033 122.654L376.58 121.199C377.16 121.447 377.739 121.86 378.318 122.439C378.904 123.012 379.441 123.729 379.93 124.588C380.424 125.447 380.822 126.437 381.121 127.557C381.421 128.67 381.57 129.891 381.57 131.219Z" fill="#354551"/>
<path d="M313.863 185.031L317.213 173.781H320.475L315.523 188H313.375L313.863 185.031ZM310.777 173.781L314.117 185.031L314.625 188H312.457L307.535 173.781H310.777Z" fill="#354551"/>
<path d="M188.242 26.6895V35H185.43V24.4336H188.066L188.242 26.6895ZM187.832 29.3457H187.07C187.07 28.5645 187.171 27.8613 187.373 27.2363C187.575 26.6048 187.858 26.0677 188.223 25.625C188.587 25.1758 189.02 24.834 189.521 24.5996C190.029 24.3587 190.596 24.2383 191.221 24.2383C191.715 24.2383 192.168 24.3099 192.578 24.4531C192.988 24.5964 193.34 24.8242 193.633 25.1367C193.932 25.4492 194.16 25.8626 194.316 26.377C194.479 26.8913 194.561 27.5195 194.561 28.2617V35H191.729V28.252C191.729 27.7832 191.663 27.4186 191.533 27.1582C191.403 26.8978 191.211 26.7155 190.957 26.6113C190.71 26.5007 190.404 26.4453 190.039 26.4453C189.661 26.4453 189.333 26.5202 189.053 26.6699C188.779 26.8197 188.551 27.028 188.369 27.2949C188.193 27.5553 188.06 27.8613 187.969 28.2129C187.878 28.5645 187.832 28.9421 187.832 29.3457Z" fill="#354551"/>
<path d="M191 21.5837L194 19.1516V18.4976L191 16.0656L190.37 16.74L192.283 18.2933H185V19.356H192.283L190.37 20.9093L191 21.5837Z" fill="black"/>
<path d="M315 171.518L318 169.086V168.432L315 166L314.37 166.674L316.283 168.228H309V169.29H316.283L314.37 170.844L315 171.518Z" fill="black"/>
<path d="M403.244 100.434V100.219C403.244 98.8451 403.387 97.5983 403.674 96.4785C403.967 95.3587 404.351 94.3757 404.826 93.5293C405.308 92.6764 405.832 91.9701 406.398 91.4102C406.965 90.8503 407.528 90.4466 408.088 90.1992L408.625 91.6836C408.254 91.957 407.889 92.3346 407.531 92.8164C407.173 93.2917 406.848 93.8776 406.555 94.5742C406.268 95.2643 406.037 96.0781 405.861 97.0156C405.686 97.9466 405.598 99.0078 405.598 100.199V100.453C405.598 101.645 405.686 102.709 405.861 103.646C406.037 104.577 406.268 105.391 406.555 106.088C406.848 106.791 407.173 107.383 407.531 107.865C407.889 108.347 408.254 108.728 408.625 109.008L408.088 110.453C407.528 110.206 406.965 109.802 406.398 109.242C405.832 108.689 405.308 107.986 404.826 107.133C404.351 106.286 403.967 105.303 403.674 104.184C403.387 103.057 403.244 101.807 403.244 100.434ZM421.32 95.4336V97.5137H409.543V95.4336H421.32ZM414.094 95.4336V106H411.281V95.4336H414.094ZM416.799 95.4336H419.621L419.611 102.738C419.611 103.044 419.65 103.279 419.729 103.441C419.813 103.598 419.937 103.708 420.1 103.773C420.262 103.832 420.467 103.861 420.715 103.861C420.891 103.861 421.047 103.855 421.184 103.842C421.32 103.829 421.441 103.812 421.545 103.793V105.854C421.304 105.932 421.044 105.993 420.764 106.039C420.484 106.091 420.174 106.117 419.836 106.117C419.217 106.117 418.68 106.013 418.225 105.805C417.769 105.596 417.417 105.264 417.17 104.809C416.923 104.353 416.799 103.754 416.799 103.012V95.4336ZM427.873 100.219V100.434C427.873 101.762 427.723 102.986 427.424 104.105C427.124 105.219 426.727 106.205 426.232 107.064C425.744 107.93 425.207 108.65 424.621 109.223C424.042 109.796 423.462 110.206 422.883 110.453L422.336 109.008C422.707 108.734 423.068 108.357 423.42 107.875C423.778 107.393 424.104 106.801 424.396 106.098C424.689 105.401 424.921 104.584 425.09 103.646C425.266 102.709 425.354 101.645 425.354 100.453V100.199C425.354 99.0078 425.266 97.9434 425.09 97.0059C424.914 96.0684 424.676 95.2513 424.377 94.5547C424.084 93.8516 423.758 93.2624 423.4 92.7871C423.049 92.3053 422.694 91.9277 422.336 91.6543L422.883 90.1992C423.462 90.4466 424.042 90.86 424.621 91.4395C425.207 92.0124 425.744 92.7285 426.232 93.5879C426.727 94.4473 427.124 95.4368 427.424 96.5566C427.723 97.6699 427.873 98.8906 427.873 100.219Z" fill="#354551"/>
<path d="M157 106H177V126" stroke="#6547BA" stroke-width="5"/>
<path d="M155 0L140.566 25H169.434L155 0ZM157.5 126V22.5H152.5V126H157.5Z" fill="#00D3CD"/>
</svg>
