<svg width="475" height="138" viewBox="0 0 475 138" fill="none" xmlns="http://www.w3.org/2000/svg">
<path d="M40 120.5L438 14M6.5 135L140 2.5H468L335.5 135H6.5Z" stroke="#6547BA" stroke-width="5"/>
<path d="M149.988 48.4766V65H144.363V43.8672H149.656L149.988 48.4766ZM156.355 43.7305L156.258 48.9453C155.984 48.9062 155.652 48.8737 155.262 48.8477C154.884 48.8086 154.539 48.7891 154.227 48.7891C153.432 48.7891 152.742 48.8932 152.156 49.1016C151.583 49.2969 151.102 49.5898 150.711 49.9805C150.333 50.3711 150.047 50.8464 149.852 51.4062C149.669 51.9661 149.565 52.6042 149.539 53.3203L148.406 52.9688C148.406 51.6016 148.543 50.3451 148.816 49.1992C149.09 48.0404 149.487 47.0312 150.008 46.1719C150.542 45.3125 151.193 44.6484 151.961 44.1797C152.729 43.7109 153.608 43.4766 154.598 43.4766C154.91 43.4766 155.229 43.5026 155.555 43.5547C155.88 43.5938 156.147 43.6523 156.355 43.7305Z" fill="#354551"/>
<path d="M306.676 99.9805V99.5703C306.676 97.9557 306.852 96.4714 307.203 95.1172C307.568 93.763 308.095 92.5911 308.785 91.6016C309.488 90.612 310.354 89.8438 311.383 89.2969C312.411 88.75 313.596 88.4766 314.938 88.4766C315.862 88.4766 316.689 88.6523 317.418 89.0039C318.16 89.3424 318.805 89.8372 319.352 90.4883C319.911 91.1393 320.387 91.9141 320.777 92.8125C321.168 93.6979 321.493 94.6875 321.754 95.7812C322.014 96.862 322.216 98.0208 322.359 99.2578V100.117C322.19 101.589 321.923 102.949 321.559 104.199C321.194 105.449 320.719 106.543 320.133 107.48C319.547 108.405 318.818 109.121 317.945 109.629C317.086 110.137 316.07 110.391 314.898 110.391C313.57 110.391 312.392 110.137 311.363 109.629C310.348 109.121 309.488 108.405 308.785 107.48C308.082 106.543 307.555 105.443 307.203 104.18C306.852 102.904 306.676 101.504 306.676 99.9805ZM312.32 99.5703V99.9805C312.32 100.853 312.385 101.654 312.516 102.383C312.659 103.099 312.887 103.73 313.199 104.277C313.512 104.824 313.922 105.247 314.43 105.547C314.938 105.846 315.562 105.996 316.305 105.996C317.034 105.996 317.652 105.859 318.16 105.586C318.681 105.312 319.111 104.935 319.449 104.453C319.788 103.958 320.055 103.379 320.25 102.715C320.445 102.038 320.589 101.289 320.68 100.469V99.0234C320.602 98.125 320.465 97.3047 320.27 96.5625C320.087 95.8073 319.82 95.1562 319.469 94.6094C319.13 94.0625 318.701 93.6393 318.18 93.3398C317.672 93.0273 317.06 92.8711 316.344 92.8711C315.615 92.8711 314.99 93.0469 314.469 93.3984C313.961 93.75 313.544 94.2318 313.219 94.8438C312.906 95.4557 312.678 96.1719 312.535 96.9922C312.392 97.7995 312.32 98.6589 312.32 99.5703ZM320.465 88.8672H325.348V103.242C325.348 103.75 325.38 104.173 325.445 104.512C325.51 104.85 325.602 105.124 325.719 105.332C325.849 105.54 325.999 105.69 326.168 105.781C326.35 105.859 326.552 105.898 326.773 105.898C326.878 105.898 326.962 105.892 327.027 105.879C327.092 105.853 327.151 105.833 327.203 105.82L327.672 109.922C327.255 110.13 326.858 110.26 326.48 110.312C326.103 110.378 325.693 110.41 325.25 110.41C324.482 110.41 323.785 110.293 323.16 110.059C322.535 109.824 321.982 109.466 321.5 108.984C321.031 108.49 320.647 107.871 320.348 107.129C320.048 106.374 319.84 105.482 319.723 104.453V93.3984L320.465 88.8672Z" fill="#354551"/>
</svg>
