<svg width="353" height="67" viewBox="0 0 353 67" fill="none" xmlns="http://www.w3.org/2000/svg">
<g clip-path="url(#clip0_158_809)">
<path d="M23.9866 11.1391L22.1143 12.7537L21.7208 12.3059L22.9148 11.2748H18.3696V10.5693H22.9148L21.7208 9.53813L22.1143 9.09039L23.9866 10.7049V11.1391ZM19.1566 16.0913C19.2108 15.8335 19.2651 15.6029 19.2922 15.4265C19.3194 15.2501 19.3329 15.1009 19.3329 14.9652C19.3329 14.8566 19.3329 14.7617 19.2922 14.6803C19.2651 14.6124 19.2244 14.5446 19.1566 14.5039C19.0887 14.4632 19.0073 14.436 18.9123 14.4089C18.8038 14.3953 18.6817 14.3818 18.5324 14.3682L18.6138 13.9747L20.4319 13.9069H20.8661L19.7942 18.6963C19.74 18.9405 19.6993 19.144 19.6721 19.334C19.645 19.5239 19.6314 19.6732 19.6314 19.8088C19.6314 20.0124 19.6586 20.148 19.7264 20.243C19.7942 20.338 19.8892 20.3787 20.0385 20.3787C20.2013 20.3787 20.3776 20.3108 20.554 20.1616C20.7304 20.0124 20.9611 19.7953 21.2188 19.4968L21.6394 19.9174C21.4088 20.1616 21.1917 20.3651 21.0153 20.5415C20.8254 20.7043 20.649 20.8535 20.4862 20.9485C20.3234 21.0571 20.147 21.1249 19.9842 21.1656C19.8214 21.2063 19.6314 21.2334 19.4415 21.2334C19.2651 21.2334 19.1159 21.2063 18.9802 21.1385C18.8445 21.0706 18.736 20.9757 18.6545 20.8671C18.5596 20.7586 18.4917 20.6229 18.451 20.4737C18.4103 20.3244 18.3832 20.1616 18.3832 19.9852C18.3832 19.8088 18.3968 19.5918 18.4375 19.3611C18.4782 19.1169 18.5189 18.8455 18.6003 18.547L19.1566 16.1049V16.0913ZM48.5577 21.2334C48.4491 21.749 48.3134 22.2103 48.1371 22.6038C47.9743 22.9972 47.7572 23.3364 47.4858 23.6078C47.228 23.8791 46.916 24.0827 46.5496 24.2183C46.1833 24.354 45.7627 24.4354 45.2743 24.4354C45.125 24.4354 45.0029 24.4354 44.908 24.4218C44.813 24.4218 44.718 24.3947 44.6366 24.3676L44.813 23.7163C44.8944 23.7435 44.9758 23.757 45.0843 23.7706C45.1929 23.7842 45.2879 23.7706 45.3828 23.7706C45.5863 23.7706 45.7763 23.7435 45.9527 23.6756C46.1291 23.6078 46.2919 23.4992 46.4411 23.3229C46.5904 23.1465 46.726 22.9158 46.8481 22.6173C46.9702 22.3189 47.0924 21.9254 47.1873 21.4505L48.3949 16.0777C48.4491 15.82 48.5034 15.5893 48.5305 15.4129C48.5577 15.2365 48.5712 15.0873 48.5712 14.9516C48.5712 14.8431 48.5712 14.7481 48.5305 14.6667C48.5034 14.5989 48.4627 14.531 48.3949 14.4903C48.327 14.4496 48.2456 14.4225 48.1506 14.3953C48.0421 14.3818 47.92 14.3682 47.7707 14.3546L47.8521 13.9612L49.6702 13.8933H50.0908L48.5441 21.2063L48.5577 21.2334ZM52.4787 11.1391L50.6064 12.7537L50.2129 12.3059L51.4069 11.2748H46.8617V10.5693H51.4069L50.2129 9.53813L50.6064 9.09039L52.4787 10.7049V11.1391ZM77.2397 18.045C77.1854 17.8551 77.1447 17.7194 77.0904 17.638C77.0362 17.5702 76.9819 17.5159 76.9141 17.4888C76.8462 17.4616 76.7377 17.4481 76.5749 17.4481H76.0593L75.2859 21.0978H73.997L75.9101 12.5773C75.9779 12.2924 76.0186 12.0617 76.0457 11.8989C76.0729 11.7361 76.0864 11.6004 76.0864 11.4647C76.0864 11.2612 76.0186 11.112 75.8965 11.0306C75.7744 10.9492 75.5437 10.8949 75.2181 10.8949L75.3131 10.5014L77.199 10.4336H77.6331L76.1678 16.9461H76.4121C76.7784 16.9461 77.199 16.7833 77.6739 16.4576C78.1352 16.132 78.515 15.8335 78.7864 15.5486C79.0713 15.2637 79.207 15.0059 79.207 14.7481C79.207 14.5039 79.0442 14.3682 78.705 14.3411L78.7864 13.9747H81.2014L81.3371 14.3411C80.9301 14.7074 80.4824 15.0737 80.0211 15.4401L78.1759 16.8647L78.9085 19.5511C78.9628 19.7817 79.017 19.9445 79.0713 20.0531C79.112 20.1616 79.1799 20.2294 79.2341 20.2837C79.302 20.338 79.3834 20.3515 79.4783 20.3515C79.614 20.3515 79.7633 20.2837 79.9396 20.148C80.116 20.0124 80.3195 19.8088 80.5502 19.5511L80.9708 19.9717C80.5231 20.4465 80.1567 20.7721 79.8582 20.9621C79.5598 21.152 79.2884 21.2334 79.0035 21.2334C78.6643 21.2334 78.3929 21.1385 78.203 20.9485C77.9995 20.7586 77.8502 20.433 77.7281 19.9852L77.2397 18.045Z" fill="black"/>
<path d="M81.9747 8.08637L80.1023 9.70093L79.7089 9.25319L80.9028 8.22205H76.3577V7.51653H80.9028L79.7089 6.48539L80.1023 6.03766L81.9747 7.65221V8.08637Z" fill="black"/>
<path d="M11.2329 35.086V34.0548H17.759V35.086H11.2329Z" fill="black"/>
<path d="M27.3378 28.3293V38.3965H26.1574V29.6318L23.566 31.3413L23.0369 30.4594L26.2388 28.3293H27.3378Z" fill="black"/>
<path d="M50.8371 28.3293V38.3965H49.6567V29.6318L47.0653 31.3413L46.5361 30.4594L49.7381 28.3293H50.8371Z" fill="black"/>
<path d="M69.2075 35.086V34.0548H75.7336V35.086H69.2075Z" fill="black"/>
<path d="M86.8863 38.3965H80.4417V37.4061L83.3858 34.3127C83.9014 33.7835 84.2677 33.3765 84.4984 33.1052C84.729 32.8338 84.9461 32.5082 85.1361 32.1283C85.326 31.7484 85.421 31.3685 85.421 31.0022C85.421 30.3509 85.2446 29.8896 84.8918 29.6318C84.5391 29.374 83.9828 29.2384 83.223 29.2384C82.5582 29.2384 81.8256 29.3198 81.0115 29.4962L80.618 29.5776L80.5231 28.6007C81.4864 28.3293 82.4904 28.1937 83.5215 28.1937C84.5526 28.1937 85.326 28.4107 85.8416 28.8449C86.3707 29.2791 86.6285 29.9575 86.6285 30.8936C86.6285 31.6127 86.4657 32.2233 86.1536 32.7524C85.8416 33.2815 85.2989 33.9192 84.5255 34.6654L81.8391 37.3925H86.8863V38.4101V38.3965Z" fill="black"/>
<path d="M11.2058 53.4023V52.3712H17.7319V53.4023H11.2058Z" fill="black"/>
<path d="M28.8846 56.7129H22.4399V55.7224L25.3841 52.629C25.8997 52.0999 26.266 51.6929 26.4967 51.4215C26.7273 51.1502 26.9444 50.8245 27.1344 50.4446C27.3243 50.0647 27.4193 49.6848 27.4193 49.3185C27.4193 48.6673 27.2429 48.206 26.8901 47.9482C26.5374 47.6904 25.9811 47.5547 25.2213 47.5547C24.5565 47.5547 23.8238 47.6361 23.0098 47.8125L22.6163 47.8939L22.5213 46.917C23.4847 46.6457 24.4887 46.51 25.5198 46.51C26.5509 46.51 27.3243 46.7271 27.8399 47.1613C28.369 47.5954 28.6268 48.2738 28.6268 49.21C28.6268 49.9291 28.464 50.5396 28.1519 51.0687C27.8399 51.5979 27.2972 52.2356 26.5238 52.9818L23.8374 55.7089H28.8846V56.7265V56.7129Z" fill="black"/>
<path d="M52.3838 56.7129H45.9392V55.7224L48.8834 52.629C49.399 52.0999 49.7653 51.6929 49.9959 51.4215C50.2266 51.1502 50.4437 50.8245 50.6336 50.4446C50.8236 50.0647 50.9185 49.6848 50.9185 49.3185C50.9185 48.6673 50.7422 48.206 50.3894 47.9482C50.0366 47.6904 49.4804 47.5547 48.7206 47.5547C48.0558 47.5547 47.3231 47.6361 46.5091 47.8125L46.1156 47.8939L46.0206 46.917C46.9839 46.6457 47.9879 46.51 49.0191 46.51C50.0502 46.51 50.8236 46.7271 51.3391 47.1613C51.8683 47.5954 52.1261 48.2738 52.1261 49.21C52.1261 49.9291 51.9633 50.5396 51.6512 51.0687C51.3391 51.5979 50.7964 52.2356 50.0231 52.9818L47.3367 55.7089H52.3838V56.7265V56.7129Z" fill="black"/>
<path d="M69.1941 53.4023V52.3712H75.7337V53.4023H69.1941Z" fill="black"/>
<path d="M84.8785 56.7128V54.7455H79.9941V53.8229L82.8569 46.6321H84.1458L81.2288 53.7008H84.8785V50.5531H86.0589V53.7008H87.3478V54.7455H86.0589V56.7128H84.8785Z" fill="black"/>
<path d="M100.698 30.6358V29.5775H107.292V30.6358H100.698ZM100.698 33.4579V32.3996H107.292V33.4579H100.698Z" fill="black"/>
<path d="M113.276 36.2392C112.217 33.8649 111.688 31.694 111.688 29.7403C111.688 28.7634 111.824 27.7051 112.082 26.5519C112.339 25.4122 112.611 24.5032 112.869 23.8519L113.262 22.8751H114.361C114.008 23.8112 113.669 24.9645 113.371 26.3484C113.072 27.7323 112.909 28.8448 112.909 29.7267C112.909 30.6086 113.031 31.5719 113.276 32.6573C113.52 33.7428 113.764 34.6111 114.008 35.2623L114.361 36.2392H113.262H113.276Z" fill="black"/>
<path d="M118.024 32.0332V31.0021H124.564V32.0332H118.024Z" fill="black"/>
<path d="M133.694 35.3438V33.3765H128.81V32.4539L131.673 25.263H132.948L130.031 32.3317H133.681V29.1841H134.861V32.3317H136.15V33.3765H134.861V35.3438H133.681H133.694Z" fill="black"/>
<path d="M140.315 32.0332V31.0021H143.205V28.0308H144.277V31.0021H147.194V32.0332H144.277V35.0452H143.205V32.0332H140.315Z" fill="black"/>
<path d="M156.353 35.3438V33.3765H151.468V32.4539L154.331 25.263H155.62L152.703 32.3317H156.353V29.1841H157.533V32.3317H158.822V33.3765H157.533V35.3438H156.353Z" fill="black"/>
<path d="M164.846 27.7458C164.954 28.4514 165.009 29.2112 165.009 30.0116C165.009 30.8121 164.873 31.7483 164.615 32.8337C164.358 33.9191 164.086 34.7603 163.828 35.3437L163.435 36.2392H162.336C162.675 35.4251 163.014 34.3533 163.326 33.0237C163.638 31.694 163.788 30.5951 163.788 29.7267C163.788 28.8584 163.666 27.8544 163.435 26.7147C163.204 25.575 162.96 24.6524 162.716 23.9469L162.349 22.8751H163.448C164.127 24.3946 164.588 26.0092 164.873 27.7458H164.846Z" fill="black"/>
<path d="M174.52 25.3851L172.648 26.9997L172.254 26.552L173.448 25.5208H168.903V24.8153H173.448L172.254 23.7842L172.648 23.3364L174.52 24.951V25.3851ZM169.676 30.3238C169.73 30.066 169.785 29.8353 169.812 29.659C169.839 29.4826 169.853 29.3333 169.853 29.1977C169.853 29.0891 169.853 28.9941 169.812 28.9127C169.785 28.8449 169.744 28.7771 169.676 28.7364C169.608 28.6956 169.527 28.6685 169.432 28.6414C169.323 28.6278 169.201 28.6142 169.052 28.6007L169.133 28.2072L170.952 28.1394H171.386L170.314 32.9288C170.26 33.173 170.219 33.3765 170.192 33.5664C170.165 33.7564 170.151 33.9056 170.151 34.0413C170.151 34.2448 170.178 34.3805 170.246 34.4755C170.314 34.5704 170.409 34.6111 170.558 34.6111C170.721 34.6111 170.897 34.5433 171.074 34.3941C171.25 34.2448 171.481 34.0277 171.738 33.7292L172.159 34.1498C171.928 34.3941 171.711 34.5976 171.535 34.774C171.345 34.9368 171.169 35.086 171.006 35.181C170.843 35.2895 170.667 35.3574 170.504 35.3981C170.341 35.4388 170.151 35.4659 169.961 35.4659C169.785 35.4659 169.635 35.4388 169.5 35.3709C169.364 35.3031 169.256 35.2081 169.174 35.0996C169.079 34.991 169.011 34.8554 168.971 34.7061C168.93 34.5569 168.903 34.3941 168.903 34.2177C168.903 34.0413 168.916 33.8242 168.957 33.5936C168.998 33.3494 169.039 33.078 169.12 32.7795L169.676 30.3373V30.3238Z" fill="black"/>
<path d="M176.867 32.0332V31.0021H179.757V28.0308H180.828V31.0021H183.746V32.0332H180.828V35.0452H179.757V32.0332H176.867Z" fill="black"/>
<path d="M193.65 36.2392C192.592 33.8649 192.062 31.694 192.062 29.7403C192.062 28.7634 192.198 27.7051 192.456 26.5519C192.714 25.3986 192.985 24.5032 193.243 23.8519L193.636 22.8751H194.735C194.383 23.8112 194.043 24.9645 193.745 26.3484C193.446 27.7323 193.284 28.8448 193.284 29.7267C193.284 30.6086 193.406 31.5719 193.65 32.6573C193.894 33.7428 194.138 34.6111 194.383 35.2623L194.735 36.2392H193.636H193.65Z" fill="black"/>
<path d="M202.89 35.3438V33.3765H198.005V32.4539L200.882 25.263H202.157L199.24 32.3317H202.89V29.1841H204.07V32.3317H205.359V33.3765H204.07V35.3438H202.89Z" fill="black"/>
<path d="M209.592 32.0332V31.0021H216.132V32.0332H209.592Z" fill="black"/>
<path d="M228.315 35.3438V33.3765H223.431V32.4539L226.307 25.263H227.583L224.666 32.3317H228.315V29.1841H229.496V32.3317H230.785V33.3765H229.496V35.3438H228.315Z" fill="black"/>
<path d="M234.041 27.7458C234.149 28.4514 234.204 29.2112 234.204 30.0116C234.204 30.8121 234.068 31.7483 233.81 32.8337C233.539 33.9191 233.281 34.7603 233.023 35.3437L232.63 36.2392H231.531C231.87 35.4251 232.209 34.3533 232.521 33.0237C232.833 31.694 232.982 30.5951 232.982 29.7267C232.982 28.8584 232.86 27.8544 232.63 26.7147C232.386 25.575 232.155 24.6524 231.911 23.9469L231.544 22.8751H232.643C233.322 24.3946 233.783 26.0092 234.068 27.7458H234.041Z" fill="black"/>
<path d="M239.78 35.4795C239.672 35.995 239.536 36.4563 239.36 36.8498C239.197 37.2433 238.98 37.5825 238.709 37.8538C238.451 38.1252 238.139 38.3287 237.772 38.4644C237.406 38.6 236.985 38.6814 236.497 38.6814C236.348 38.6814 236.226 38.6814 236.131 38.6679C236.036 38.6679 235.941 38.6407 235.859 38.6136L236.036 37.9624C236.117 37.9895 236.199 38.0031 236.307 38.0166C236.416 38.0302 236.511 38.0166 236.606 38.0166C236.809 38.0166 236.999 37.9895 237.175 37.9217C237.352 37.8538 237.515 37.7453 237.664 37.5689C237.813 37.3925 237.949 37.1619 238.071 36.8634C238.193 36.5649 238.315 36.1714 238.41 35.6966L239.618 30.3238C239.672 30.066 239.726 29.8353 239.753 29.659C239.78 29.4826 239.794 29.3333 239.794 29.1977C239.794 29.0891 239.794 28.9941 239.753 28.9127C239.726 28.8449 239.685 28.7771 239.618 28.7364C239.55 28.6956 239.468 28.6685 239.373 28.6414C239.265 28.6278 239.143 28.6142 238.993 28.6007L239.075 28.2072L240.893 28.1394H241.314L239.767 35.4523L239.78 35.4795ZM243.701 25.3851L241.829 26.9997L241.436 26.552L242.63 25.5208H238.084V24.8153H242.63L241.436 23.7842L241.829 23.3364L243.701 24.951V25.3851Z" fill="black"/>
<path d="M247.053 32.0332V31.0021H249.943V28.0308H251.014V31.0021H253.932V32.0332H251.014V35.0452H249.943V32.0332H247.053Z" fill="black"/>
<path d="M262.832 36.2392C261.774 33.8649 261.245 31.694 261.245 29.7403C261.245 28.7634 261.38 27.7051 261.638 26.5519C261.896 25.3986 262.167 24.5032 262.425 23.8519L262.818 22.8751H263.917C263.565 23.8112 263.226 24.9645 262.927 26.3484C262.629 27.7323 262.466 28.8448 262.466 29.7267C262.466 30.6086 262.588 31.5719 262.832 32.6573C263.076 33.7428 263.32 34.6111 263.565 35.2623L263.917 36.2392H262.818H262.832Z" fill="black"/>
<path d="M267.566 32.0332V31.0021H274.106V32.0332H267.566Z" fill="black"/>
<path d="M285.245 35.3438H278.801V34.3534L281.745 31.2599C282.261 30.7308 282.627 30.3238 282.858 30.0524C283.088 29.7811 283.305 29.4554 283.495 29.0755C283.685 28.6957 283.78 28.3158 283.78 27.9494C283.78 27.2982 283.604 26.8369 283.251 26.5791C282.898 26.3213 282.342 26.1856 281.582 26.1856C280.917 26.1856 280.185 26.267 279.371 26.4434L278.977 26.5248L278.882 25.548C279.845 25.2766 280.85 25.1409 281.881 25.1409C282.912 25.1409 283.685 25.358 284.214 25.7922C284.743 26.2263 285.001 26.9047 285.001 27.8409C285.001 28.56 284.838 29.1705 284.526 29.6997C284.214 30.2288 283.672 30.8665 282.898 31.6127L280.212 34.3398H285.259V35.3574L285.245 35.3438Z" fill="black"/>
<path d="M290.903 32.0333V31.0021H293.793V28.0308H294.865V31.0021H297.782V32.0333H294.865V35.0453H293.793V32.0333H290.903Z" fill="black"/>
<path d="M308.922 35.3438H302.477V34.3534L305.421 31.2599C305.937 30.7308 306.303 30.3238 306.534 30.0524C306.764 29.7811 306.982 29.4554 307.171 29.0755C307.361 28.6957 307.456 28.3158 307.456 27.9494C307.456 27.2982 307.28 26.8369 306.927 26.5791C306.574 26.3213 306.018 26.1856 305.258 26.1856C304.594 26.1856 303.861 26.267 303.047 26.4434L302.653 26.5248L302.558 25.548C303.522 25.2766 304.526 25.1409 305.557 25.1409C306.588 25.1409 307.361 25.358 307.891 25.7922C308.42 26.2263 308.677 26.9047 308.677 27.8409C308.677 28.56 308.515 29.1705 308.203 29.6997C307.891 30.2288 307.348 30.8665 306.574 31.6127L303.888 34.3398H308.935V35.3574L308.922 35.3438Z" fill="black"/>
<path d="M315.42 27.7458C315.528 28.4514 315.582 29.2112 315.582 30.0116C315.582 30.8121 315.447 31.7483 315.189 32.8337C314.918 33.9191 314.66 34.7603 314.402 35.3437L314.009 36.2392H312.91C313.249 35.4251 313.588 34.3533 313.9 33.0237C314.212 31.694 314.361 30.5951 314.361 29.7267C314.361 28.8584 314.239 27.8544 314.009 26.7147C313.764 25.575 313.534 24.6524 313.29 23.9469L312.923 22.8751H314.022C314.701 24.3946 315.162 26.0092 315.447 27.7458H315.42Z" fill="black"/>
<path d="M322.38 32.2911C322.326 32.1011 322.285 31.9655 322.231 31.8841C322.177 31.8162 322.123 31.7619 322.055 31.7348C321.987 31.7077 321.878 31.6941 321.716 31.6941H321.2L320.427 35.3438H319.138L321.051 26.8233C321.119 26.5384 321.159 26.3077 321.186 26.1449C321.214 25.9821 321.227 25.8464 321.227 25.7108C321.227 25.5073 321.159 25.358 321.037 25.2766C320.915 25.1952 320.684 25.1409 320.359 25.1409L320.454 24.7475L322.34 24.6796H322.774L321.309 31.1921H321.553C321.919 31.1921 322.34 31.0293 322.815 30.7037C323.276 30.378 323.656 30.0796 323.927 29.7946C324.212 29.5097 324.348 29.2519 324.348 28.9941C324.348 28.7499 324.185 28.6142 323.846 28.5871L323.927 28.2208H326.342L326.478 28.5871C326.071 28.9534 325.623 29.3198 325.162 29.6861L323.317 31.1107L324.049 33.7971C324.103 34.0277 324.158 34.1906 324.212 34.2991C324.253 34.4076 324.321 34.4755 324.375 34.5297C324.443 34.584 324.524 34.5976 324.619 34.5976C324.755 34.5976 324.904 34.5297 325.08 34.3941C325.257 34.2584 325.46 34.0549 325.691 33.7971L326.111 34.2177C325.664 34.6926 325.297 35.0182 324.999 35.2081C324.7 35.3981 324.429 35.4795 324.144 35.4795C323.805 35.4795 323.534 35.3845 323.344 35.1946C323.14 35.0046 322.991 34.679 322.869 34.2313L322.38 32.2911Z" fill="black"/>
<path d="M327.21 22.3324L325.338 23.947L324.944 23.4992L326.138 22.4681H321.593V21.7626H326.138L324.944 20.7314L325.338 20.2837L327.21 21.8982V22.3324Z" fill="black"/>
<path d="M332.746 30.6358V29.5775H339.339V30.6358H332.746ZM332.746 33.4579V32.3996H339.339V33.4579H332.746Z" fill="black"/>
<path d="M348.43 25.1138C349.271 25.1138 349.936 25.2766 350.465 25.5886C351.564 26.2399 352.107 27.868 352.107 30.473C352.107 32.3182 351.808 33.6207 351.198 34.3669C350.587 35.1131 349.678 35.5066 348.457 35.5066C347.236 35.5066 346.313 35.1267 345.703 34.3805C345.092 33.6343 344.78 32.3046 344.78 30.378C344.78 28.4514 345.079 27.1082 345.689 26.3077C346.3 25.5072 347.209 25.1138 348.444 25.1138H348.43ZM348.444 26.1585C347.86 26.1585 347.399 26.2806 347.073 26.5248C346.354 27.0268 345.988 28.3429 345.988 30.473C345.988 31.979 346.191 33.0237 346.585 33.5936C346.978 34.1634 347.602 34.4619 348.444 34.4619C349.285 34.4619 349.909 34.177 350.302 33.5936C350.696 33.0101 350.899 31.9383 350.899 30.3645C350.899 28.7906 350.709 27.7052 350.329 27.0811C349.95 26.457 349.325 26.1585 348.444 26.1585Z" fill="black"/>
<path d="M351.632 22.3324L349.76 23.947L349.366 23.4992L350.56 22.4681H346.015V21.7626H350.56L349.366 20.7314L349.76 20.2837L351.632 21.8982V22.3324Z" fill="black"/>
<path d="M1.32861 0V66.78" stroke="black" stroke-width="1.01757" stroke-miterlimit="10"/>
<path d="M94.7285 0V66.78" stroke="black" stroke-width="1.01757" stroke-miterlimit="10"/>
</g>
<defs>
<clipPath id="clip0_158_809">
<rect width="351.294" height="66.78" fill="white" transform="translate(0.813232)"/>
</clipPath>
</defs>
</svg>
