<svg width="168" height="70" viewBox="0 0 168 70" fill="none" xmlns="http://www.w3.org/2000/svg">
<path d="M16.3378 9.14966V18.407H15.2523V10.3599L12.8694 11.9319L12.3828 11.1209L15.3272 9.14966H16.3378Z" fill="black"/>
<path d="M23.1001 14.0779V13.1047H29.1635V14.0779H23.1001ZM23.1001 16.6729V15.6998H29.1635V16.6729H23.1001Z" fill="black"/>
<path d="M34.6033 9.38676C35.4891 9.12476 36.4248 9 37.4354 9C38.4459 9 39.1696 9.18714 39.6187 9.57391C40.0679 9.96067 40.2924 10.572 40.2924 11.4079C40.2924 11.8446 40.23 12.144 40.1178 12.3436C40.0055 12.5308 39.9057 12.6805 39.8433 12.7803C39.7684 12.8801 39.6811 12.9799 39.5688 13.0797C39.3567 13.2419 39.1945 13.3542 39.0822 13.4166L38.9325 13.5164C39.469 13.716 39.8807 13.9655 40.1427 14.265C40.4047 14.5644 40.5295 15.0634 40.5295 15.7621C40.5295 16.7103 40.2924 17.409 39.8059 17.8706C39.3193 18.3322 38.5582 18.5568 37.5227 18.5568C36.6993 18.5568 35.8259 18.457 34.9152 18.2823L34.4785 18.1825L34.5783 17.2967C35.5889 17.5088 36.5371 17.6086 37.4104 17.6086C38.7454 17.6086 39.4191 16.9973 39.4191 15.812C39.4191 14.7016 38.7828 14.1152 37.5102 14.0778H35.6388V13.1546H37.5102C37.897 13.1546 38.2838 13.0049 38.6456 12.6805C39.0074 12.3686 39.1945 11.9569 39.1945 11.4329C39.1945 10.9089 39.0448 10.547 38.7579 10.3225C38.4709 10.0979 37.9843 9.97314 37.2981 9.97314C36.5496 9.97314 35.8135 10.048 35.0774 10.1852L34.7156 10.2601L34.6158 9.39924L34.6033 9.38676Z" fill="black"/>
<path d="M48.3022 15.3753V14.4271H54.3158V15.3753H48.3022Z" fill="black"/>
<path d="M67.3657 18.4196H61.4395V17.5088L64.1468 14.6642C64.6209 14.1777 64.9577 13.8034 65.1698 13.5539C65.3819 13.3043 65.5816 13.0049 65.7562 12.6556C65.9309 12.3062 66.0182 11.9694 66.0182 11.6201C66.0182 11.0212 65.856 10.597 65.5316 10.36C65.2073 10.1229 64.6957 9.99814 63.9971 9.99814C63.3857 9.99814 62.712 10.073 61.9635 10.2352L61.6016 10.31L61.5143 9.41176C62.4001 9.16224 63.3234 9.03748 64.2716 9.03748C65.2197 9.03748 65.9309 9.23709 66.4175 9.63633C66.904 10.0356 67.1411 10.6594 67.1411 11.5202C67.1411 12.1815 66.9914 12.7429 66.7044 13.2295C66.4175 13.7161 65.9184 14.3024 65.2073 14.9886L62.737 17.4963H67.3781V18.4321L67.3657 18.4196Z" fill="black"/>
<path d="M76.0612 12.2189C75.4998 12.9924 74.8261 13.9281 74.065 15.051C73.9527 15.9243 73.8903 16.5357 73.8903 16.8975C73.8903 17.1969 73.9278 17.409 73.9902 17.5462C74.0525 17.6835 74.1773 17.7459 74.327 17.7459C74.4518 17.7459 74.6015 17.696 74.7637 17.5837C74.9259 17.4714 75.1005 17.3092 75.2877 17.0846L75.6869 17.4589C75.3002 17.8706 74.9758 18.1576 74.6888 18.3073C74.4019 18.457 74.1149 18.5319 73.8155 18.5319C73.2042 18.5319 72.9047 18.0827 72.9047 17.1969C72.9047 16.9973 72.9172 16.7852 72.9422 16.5481H72.8798C72.4057 17.2468 71.969 17.7583 71.5448 18.0702C71.1206 18.3821 70.6715 18.5319 70.1974 18.5319C69.8605 18.5319 69.5861 18.432 69.349 18.2449C69.1244 18.0578 68.9498 17.7958 68.8375 17.4839C68.7252 17.1719 68.6753 16.8226 68.6753 16.4483C68.6753 15.6249 68.825 14.8514 69.1369 14.1278C69.4488 13.3917 69.8855 12.8178 70.4344 12.406C70.9834 11.9818 71.6072 11.7822 72.2934 11.7822C72.8049 11.7822 73.2042 11.9444 73.4911 12.2563C73.7781 12.5807 73.9403 13.0423 73.9777 13.6661H74.0401L74.9384 11.8945H76.1236L76.0612 12.2438V12.2189ZM73.0794 15.0884C73.1543 14.6143 73.1917 14.1901 73.1917 13.8283C73.1917 13.3043 73.1168 12.9176 72.9671 12.668C72.8174 12.4185 72.5804 12.2938 72.256 12.2938C71.8318 12.2938 71.445 12.4809 71.0832 12.8552C70.7214 13.2295 70.4344 13.741 70.2223 14.3773C70.0102 15.0136 69.898 15.6748 69.898 16.3485C69.898 16.8101 69.9603 17.147 70.0976 17.3716C70.2348 17.5961 70.4344 17.7084 70.7089 17.7084C71.0957 17.7084 71.5074 17.4839 71.9191 17.0222C72.3308 16.5606 72.7176 15.9243 73.0794 15.1009V15.0884Z" fill="black"/>
<path d="M120.228 13.953H128.886L127.314 11.9568L127.713 11.5825L130.408 14.19V14.6267L127.713 17.2342L127.314 16.86L128.886 14.8638H120.228V13.953ZM143.446 12.2188C142.884 12.9923 142.211 13.928 141.45 15.0509C141.337 15.9242 141.275 16.5356 141.275 16.8974C141.275 17.1968 141.312 17.4089 141.375 17.5461C141.437 17.6834 141.562 17.7458 141.712 17.7458C141.836 17.7458 141.986 17.6959 142.148 17.5836C142.31 17.4713 142.485 17.3091 142.672 17.0845L143.071 17.4588C142.685 17.8705 142.36 18.1575 142.073 18.3072C141.786 18.4569 141.499 18.5318 141.2 18.5318C140.589 18.5318 140.289 18.0826 140.289 17.1968C140.289 16.9972 140.302 16.7851 140.327 16.5481H140.264C139.79 17.2467 139.354 17.7582 138.929 18.0701C138.505 18.3821 138.056 18.5318 137.582 18.5318C137.245 18.5318 136.971 18.432 136.734 18.2448C136.509 18.0577 136.334 17.7957 136.222 17.4838C136.11 17.1719 136.06 16.8225 136.06 16.4482C136.06 15.6248 136.21 14.8513 136.521 14.1277C136.833 13.3916 137.27 12.8177 137.819 12.4059C138.368 11.9818 138.992 11.7821 139.678 11.7821C140.189 11.7821 140.589 11.9443 140.876 12.2562C141.163 12.5806 141.325 13.0422 141.362 13.666H141.425L142.323 11.8944H143.508L143.446 12.2438V12.2188ZM140.464 15.0883C140.539 14.6142 140.576 14.19 140.576 13.8282C140.576 13.3042 140.501 12.9175 140.352 12.668C140.202 12.4184 139.965 12.2937 139.641 12.2937C139.216 12.2937 138.83 12.4808 138.468 12.8551C138.106 13.2294 137.819 13.7409 137.607 14.3772C137.395 15.0135 137.283 15.6747 137.283 16.3484C137.283 16.8101 137.345 17.1469 137.482 17.3715C137.619 17.5961 137.819 17.7083 138.093 17.7083C138.48 17.7083 138.892 17.4838 139.304 17.0221C139.715 16.5605 140.102 15.9242 140.464 15.1008V15.0883Z" fill="black"/>
<path d="M148.411 14.0779V13.1047H154.475V14.0779H148.411ZM148.411 16.6729V15.6998H154.475V16.6729H148.411Z" fill="black"/>
<path d="M164.368 9.14966V18.407H163.283V10.3599L160.9 11.9319L160.413 11.1209L163.357 9.16213H164.368V9.14966Z" fill="black"/>
<path d="M15.4147 25.0569V34.3142H14.3292V26.2546L11.9463 27.8266L11.4597 27.0156L14.4041 25.0569H15.4147Z" fill="black"/>
<path d="M23.1125 29.985V29.0118H29.176V29.985H23.1125ZM23.1125 32.58V31.6069H29.176V32.58H23.1125Z" fill="black"/>
<path d="M33.8931 31.27V30.3218H39.9066V31.27H33.8931Z" fill="black"/>
<path d="M48.7147 25.0569V34.3142H47.6293V26.2546L45.2463 27.8266L44.7598 27.0156L47.7042 25.0569H48.7147Z" fill="black"/>
<path d="M54.4038 31.2701V30.3219H57.0612V27.5896H58.0469V30.3219H60.7292V31.2701H58.0469V34.0398H57.0612V31.2701H54.4038Z" fill="black"/>
<path d="M70.9721 34.3142H65.0459V33.4035L67.7532 30.5589C68.2273 30.0723 68.5642 29.698 68.7763 29.4485C68.9884 29.199 69.188 28.8996 69.3627 28.5502C69.5373 28.2009 69.6247 27.864 69.6247 27.5147C69.6247 26.9158 69.4625 26.4917 69.1381 26.2546C68.8137 26.0176 68.3022 25.8928 67.6035 25.8928C66.9922 25.8928 66.3185 25.9677 65.5699 26.1298L65.2081 26.2047L65.1208 25.3064C66.0066 25.0569 66.9298 24.9321 67.878 24.9321C68.8262 24.9321 69.5373 25.1317 70.0239 25.531C70.5105 25.9302 70.7475 26.554 70.7475 27.4149C70.7475 28.0761 70.5978 28.6376 70.3109 29.1241C70.0239 29.6107 69.5249 30.1971 68.8137 30.8833L66.3434 33.391H70.9846V34.3267L70.9721 34.3142Z" fill="black"/>
<path d="M81.2258 28.1135C80.6643 28.8871 79.9906 29.8228 79.2296 30.9456C79.1173 31.819 79.0549 32.4303 79.0549 32.7921C79.0549 33.0916 79.0923 33.3037 79.1547 33.4409C79.2171 33.5781 79.3419 33.6405 79.4916 33.6405C79.6163 33.6405 79.766 33.5906 79.9282 33.4783C80.0904 33.366 80.2651 33.2038 80.4522 32.9793L80.8515 33.3536C80.4647 33.7653 80.1403 34.0522 79.8534 34.2019C79.5664 34.3517 79.2795 34.4265 78.98 34.4265C78.3687 34.4265 78.0693 33.9774 78.0693 33.0916C78.0693 32.8919 78.0818 32.6798 78.1067 32.4428H78.0443C77.5702 33.1415 77.1336 33.653 76.7094 33.9649C76.2852 34.2768 75.836 34.4265 75.3619 34.4265C75.0251 34.4265 74.7506 34.3267 74.5136 34.1396C74.289 33.9524 74.1143 33.6904 74.002 33.3785C73.8897 33.0666 73.8398 32.7173 73.8398 32.343C73.8398 31.5196 73.9896 30.746 74.3015 30.0224C74.6134 29.2863 75.05 28.7124 75.599 28.3007C76.1479 27.8765 76.7718 27.6769 77.4579 27.6769C77.9695 27.6769 78.3687 27.8391 78.6557 28.151C78.9426 28.4754 79.1048 28.937 79.1422 29.5608H79.2046L80.1029 27.7892H81.2881L81.2258 28.1385V28.1135ZM78.2439 30.9956C78.3188 30.5215 78.3562 30.0973 78.3562 29.7355C78.3562 29.2115 78.2814 28.8247 78.1317 28.5752C77.9819 28.3256 77.7449 28.2009 77.4205 28.2009C76.9963 28.2009 76.6096 28.388 76.2478 28.7623C75.8859 29.1366 75.599 29.6481 75.3869 30.2844C75.1748 30.9207 75.0625 31.5819 75.0625 32.2556C75.0625 32.7173 75.1249 33.0541 75.2621 33.2787C75.3994 33.5033 75.599 33.6156 75.8735 33.6156C76.2602 33.6156 76.6719 33.391 77.0837 32.9294C77.4954 32.4677 77.8821 31.8315 78.2439 31.008V30.9956Z" fill="black"/>
<path d="M121.163 29.8478H129.822L128.25 27.8516L128.649 27.4773L131.344 30.0848V30.5215L128.649 33.129L128.25 32.7547L129.822 30.7585H121.163V29.8478ZM143.458 28.1136C142.897 28.8871 142.223 29.8228 141.462 30.9457C141.35 31.819 141.287 32.4303 141.287 32.7922C141.287 33.0916 141.325 33.3037 141.387 33.4409C141.449 33.5782 141.574 33.6405 141.724 33.6405C141.849 33.6405 141.998 33.5906 142.161 33.4784C142.323 33.3661 142.497 33.2039 142.685 32.9793L143.084 33.3536C142.697 33.7653 142.373 34.0523 142.086 34.202C141.799 34.3517 141.512 34.4265 141.212 34.4265C140.601 34.4265 140.302 33.9774 140.302 33.0916C140.302 32.892 140.314 32.6799 140.339 32.4428H140.277C139.803 33.1415 139.366 33.653 138.942 33.9649C138.517 34.2768 138.068 34.4265 137.594 34.4265C137.257 34.4265 136.983 34.3267 136.746 34.1396C136.521 33.9524 136.347 33.6904 136.234 33.3785C136.122 33.0666 136.072 32.7173 136.072 32.343C136.072 31.5196 136.222 30.7461 136.534 30.0224C136.846 29.2863 137.282 28.7124 137.831 28.3007C138.38 27.8765 139.004 27.6769 139.69 27.6769C140.202 27.6769 140.601 27.8391 140.888 28.151C141.175 28.4754 141.337 28.937 141.375 29.5608H141.437L142.335 27.7892H143.52L143.458 28.1385V28.1136ZM140.476 30.9956C140.551 30.5215 140.589 30.0973 140.589 29.7355C140.589 29.2115 140.514 28.8247 140.364 28.5752C140.214 28.3257 139.977 28.2009 139.653 28.2009C139.229 28.2009 138.842 28.3881 138.48 28.7623C138.118 29.1366 137.831 29.6482 137.619 30.2844C137.407 30.9207 137.295 31.582 137.295 32.2557C137.295 32.7173 137.357 33.0542 137.494 33.2787C137.632 33.5033 137.831 33.6156 138.106 33.6156C138.493 33.6156 138.904 33.391 139.316 32.9294C139.728 32.4678 140.114 31.8315 140.476 31.0081V30.9956Z" fill="black"/>
<path d="M149.347 29.985V29.0118H155.41V29.985H149.347ZM149.347 32.58V31.6069H155.41V32.58H149.347Z" fill="black"/>
<path d="M165.304 25.0569V34.3142H164.219V26.2546L161.836 27.8266L161.349 27.0156L164.294 25.0569H165.304Z" fill="black"/>
<path d="M15.9262 58.6429H10V57.7321L12.7073 54.8875C13.1814 54.4009 13.5183 54.0267 13.7304 53.7771C13.9425 53.5276 14.1421 53.2282 14.3168 52.8788C14.4914 52.5295 14.5788 52.1802 14.5788 51.8433C14.5788 51.2445 14.4166 50.8203 14.0922 50.5832C13.7678 50.3462 13.2563 50.2214 12.5576 50.2214C11.9463 50.2214 11.2726 50.2963 10.524 50.4585L10.1622 50.5333L10.0749 49.635C10.9607 49.3855 11.8839 49.2607 12.8321 49.2607C13.7803 49.2607 14.4914 49.4604 14.978 49.8596C15.4646 50.2588 15.7016 50.8826 15.7016 51.7435C15.7016 52.4047 15.5519 52.9662 15.265 53.4527C14.978 53.9393 14.479 54.5257 13.7678 55.2119L11.2975 57.7196H15.9387V58.6553L15.9262 58.6429Z" fill="black"/>
<path d="M21.241 54.3136V53.3405H27.3044V54.3136H21.241ZM21.241 56.9087V55.9355H27.3044V56.9087H21.241Z" fill="black"/>
<path d="M37.1981 49.3855V58.6429H36.1127V50.5832L33.7297 52.1552L33.2432 51.3443L36.1876 49.373H37.1981V49.3855Z" fill="black"/>
<path d="M46.4429 55.5986V54.6504H52.4564V55.5986H46.4429Z" fill="black"/>
<path d="M63.6726 58.6428V56.8338H59.1812V55.9979L61.8261 49.3855H62.9989L60.3165 55.8856H63.6726V52.9911H64.758V55.8856H65.9433V56.8338H64.758V58.6428H63.6726Z" fill="black"/>
<path d="M75.2028 52.4422C74.6414 53.2157 73.9677 54.1514 73.2066 55.2743C73.0943 56.1476 73.032 56.7589 73.032 57.1207C73.032 57.4202 73.0694 57.6323 73.1318 57.7695C73.1941 57.9067 73.3189 57.9691 73.4686 57.9691C73.5934 57.9691 73.7431 57.9192 73.9053 57.8069C74.0675 57.6946 74.2421 57.5325 74.4293 57.3079L74.8285 57.6822C74.4418 58.0939 74.1174 58.3808 73.8304 58.5306C73.5435 58.6803 73.2565 58.7551 72.9571 58.7551C72.3458 58.7551 72.0463 58.306 72.0463 57.4202C72.0463 57.2205 72.0588 57.0085 72.0838 56.7714H72.0214C71.5473 57.4701 71.1106 57.9816 70.6864 58.2935C70.2622 58.6054 69.8131 58.7551 69.339 58.7551C69.0021 58.7551 68.7277 58.6553 68.4906 58.4682C68.266 58.281 68.0914 58.019 67.9791 57.7071C67.8668 57.3952 67.8169 57.0459 67.8169 56.6716C67.8169 55.8482 67.9666 55.0746 68.2785 54.351C68.5904 53.6149 69.0271 53.041 69.576 52.6293C70.125 52.2051 70.7488 52.0055 71.435 52.0055C71.9465 52.0055 72.3458 52.1677 72.6327 52.4796C72.9197 52.804 73.0819 53.2656 73.1193 53.8894H73.1817L74.08 52.1178H75.2652L75.2028 52.4671V52.4422ZM72.221 55.3242C72.2959 54.8501 72.3333 54.4259 72.3333 54.0641C72.3333 53.5401 72.2584 53.1533 72.1087 52.9038C71.959 52.6543 71.7219 52.5295 71.3976 52.5295C70.9734 52.5295 70.5866 52.7166 70.2248 53.0909C69.863 53.4652 69.576 53.9767 69.3639 54.613C69.1518 55.2493 69.0396 55.9105 69.0396 56.5843C69.0396 57.0459 69.1019 57.3827 69.2392 57.6073C69.3764 57.8319 69.576 57.9442 69.8505 57.9442C70.2373 57.9442 70.649 57.7196 71.0607 57.258C71.4724 56.7964 71.8592 56.1601 72.221 55.3366V55.3242Z" fill="black"/>
<path d="M109.935 54.1764H118.593L117.021 52.1802L117.42 51.8059L120.115 54.4134V54.8501L117.42 57.4576L117.021 57.0833L118.593 55.0871H109.935V54.1764ZM132.23 52.4422C131.668 53.2157 130.994 54.1514 130.233 55.2743C130.121 56.1476 130.059 56.759 130.059 57.1208C130.059 57.4202 130.096 57.6323 130.159 57.7695C130.221 57.9068 130.346 57.9692 130.495 57.9692C130.62 57.9692 130.77 57.9192 130.932 57.807C131.094 57.6947 131.269 57.5325 131.456 57.3079L131.855 57.6822C131.469 58.0939 131.144 58.3809 130.857 58.5306C130.57 58.6803 130.283 58.7552 129.984 58.7552C129.373 58.7552 129.073 58.306 129.073 57.4202C129.073 57.2206 129.086 57.0085 129.111 56.7714H129.048C128.574 57.4701 128.137 57.9816 127.713 58.2935C127.289 58.6054 126.84 58.7552 126.366 58.7552C126.029 58.7552 125.754 58.6553 125.517 58.4682C125.293 58.2811 125.118 58.0191 125.006 57.7072C124.894 57.3952 124.844 57.0459 124.844 56.6716C124.844 55.8482 124.993 55.0747 125.305 54.3511C125.617 53.615 126.054 53.0411 126.603 52.6293C127.152 52.2051 127.776 52.0055 128.462 52.0055C128.973 52.0055 129.373 52.1677 129.659 52.4796C129.946 52.804 130.109 53.2656 130.146 53.8894H130.208L131.107 52.1178H132.292L132.23 52.4671V52.4422ZM129.248 55.3242C129.323 54.8501 129.36 54.4259 129.36 54.0641C129.36 53.5401 129.285 53.1533 129.135 52.9038C128.986 52.6543 128.749 52.5295 128.424 52.5295C128 52.5295 127.613 52.7167 127.252 53.091C126.89 53.4652 126.603 53.9768 126.391 54.6131C126.179 55.2493 126.066 55.9106 126.066 56.5843C126.066 57.0459 126.129 57.3828 126.266 57.6073C126.403 57.8319 126.603 57.9442 126.877 57.9442C127.264 57.9442 127.676 57.7196 128.087 57.258C128.499 56.7964 128.886 56.1601 129.248 55.3367V55.3242Z" fill="black"/>
<path d="M137.195 54.3136V53.3405H143.259V54.3136H137.195ZM137.195 56.9087V55.9355H143.259V56.9087H137.195Z" fill="black"/>
<path d="M148 55.5986V54.6504H154.014V55.5986H148Z" fill="black"/>
<path d="M165.897 39.0927V48.35H164.811V40.2904L162.428 41.8624L161.942 41.0514L164.886 39.0927H165.897Z" fill="black"/>
<path d="M165.486 67.9999V66.1909H160.994V65.3425L163.639 58.7301H164.812L162.129 65.2302H165.486V62.3357H166.571V65.2302H167.756V66.1909H166.571V67.9999H165.486Z" fill="black"/>
<path d="M167.893 53.9768H160.407V54.9125H167.893V53.9768Z" fill="black"/>
<path d="M3.40527 56.3896V60.4883C3.40527 63.4284 3.63879 65.5995 4.11555 67.0111C4.59231 68.4228 5.35124 69.2503 6.39233 69.4937V70C4.9134 69.7468 3.86257 68.8609 3.23013 67.3616C2.5977 65.8623 2.27661 63.6329 2.27661 60.6635V56.3799H3.39554L3.40527 56.3896Z" fill="black"/>
<path d="M3.40531 44.9698V58.3368H2.28638V44.9698H3.40531Z" fill="black"/>
<path d="M1.11893 34.9228C1.62488 35.137 2.11137 35.6919 2.59787 36.5876C3.08436 37.4832 3.34706 38.9728 3.40544 41.0562V47.3941H2.28651V40.1216C2.28651 38.5055 2.08218 37.2983 1.68326 36.4707C1.28434 35.6432 0.720008 35.2246 0 35.1954V34.5528C0.710278 34.5236 1.26488 34.0952 1.67353 33.2775C2.08218 32.4499 2.28651 31.2232 2.28651 29.5877V22.3152H3.40544V28.6531C3.40544 30.6391 3.15247 32.1092 2.64651 33.0535C2.14056 33.9979 1.63461 34.5723 1.11893 34.7865V34.9228Z" fill="black"/>
<path d="M3.40531 11.3821V24.749H2.28638V11.3821H3.40531Z" fill="black"/>
<path d="M2.28638 13.7965V9.51282C2.28638 6.5532 2.60746 4.32375 3.2399 2.81474C3.87234 1.31546 4.92316 0.439252 6.4021 0.176392V0.682642C5.361 0.926032 4.60208 1.75356 4.12532 3.16522C3.64855 4.57688 3.41504 6.74791 3.41504 9.68806V13.7867H2.29611L2.28638 13.7965Z" fill="black"/>
</svg>
