<svg width="376" height="279" viewBox="0 0 376 279" fill="none" xmlns="http://www.w3.org/2000/svg">
<path d="M255.295 90.0938V99H253.488V88.4336H255.246L255.295 90.0938ZM258.596 88.375L258.586 90.0547C258.436 90.0221 258.293 90.0026 258.156 89.9961C258.026 89.9831 257.876 89.9766 257.707 89.9766C257.29 89.9766 256.923 90.0417 256.604 90.1719C256.285 90.3021 256.014 90.4844 255.793 90.7188C255.572 90.9531 255.396 91.2331 255.266 91.5586C255.142 91.8776 255.061 92.2292 255.021 92.6133L254.514 92.9062C254.514 92.2682 254.576 91.6693 254.699 91.1094C254.829 90.5495 255.028 90.0547 255.295 89.625C255.562 89.1888 255.9 88.8503 256.311 88.6094C256.727 88.362 257.222 88.2383 257.795 88.2383C257.925 88.2383 258.075 88.2546 258.244 88.2871C258.413 88.3132 258.531 88.3424 258.596 88.375Z" fill="#354551"/>
<path d="M110.863 29.6973C110.863 29.4368 110.805 29.196 110.688 28.9746C110.577 28.7467 110.346 28.5417 109.994 28.3594C109.649 28.1706 109.128 28.0078 108.432 27.8711C107.846 27.7474 107.315 27.6009 106.84 27.4316C106.371 27.2624 105.971 27.0573 105.639 26.8164C105.313 26.5755 105.062 26.2923 104.887 25.9668C104.711 25.6413 104.623 25.2604 104.623 24.8242C104.623 24.4076 104.714 24.0137 104.896 23.6426C105.085 23.2715 105.349 22.9427 105.688 22.6562C106.033 22.3698 106.446 22.1452 106.928 21.9824C107.41 21.8197 107.947 21.7383 108.539 21.7383C109.385 21.7383 110.108 21.888 110.707 22.1875C111.306 22.487 111.765 22.8874 112.084 23.3887C112.403 23.8835 112.562 24.4336 112.562 25.0391H110.756C110.756 24.7461 110.668 24.4629 110.492 24.1895C110.323 23.9095 110.072 23.6784 109.74 23.4961C109.415 23.3138 109.014 23.2227 108.539 23.2227C108.038 23.2227 107.631 23.3008 107.318 23.457C107.012 23.6068 106.788 23.7988 106.645 24.0332C106.508 24.2676 106.439 24.515 106.439 24.7754C106.439 24.9707 106.472 25.1465 106.537 25.3027C106.609 25.4525 106.732 25.5924 106.908 25.7227C107.084 25.8464 107.331 25.9635 107.65 26.0742C107.969 26.1849 108.376 26.2956 108.871 26.4062C109.737 26.6016 110.45 26.8359 111.01 27.1094C111.57 27.3828 111.986 27.7181 112.26 28.1152C112.533 28.5124 112.67 28.9941 112.67 29.5605C112.67 30.0228 112.572 30.446 112.377 30.8301C112.188 31.2142 111.911 31.5462 111.547 31.8262C111.189 32.0996 110.759 32.3145 110.258 32.4707C109.763 32.6204 109.206 32.6953 108.588 32.6953C107.657 32.6953 106.869 32.5293 106.225 32.1973C105.58 31.8652 105.092 31.4355 104.76 30.9082C104.428 30.3809 104.262 29.8242 104.262 29.2383H106.078C106.104 29.7331 106.247 30.127 106.508 30.4199C106.768 30.7064 107.087 30.9115 107.465 31.0352C107.842 31.1523 108.217 31.2109 108.588 31.2109C109.083 31.2109 109.496 31.1458 109.828 31.0156C110.167 30.8854 110.424 30.7064 110.6 30.4785C110.775 30.2507 110.863 29.9902 110.863 29.6973Z" fill="#354551"/>
<path d="M110.77 141.316V141.219C110.77 139.799 110.929 138.517 111.248 137.371C111.567 136.219 111.974 135.21 112.469 134.344C112.964 133.478 113.484 132.762 114.031 132.195C114.578 131.622 115.083 131.209 115.545 130.955L115.926 132.146C115.542 132.439 115.151 132.843 114.754 133.357C114.363 133.872 114.002 134.503 113.67 135.252C113.344 136.001 113.081 136.87 112.879 137.859C112.677 138.849 112.576 139.962 112.576 141.199V141.336C112.576 142.573 112.677 143.689 112.879 144.686C113.081 145.675 113.344 146.548 113.67 147.303C114.002 148.058 114.363 148.699 114.754 149.227C115.151 149.76 115.542 150.184 115.926 150.496L115.545 151.59C115.083 151.336 114.578 150.923 114.031 150.35C113.484 149.783 112.964 149.067 112.469 148.201C111.974 147.342 111.567 146.336 111.248 145.184C110.929 144.031 110.77 142.742 110.77 141.316ZM126.424 138.758V140.926C126.424 142.091 126.32 143.074 126.111 143.875C125.903 144.676 125.604 145.32 125.213 145.809C124.822 146.297 124.35 146.652 123.797 146.873C123.25 147.088 122.632 147.195 121.941 147.195C121.395 147.195 120.89 147.127 120.428 146.99C119.965 146.854 119.549 146.635 119.178 146.336C118.813 146.03 118.501 145.633 118.24 145.145C117.98 144.656 117.781 144.064 117.645 143.367C117.508 142.671 117.439 141.857 117.439 140.926V138.758C117.439 137.592 117.544 136.616 117.752 135.828C117.967 135.04 118.27 134.409 118.66 133.934C119.051 133.452 119.52 133.107 120.066 132.898C120.62 132.69 121.238 132.586 121.922 132.586C122.475 132.586 122.983 132.654 123.445 132.791C123.914 132.921 124.331 133.133 124.695 133.426C125.06 133.712 125.369 134.096 125.623 134.578C125.883 135.053 126.082 135.636 126.219 136.326C126.355 137.016 126.424 137.827 126.424 138.758ZM124.607 141.219V138.455C124.607 137.817 124.568 137.257 124.49 136.775C124.419 136.287 124.311 135.87 124.168 135.525C124.025 135.18 123.842 134.9 123.621 134.686C123.406 134.471 123.156 134.314 122.869 134.217C122.589 134.113 122.273 134.061 121.922 134.061C121.492 134.061 121.111 134.142 120.779 134.305C120.447 134.461 120.167 134.712 119.939 135.057C119.718 135.402 119.549 135.854 119.432 136.414C119.314 136.974 119.256 137.654 119.256 138.455V141.219C119.256 141.857 119.292 142.42 119.363 142.908C119.441 143.396 119.555 143.82 119.705 144.178C119.855 144.529 120.037 144.819 120.252 145.047C120.467 145.275 120.714 145.444 120.994 145.555C121.281 145.659 121.596 145.711 121.941 145.711C122.384 145.711 122.771 145.626 123.104 145.457C123.436 145.288 123.712 145.024 123.934 144.666C124.161 144.301 124.331 143.836 124.441 143.27C124.552 142.697 124.607 142.013 124.607 141.219ZM133.104 141.219V141.316C133.104 142.742 132.944 144.031 132.625 145.184C132.306 146.336 131.899 147.342 131.404 148.201C130.91 149.067 130.389 149.783 129.842 150.35C129.295 150.923 128.79 151.336 128.328 151.59L127.947 150.496C128.331 150.203 128.719 149.793 129.109 149.266C129.5 148.745 129.861 148.1 130.193 147.332C130.525 146.57 130.792 145.691 130.994 144.695C131.196 143.693 131.297 142.573 131.297 141.336V141.199C131.297 139.962 131.189 138.846 130.975 137.85C130.76 136.847 130.48 135.965 130.135 135.203C129.796 134.441 129.432 133.8 129.041 133.279C128.657 132.752 128.292 132.345 127.947 132.059L128.328 130.955C128.79 131.209 129.295 131.622 129.842 132.195C130.389 132.762 130.91 133.478 131.404 134.344C131.899 135.21 132.306 136.219 132.625 137.371C132.944 138.517 133.104 139.799 133.104 141.219Z" fill="#354551"/>
<path d="M371 57.5H80.5L5 200.5H299L371 57.5Z" stroke="#6547BA" stroke-width="5"/>
<path d="M81.5 2L138.5 126.5" stroke="#6547BA" stroke-width="5" stroke-miterlimit="5.71073"/>
<path d="M170 200.5L204 277" stroke="#6547BA" stroke-width="5"/>
<path d="M149 158L313 87" stroke="#6547BA" stroke-width="5"/>
<path d="M320.74 81.8164V81.7188C320.74 80.2995 320.9 79.0169 321.219 77.8711C321.538 76.7188 321.945 75.7096 322.439 74.8438C322.934 73.9779 323.455 73.2617 324.002 72.6953C324.549 72.1224 325.053 71.709 325.516 71.4551L325.896 72.6465C325.512 72.9395 325.122 73.3431 324.725 73.8574C324.334 74.3717 323.973 75.0033 323.641 75.752C323.315 76.5007 323.051 77.3698 322.85 78.3594C322.648 79.349 322.547 80.4622 322.547 81.6992V81.8359C322.547 83.0729 322.648 84.1895 322.85 85.1855C323.051 86.1751 323.315 87.0475 323.641 87.8027C323.973 88.5579 324.334 89.1992 324.725 89.7266C325.122 90.2604 325.512 90.6836 325.896 90.9961L325.516 92.0898C325.053 91.8359 324.549 91.4225 324.002 90.8496C323.455 90.2832 322.934 89.5671 322.439 88.7012C321.945 87.8418 321.538 86.8359 321.219 85.6836C320.9 84.5312 320.74 83.2422 320.74 81.8164ZM327.264 82.6074V82.4023C327.264 81.569 327.355 80.8073 327.537 80.1172C327.719 79.4271 327.983 78.8314 328.328 78.3301C328.68 77.8223 329.113 77.4316 329.627 77.1582C330.141 76.8783 330.73 76.7383 331.395 76.7383C331.902 76.7383 332.358 76.8132 332.762 76.9629C333.172 77.1126 333.533 77.334 333.846 77.627C334.158 77.9134 334.425 78.265 334.646 78.6816C334.868 79.0918 335.047 79.5605 335.184 80.0879C335.32 80.6152 335.418 81.1947 335.477 81.8262V82.6367C335.405 83.418 335.271 84.1211 335.076 84.7461C334.881 85.3646 334.617 85.8952 334.285 86.3379C333.953 86.7806 333.546 87.1191 333.064 87.3535C332.583 87.5879 332.02 87.7051 331.375 87.7051C330.724 87.7051 330.141 87.5814 329.627 87.334C329.119 87.0801 328.689 86.7253 328.338 86.2695C327.986 85.8138 327.719 85.2767 327.537 84.6582C327.355 84.0332 327.264 83.3496 327.264 82.6074ZM329.08 82.4023V82.6074C329.08 83.1087 329.132 83.5775 329.236 84.0137C329.34 84.4499 329.5 84.834 329.715 85.166C329.936 85.498 330.219 85.7585 330.564 85.9473C330.916 86.1296 331.336 86.2207 331.824 86.2207C332.299 86.2207 332.706 86.123 333.045 85.9277C333.383 85.7324 333.667 85.4688 333.895 85.1367C334.129 84.7982 334.321 84.4141 334.471 83.9844C334.627 83.5547 334.757 83.1087 334.861 82.6465V82.002C334.783 81.5267 334.669 81.0645 334.52 80.6152C334.376 80.166 334.184 79.7624 333.943 79.4043C333.709 79.0397 333.419 78.7533 333.074 78.5449C332.729 78.3301 332.319 78.2227 331.844 78.2227C331.349 78.2227 330.926 78.3333 330.574 78.5547C330.229 78.776 329.946 79.0788 329.725 79.4629C329.503 79.847 329.34 80.293 329.236 80.8008C329.132 81.3021 329.08 81.8359 329.08 82.4023ZM334.588 76.9336H336.121V84.6191C336.121 84.9186 336.141 85.1628 336.18 85.3516C336.219 85.5404 336.274 85.6901 336.346 85.8008C336.424 85.9049 336.508 85.9798 336.6 86.0254C336.697 86.0645 336.798 86.084 336.902 86.084C336.967 86.084 337.026 86.0775 337.078 86.0645C337.137 86.0514 337.189 86.0384 337.234 86.0254L337.459 87.373C337.257 87.5163 337.059 87.6074 336.863 87.6465C336.668 87.6855 336.466 87.7051 336.258 87.7051C335.952 87.7051 335.678 87.6465 335.438 87.5293C335.197 87.4186 334.992 87.2428 334.822 87.002C334.653 86.7546 334.523 86.4355 334.432 86.0449C334.347 85.6478 334.305 85.1725 334.305 84.6191V79.2285L334.588 76.9336ZM343.133 81.7188V81.8164C343.133 83.2422 342.973 84.5312 342.654 85.6836C342.335 86.8359 341.928 87.8418 341.434 88.7012C340.939 89.5671 340.418 90.2832 339.871 90.8496C339.324 91.4225 338.82 91.8359 338.357 92.0898L337.977 90.9961C338.361 90.7031 338.748 90.293 339.139 89.7656C339.529 89.2448 339.891 88.6003 340.223 87.832C340.555 87.0703 340.822 86.1914 341.023 85.1953C341.225 84.1927 341.326 83.0729 341.326 81.8359V81.6992C341.326 80.4622 341.219 79.3457 341.004 78.3496C340.789 77.347 340.509 76.4648 340.164 75.7031C339.826 74.9414 339.461 74.3001 339.07 73.7793C338.686 73.252 338.322 72.8451 337.977 72.5586L338.357 71.4551C338.82 71.709 339.324 72.1224 339.871 72.6953C340.418 73.2617 340.939 73.9779 341.434 74.8438C341.928 75.7096 342.335 76.7188 342.654 77.8711C342.973 79.0169 343.133 80.2995 343.133 81.7188Z" fill="black"/>
</svg>
