<svg width="163" height="99" viewBox="0 0 163 99" fill="none" xmlns="http://www.w3.org/2000/svg">
<g id="Camada_1" clip-path="url(#clip0_16_243)">
<path id="Vector" d="M4.5314 76.977V82.4309C4.5314 86.3432 4.84213 89.2321 5.47654 91.1106C6.11094 92.989 7.12081 94.0902 8.50615 94.414V95.0877C6.5382 94.7509 5.13991 93.572 4.29835 91.5769C3.45679 89.5819 3.02954 86.6153 3.02954 82.6641V76.964H4.51845L4.5314 76.977Z" fill="black"/>
<path id="Vector_2" d="M4.53139 61.7811V79.5679H3.04248V61.7811H4.53139Z" fill="black"/>
<path id="Vector_3" d="M1.48891 48.4118C2.16216 48.6968 2.80951 49.4352 3.45687 50.6271C4.10422 51.8189 4.45379 53.801 4.53147 56.5733V65.0068H3.04256V55.3296C3.04256 53.1791 2.77067 51.5728 2.23984 50.4716C1.70901 49.3705 0.958083 48.8134 0 48.7745V47.9195C0.945136 47.8807 1.68312 47.3107 2.2269 46.2225C2.77067 45.1213 3.04256 43.489 3.04256 41.3126V31.6354H4.53147V40.069C4.53147 42.7117 4.19485 44.6679 3.5216 45.9245C2.84835 47.1811 2.17511 47.9454 1.48891 48.2304V48.4118Z" fill="black"/>
<path id="Vector_4" d="M4.53139 17.0873V34.8741H3.04248V17.0873H4.53139Z" fill="black"/>
<path id="Vector_5" d="M3.04248 20.3001V14.6C3.04248 10.6617 3.46973 7.69511 4.31129 5.68713C5.15285 3.6921 6.55114 2.52617 8.51909 2.1764V2.85004C7.13375 3.17391 6.12388 4.27506 5.48948 6.1535C4.85507 8.03193 4.54434 10.9208 4.54434 14.8332V20.2871H3.05543L3.04248 20.3001Z" fill="black"/>
<g id="Group">
<path id="Vector_6" d="M14.1772 10.6876V20.3001H13.0508V11.9313L10.5779 13.5636L10.073 12.7215L13.1285 10.6876H14.1772Z" fill="black"/>
<path id="Vector_7" d="M21.1814 15.7918V14.7813H27.4737V15.7918H21.1814ZM21.1814 18.4993V17.4889H27.4737V18.4993H21.1814Z" fill="black"/>
<path id="Vector_8" d="M39.2299 20.3001H33.0801V19.3544L35.8896 16.4007C36.3816 15.8954 36.7312 15.5068 36.9513 15.2477C37.1714 14.9886 37.3785 14.6777 37.5598 14.315C37.741 13.9522 37.8317 13.5895 37.8317 13.2397C37.8317 12.6179 37.6633 12.1774 37.3267 11.9313C36.9901 11.6852 36.4593 11.5556 35.7342 11.5556C35.0998 11.5556 34.4007 11.6333 33.6239 11.8018L33.2484 11.8795L33.1578 10.9467C34.077 10.6876 35.0351 10.5581 36.0191 10.5581C37.003 10.5581 37.741 10.7654 38.246 11.1799C38.7509 11.5945 38.9969 12.2422 38.9969 13.1361C38.9969 13.8227 38.8415 14.4057 38.5437 14.9109C38.246 15.4161 37.7281 16.025 36.9901 16.7375L34.4266 19.3414H39.2429V20.313L39.2299 20.3001Z" fill="black"/>
</g>
<path id="Vector_9" d="M47.3345 17.1391V16.1545H53.575V17.1391H47.3345Z" fill="black"/>
<path id="Vector_10" d="M67.1176 20.3001H60.9678V19.3544L63.7773 16.4007C64.2693 15.8954 64.6188 15.5068 64.8389 15.2477C65.059 14.9886 65.2662 14.6777 65.4475 14.315C65.6287 13.9522 65.7193 13.5895 65.7193 13.2397C65.7193 12.6179 65.551 12.1774 65.2144 11.9313C64.8778 11.6852 64.347 11.5556 63.6219 11.5556C62.9875 11.5556 62.2884 11.6333 61.5115 11.8018L61.1361 11.8795L61.0455 10.9467C61.9647 10.6876 62.9228 10.5581 63.9068 10.5581C64.8907 10.5581 65.6287 10.7654 66.1337 11.1799C66.6386 11.5945 66.8846 12.2422 66.8846 13.1361C66.8846 13.8227 66.7292 14.4057 66.4314 14.9109C66.1337 15.4161 65.6158 16.025 64.8778 16.7375L62.3143 19.3414H67.1306V20.313L67.1176 20.3001Z" fill="black"/>
<path id="Vector_11" d="M77.4362 13.8616C76.8535 14.6647 76.1544 15.6364 75.3646 16.8023C75.2481 17.7091 75.1834 18.3439 75.1834 18.7196C75.1834 19.0305 75.2222 19.2507 75.2869 19.3932C75.3517 19.5357 75.4811 19.6005 75.6365 19.6005C75.766 19.6005 75.9213 19.5487 76.0897 19.4321C76.258 19.3155 76.4392 19.1471 76.6334 18.9139L77.0477 19.3025C76.6464 19.73 76.3098 20.028 76.012 20.1835C75.7142 20.3389 75.4164 20.4166 75.1057 20.4166C74.4713 20.4166 74.1605 19.9503 74.1605 19.0305C74.1605 18.8232 74.1735 18.603 74.1994 18.3568H74.1346C73.6427 19.0823 73.1895 19.6135 72.7493 19.9373C72.3091 20.2612 71.843 20.4166 71.351 20.4166C71.0015 20.4166 70.7166 20.313 70.4706 20.1187C70.2376 19.9244 70.0563 19.6523 69.9398 19.3285C69.8233 19.0046 69.7715 18.6419 69.7715 18.2532C69.7715 17.3982 69.9268 16.595 70.2505 15.8436C70.5742 15.0793 71.0273 14.4834 71.597 14.0559C72.1667 13.6154 72.814 13.4081 73.5261 13.4081C74.057 13.4081 74.4713 13.5766 74.7691 13.9004C75.0668 14.2372 75.2351 14.7166 75.274 15.3643H75.3387L76.2709 13.5247H77.5009L77.4362 13.8875V13.8616ZM74.3418 16.8541C74.4195 16.3618 74.4583 15.9214 74.4583 15.5457C74.4583 15.0016 74.3806 14.6 74.2253 14.3409C74.0699 14.0818 73.8239 13.9522 73.4873 13.9522C73.0471 13.9522 72.6457 14.1466 72.2703 14.5352C71.8948 14.9238 71.597 15.455 71.3769 16.1157C71.1568 16.7764 71.0403 17.463 71.0403 18.1625C71.0403 18.6419 71.105 18.9916 71.2474 19.2248C71.3899 19.458 71.597 19.5746 71.8819 19.5746C72.2832 19.5746 72.7105 19.3414 73.1377 18.8621C73.565 18.3828 73.9663 17.7221 74.3418 16.8671V16.8541Z" fill="black"/>
<path id="Vector_12" d="M113.222 15.6623H122.207L120.576 13.5895L120.99 13.2009L123.787 15.9084V16.3618L120.99 19.0694L120.576 18.6807L122.207 16.608H113.222V15.6623ZM136.359 13.8616C135.776 14.6647 135.077 15.6364 134.287 16.8023C134.171 17.7091 134.106 18.3439 134.106 18.7196C134.106 19.0305 134.145 19.2507 134.209 19.3932C134.274 19.5357 134.404 19.6005 134.559 19.6005C134.688 19.6005 134.844 19.5487 135.012 19.4321C135.18 19.3155 135.362 19.1471 135.556 18.9139L135.97 19.3025C135.569 19.73 135.232 20.028 134.934 20.1835C134.637 20.3389 134.339 20.4166 134.028 20.4166C133.394 20.4166 133.083 19.9503 133.083 19.0305C133.083 18.8232 133.096 18.603 133.122 18.3568H133.057C132.565 19.0823 132.112 19.6135 131.672 19.9373C131.232 20.2612 130.765 20.4166 130.273 20.4166C129.924 20.4166 129.639 20.313 129.393 20.1187C129.16 19.9244 128.979 19.6523 128.862 19.3284C128.746 19.0046 128.694 18.6418 128.694 18.2532C128.694 17.3982 128.849 16.595 129.173 15.8436C129.497 15.0793 129.95 14.4834 130.519 14.0559C131.089 13.6154 131.736 13.4081 132.449 13.4081C132.979 13.4081 133.394 13.5765 133.691 13.9004C133.989 14.2372 134.158 14.7166 134.196 15.3643H134.261L135.193 13.5247H136.423L136.359 13.8875V13.8616ZM133.264 16.8541C133.342 16.3618 133.381 15.9214 133.381 15.5457C133.381 15.0016 133.303 14.6 133.148 14.3409C132.992 14.0818 132.746 13.9522 132.41 13.9522C131.97 13.9522 131.568 14.1466 131.193 14.5352C130.817 14.9238 130.519 15.455 130.299 16.1157C130.079 16.7764 129.963 17.463 129.963 18.1625C129.963 18.6418 130.027 18.9916 130.17 19.2248C130.312 19.458 130.519 19.5746 130.804 19.5746C131.206 19.5746 131.633 19.3414 132.06 18.8621C132.487 18.3828 132.889 17.7221 133.264 16.8671V16.8541Z" fill="black"/>
<path id="Vector_13" d="M141.511 15.7918V14.7813H147.804V15.7918H141.511ZM141.511 18.4993V17.4889H147.804V18.4993H141.511Z" fill="black"/>
<path id="Vector_14" d="M160.802 0V9.61241H159.676V1.25661L157.203 2.8889L156.698 2.04685L159.754 0.0129547H160.802V0Z" fill="black"/>
<path id="Vector_15" d="M162.291 30.0161H156.142V29.0704L158.951 26.1167C159.443 25.6115 159.793 25.2228 160.013 24.9638C160.233 24.7047 160.44 24.3937 160.621 24.031C160.803 23.6683 160.893 23.3055 160.893 22.9558C160.893 22.3339 160.725 21.8935 160.388 21.6473C160.052 21.4012 159.521 21.2717 158.796 21.2717C158.161 21.2717 157.462 21.3494 156.685 21.5178L156.31 21.5955L156.219 20.6628C157.139 20.4037 158.097 20.2741 159.081 20.2741C160.065 20.2741 160.803 20.4814 161.307 20.896C161.812 21.3105 162.058 21.9583 162.058 22.8521C162.058 23.5387 161.903 24.1217 161.605 24.6269C161.307 25.1322 160.79 25.741 160.052 26.4535L157.488 29.0574H162.304V30.0291L162.291 30.0161Z" fill="black"/>
<path id="Vector_16" d="M162.9 15.442H155.132V16.4136H162.9V15.442Z" fill="black"/>
<g id="Group_2">
<path id="Vector_17" d="M15.666 54.3062H9.51611V53.3605L12.3256 50.4068C12.8176 49.9016 13.1672 49.513 13.3873 49.2539C13.6074 48.9948 13.8145 48.6839 13.9958 48.3211C14.1771 47.9584 14.2677 47.5957 14.2677 47.2459C14.2677 46.6241 14.0994 46.1836 13.7628 45.9375C13.4261 45.6913 12.8953 45.5618 12.1703 45.5618C11.5359 45.5618 10.8367 45.6395 10.0599 45.8079L9.68443 45.8856L9.5938 44.9529C10.513 44.6938 11.4711 44.5643 12.4551 44.5643C13.4391 44.5643 14.1771 44.7715 14.682 45.1861C15.1869 45.6006 15.4329 46.2484 15.4329 47.1422C15.4329 47.8288 15.2776 48.4118 14.9798 48.917C14.682 49.4223 14.1641 50.0311 13.4261 50.7437L10.8626 53.3476H15.6789V54.3192L15.666 54.3062Z" fill="black"/>
<path id="Vector_18" d="M21.1814 49.798V48.7875H27.4737V49.798H21.1814ZM21.1814 52.5055V51.495H27.4737V52.5055H21.1814Z" fill="black"/>
<path id="Vector_19" d="M41.612 44.6938V54.3062H40.4856V45.9375L38.0127 47.5698L37.5078 46.7277L40.5633 44.6938H41.612Z" fill="black"/>
<path id="Vector_20" d="M47.5156 51.1453V50.1607H50.2734V47.3236H51.2962V50.1607H54.0798V51.1453H51.2962V54.0212H50.2734V51.1453H47.5156Z" fill="black"/>
<path id="Vector_21" d="M64.7221 54.3062H58.5723V53.3605L61.3818 50.4068C61.8738 49.9016 62.2233 49.513 62.4434 49.2539C62.6635 48.9948 62.8707 48.6839 63.0519 48.3211C63.2332 47.9584 63.3238 47.5957 63.3238 47.2459C63.3238 46.6241 63.1555 46.1836 62.8189 45.9375C62.4823 45.6913 61.9514 45.5618 61.2264 45.5618C60.592 45.5618 59.8929 45.6395 59.116 45.8079L58.7406 45.8856L58.6499 44.9529C59.5692 44.6938 60.5273 44.5643 61.5112 44.5643C62.4952 44.5643 63.2332 44.7715 63.7381 45.1861C64.2431 45.6006 64.4891 46.2484 64.4891 47.1422C64.4891 47.8288 64.3337 48.4118 64.0359 48.917C63.7381 49.4223 63.2203 50.0311 62.4823 50.7437L59.9188 53.3476H64.7351V54.3192L64.7221 54.3062Z" fill="black"/>
</g>
<path id="Vector_22" d="M73.8761 47.8677C73.2935 48.6709 72.5943 49.6425 71.8046 50.8084C71.688 51.7153 71.6233 52.35 71.6233 52.7257C71.6233 53.0366 71.6621 53.2569 71.7269 53.3994C71.7916 53.5419 71.9211 53.6067 72.0764 53.6067C72.2059 53.6067 72.3613 53.5548 72.5296 53.4382C72.6979 53.3216 72.8792 53.1532 73.0734 52.92L73.4877 53.3087C73.0863 53.7362 72.7497 54.0342 72.4519 54.1896C72.1541 54.3451 71.8563 54.4228 71.5456 54.4228C70.9112 54.4228 70.6005 53.9564 70.6005 53.0366C70.6005 52.8294 70.6134 52.6091 70.6393 52.363H70.5746C70.0826 53.0885 69.6295 53.6196 69.1893 53.9435C68.7491 54.2673 68.283 54.4228 67.791 54.4228C67.4414 54.4228 67.1566 54.3192 66.9106 54.1248C66.6775 53.9305 66.4963 53.6585 66.3797 53.3346C66.2632 53.0107 66.2114 52.648 66.2114 52.2594C66.2114 51.4043 66.3668 50.6012 66.6905 49.8498C67.0141 49.0855 67.4673 48.4895 68.037 48.062C68.6066 47.6216 69.254 47.4143 69.9661 47.4143C70.4969 47.4143 70.9112 47.5827 71.209 47.9066C71.5068 48.2434 71.6751 48.7227 71.7139 49.3705H71.7787L72.7109 47.5309H73.9408L73.8761 47.8936V47.8677ZM70.7817 50.8602C70.8594 50.368 70.8983 49.9275 70.8983 49.5518C70.8983 49.0077 70.8206 48.6061 70.6652 48.347C70.5099 48.0879 70.2639 47.9584 69.9272 47.9584C69.487 47.9584 69.0857 48.1527 68.7102 48.5414C68.3347 48.93 68.037 49.4611 67.8169 50.1218C67.5968 50.7825 67.4802 51.4691 67.4802 52.1687C67.4802 52.648 67.545 52.9978 67.6874 53.231C67.8298 53.4641 68.037 53.5807 68.3218 53.5807C68.7232 53.5807 69.1504 53.3476 69.5777 52.8682C70.0049 52.3889 70.4063 51.7282 70.7817 50.8732V50.8602Z" fill="black"/>
<path id="Vector_23" d="M113.222 49.6684H122.207L120.576 47.5957L120.99 47.207L123.787 49.9146V50.368L120.99 53.0755L120.576 52.6869L122.207 50.6141H113.222V49.6684ZM136.359 47.8677C135.776 48.6709 135.077 49.6425 134.287 50.8084C134.171 51.7153 134.106 52.35 134.106 52.7257C134.106 53.0366 134.145 53.2569 134.209 53.3994C134.274 53.5419 134.404 53.6067 134.559 53.6067C134.688 53.6067 134.844 53.5548 135.012 53.4382C135.18 53.3216 135.362 53.1532 135.556 52.92L135.97 53.3087C135.569 53.7362 135.232 54.0342 134.934 54.1896C134.637 54.3451 134.339 54.4228 134.028 54.4228C133.394 54.4228 133.083 53.9564 133.083 53.0366C133.083 52.8294 133.096 52.6091 133.122 52.363H133.057C132.565 53.0885 132.112 53.6196 131.672 53.9435C131.232 54.2673 130.765 54.4228 130.273 54.4228C129.924 54.4228 129.639 54.3192 129.393 54.1248C129.16 53.9305 128.979 53.6585 128.862 53.3346C128.746 53.0107 128.694 52.648 128.694 52.2594C128.694 51.4043 128.849 50.6012 129.173 49.8498C129.497 49.0855 129.95 48.4895 130.519 48.062C131.089 47.6216 131.736 47.4143 132.449 47.4143C132.979 47.4143 133.394 47.5827 133.691 47.9066C133.989 48.2434 134.158 48.7227 134.196 49.3705H134.261L135.193 47.5309H136.423L136.359 47.8936V47.8677ZM133.264 50.8602C133.342 50.368 133.381 49.9275 133.381 49.5518C133.381 49.0077 133.303 48.6061 133.148 48.347C132.992 48.0879 132.746 47.9584 132.41 47.9584C131.97 47.9584 131.568 48.1527 131.193 48.5414C130.817 48.93 130.519 49.4611 130.299 50.1218C130.079 50.7825 129.963 51.4691 129.963 52.1687C129.963 52.648 130.027 52.9978 130.17 53.231C130.312 53.4641 130.519 53.5807 130.804 53.5807C131.206 53.5807 131.633 53.3476 132.06 52.8682C132.487 52.3889 132.889 51.7282 133.264 50.8732V50.8602Z" fill="black"/>
<path id="Vector_24" d="M141.511 49.798V48.7875H147.804V49.798H141.511ZM141.511 52.5055V51.495H147.804V52.5055H141.511Z" fill="black"/>
<path id="Vector_25" d="M160.802 34.0061V43.6186H159.676V35.2498L157.203 36.8821L156.698 36.04L159.754 34.0061H160.802Z" fill="black"/>
<path id="Vector_26" d="M162.291 64.0222H156.142V63.0766L158.951 60.1229C159.443 59.6176 159.793 59.229 160.013 58.9699C160.233 58.7108 160.44 58.3999 160.621 58.0372C160.803 57.6744 160.893 57.3117 160.893 56.9619C160.893 56.3401 160.725 55.8996 160.388 55.6535C160.052 55.4074 159.521 55.2778 158.796 55.2778C158.161 55.2778 157.462 55.3555 156.685 55.5239L156.31 55.6017L156.219 54.6689C157.139 54.4098 158.097 54.2803 159.081 54.2803C160.065 54.2803 160.803 54.4876 161.307 54.9021C161.812 55.3167 162.058 55.9644 162.058 56.8583C162.058 57.5449 161.903 58.1278 161.605 58.6331C161.307 59.1383 160.79 59.7472 160.052 60.4597L157.488 63.0636H162.304V64.0352L162.291 64.0222Z" fill="black"/>
<path id="Vector_27" d="M162.9 49.4482H155.132V50.4198H162.9V49.4482Z" fill="black"/>
<g id="Group_3">
<path id="Vector_28" d="M9.55476 79.9177C10.474 79.6456 11.445 79.5161 12.4937 79.5161C13.5425 79.5161 14.2934 79.7104 14.7595 80.112C15.2256 80.5136 15.4586 81.1484 15.4586 82.0164C15.4586 82.4698 15.3939 82.7807 15.2774 82.988C15.1608 83.1823 15.0573 83.3377 14.9925 83.4414C14.9148 83.545 14.8242 83.6487 14.7077 83.7523C14.4876 83.9207 14.3193 84.0373 14.2028 84.1021L14.0474 84.2057C14.6041 84.413 15.0314 84.6721 15.3033 84.983C15.5751 85.2939 15.7046 85.8121 15.7046 86.5376C15.7046 87.5221 15.4586 88.2476 14.9537 88.7269C14.4488 89.2062 13.659 89.4394 12.5844 89.4394C11.7299 89.4394 10.8236 89.3487 9.87844 89.1544L9.42529 89.0508L9.52887 88.131C10.5776 88.3512 11.5616 88.4549 12.4679 88.4549C13.8532 88.4549 14.5523 87.8201 14.5523 86.5894C14.5523 85.4364 13.892 84.8275 12.5714 84.7757H10.6294V83.8171H12.5714C12.9857 83.8171 13.3741 83.6487 13.7496 83.3248C14.1251 83.0009 14.3193 82.5734 14.3193 82.0293C14.3193 81.4852 14.1639 81.1095 13.8661 80.8763C13.5684 80.6432 13.0634 80.5136 12.3513 80.5136C11.5745 80.5136 10.8106 80.5913 10.0468 80.7338L9.67129 80.8116L9.56771 79.9177H9.55476Z" fill="black"/>
<path id="Vector_29" d="M21.1814 84.7757V83.7653H27.4737V84.7757H21.1814ZM21.1814 87.4833V86.4728H27.4737V87.4833H21.1814Z" fill="black"/>
<path id="Vector_30" d="M39.0999 80.682C38.2195 80.5654 37.3779 80.5136 36.5493 80.5136C35.7207 80.5136 35.0863 80.7986 34.6461 81.3686C34.193 81.9386 33.9729 82.7677 33.9729 83.83L34.3354 83.6875C34.5814 83.5968 34.905 83.5062 35.3064 83.4155C35.7078 83.3248 36.0703 83.273 36.381 83.273C38.5432 83.273 39.6178 84.2705 39.6178 86.2655C39.6178 87.2889 39.32 88.0662 38.7374 88.6233C38.1548 89.1674 37.3261 89.4524 36.2515 89.4524C33.9599 89.4524 32.8076 87.7812 32.8076 84.4518C32.8076 82.7677 33.1313 81.537 33.7916 80.7338C34.4519 79.9436 35.3711 79.542 36.5623 79.542C37.352 79.542 38.103 79.5938 38.8021 79.7234L39.1905 79.8011L39.0869 80.7209L39.0999 80.682ZM36.3033 84.2705C35.9796 84.2705 35.6171 84.3223 35.2158 84.413C34.8144 84.5037 34.5166 84.5944 34.2965 84.685L33.9599 84.8275C33.9599 85.9287 34.1541 86.8096 34.5166 87.4703C34.8791 88.131 35.4359 88.4419 36.1868 88.4419C36.9377 88.4419 37.4945 88.2605 37.8699 87.8848C38.2454 87.5092 38.4396 86.978 38.4396 86.2914C38.4396 85.6048 38.2583 85.0996 37.8829 84.7628C37.5074 84.4389 36.9766 84.2705 36.3033 84.2705Z" fill="black"/>
</g>
<path id="Vector_31" d="M47.3345 86.123V85.1384H53.575V86.123H47.3345Z" fill="black"/>
<path id="Vector_32" d="M66.9881 80.682C66.1077 80.5654 65.2661 80.5136 64.4375 80.5136C63.6089 80.5136 62.9745 80.7986 62.5343 81.3686C62.0811 81.9386 61.861 82.7677 61.861 83.83L62.2236 83.6875C62.4695 83.5968 62.7932 83.5062 63.1946 83.4155C63.5959 83.3248 63.9585 83.273 64.2692 83.273C66.4313 83.273 67.506 84.2705 67.506 86.2655C67.506 87.2889 67.2082 88.0662 66.6256 88.6233C66.0429 89.1674 65.2143 89.4524 64.1397 89.4524C61.8481 89.4524 60.6958 87.7812 60.6958 84.4518C60.6958 82.7677 61.0195 81.537 61.6798 80.7338C62.3401 79.9436 63.2593 79.542 64.4504 79.542C65.2402 79.542 65.9911 79.5938 66.6903 79.7234L67.0787 79.8011L66.9751 80.7209L66.9881 80.682ZM64.1915 84.2705C63.8678 84.2705 63.5053 84.3223 63.104 84.413C62.7026 84.5037 62.4048 84.5944 62.1847 84.685L61.8481 84.8275C61.8481 85.9287 62.0423 86.8096 62.4048 87.4703C62.7673 88.131 63.3241 88.4419 64.075 88.4419C64.8259 88.4419 65.3826 88.2605 65.7581 87.8848C66.1336 87.5092 66.3278 86.978 66.3278 86.2914C66.3278 85.6048 66.1465 85.0996 65.771 84.7628C65.3956 84.4389 64.8648 84.2705 64.1915 84.2705Z" fill="black"/>
<path id="Vector_33" d="M77.4362 82.8455C76.8535 83.6487 76.1544 84.6203 75.3646 85.7862C75.2481 86.693 75.1834 87.3278 75.1834 87.7035C75.1834 88.0144 75.2222 88.2346 75.2869 88.3771C75.3517 88.5196 75.4811 88.5844 75.6365 88.5844C75.766 88.5844 75.9213 88.5326 76.0897 88.416C76.258 88.2994 76.4392 88.131 76.6334 87.8978L77.0477 88.2864C76.6464 88.714 76.3098 89.0119 76.012 89.1674C75.7142 89.3228 75.4164 89.4006 75.1057 89.4006C74.4713 89.4006 74.1605 88.9342 74.1605 88.0144C74.1605 87.8071 74.1735 87.5869 74.1994 87.3407H74.1346C73.6427 88.0662 73.1895 88.5974 72.7493 88.9212C72.3091 89.2451 71.843 89.4006 71.351 89.4006C71.0015 89.4006 70.7166 89.2969 70.4706 89.1026C70.2376 88.9083 70.0563 88.6362 69.9398 88.3124C69.8233 87.9885 69.7715 87.6257 69.7715 87.2371C69.7715 86.3821 69.9268 85.5789 70.2505 84.8275C70.5742 84.0632 71.0273 83.4673 71.597 83.0398C72.1667 82.5993 72.814 82.392 73.5261 82.392C74.057 82.392 74.4713 82.5605 74.7691 82.8843C75.0668 83.2211 75.2351 83.7005 75.274 84.3482H75.3387L76.2709 82.5086H77.5009L77.4362 82.8714V82.8455ZM74.3418 85.838C74.4195 85.3457 74.4583 84.9053 74.4583 84.5296C74.4583 83.9855 74.3806 83.5839 74.2253 83.3248C74.0699 83.0657 73.8239 82.9361 73.4873 82.9361C73.0471 82.9361 72.6457 83.1305 72.2703 83.5191C71.8948 83.9078 71.597 84.4389 71.3769 85.0996C71.1568 85.7603 71.0403 86.4469 71.0403 87.1464C71.0403 87.6258 71.105 87.9755 71.2474 88.2087C71.3899 88.4419 71.597 88.5585 71.8819 88.5585C72.2832 88.5585 72.7105 88.3253 73.1377 87.846C73.565 87.3667 73.9663 86.706 74.3418 85.851V85.838Z" fill="black"/>
<path id="Vector_34" d="M113.222 84.6462H122.207L120.576 82.5734L120.99 82.1848L123.787 84.8923V85.3457L120.99 88.0533L120.576 87.6646L122.207 85.5919H113.222V84.6462ZM136.359 82.8455C135.776 83.6487 135.077 84.6203 134.287 85.7862C134.171 86.693 134.106 87.3278 134.106 87.7035C134.106 88.0144 134.145 88.2346 134.209 88.3771C134.274 88.5196 134.404 88.5844 134.559 88.5844C134.688 88.5844 134.844 88.5326 135.012 88.416C135.18 88.2994 135.362 88.131 135.556 87.8978L135.97 88.2864C135.569 88.714 135.232 89.0119 134.934 89.1674C134.637 89.3228 134.339 89.4006 134.028 89.4006C133.394 89.4006 133.083 88.9342 133.083 88.0144C133.083 87.8071 133.096 87.5869 133.122 87.3407H133.057C132.565 88.0662 132.112 88.5974 131.672 88.9212C131.232 89.2451 130.765 89.4006 130.273 89.4006C129.924 89.4006 129.639 89.2969 129.393 89.1026C129.16 88.9083 128.979 88.6362 128.862 88.3124C128.746 87.9885 128.694 87.6257 128.694 87.2371C128.694 86.3821 128.849 85.5789 129.173 84.8275C129.497 84.0632 129.95 83.4673 130.519 83.0398C131.089 82.5993 131.736 82.392 132.449 82.392C132.979 82.392 133.394 82.5605 133.691 82.8843C133.989 83.2211 134.158 83.7005 134.196 84.3482H134.261L135.193 82.5086H136.423L136.359 82.8714V82.8455ZM133.264 85.838C133.342 85.3457 133.381 84.9053 133.381 84.5296C133.381 83.9855 133.303 83.5839 133.148 83.3248C132.992 83.0657 132.746 82.9361 132.41 82.9361C131.97 82.9361 131.568 83.1305 131.193 83.5191C130.817 83.9078 130.519 84.4389 130.299 85.0996C130.079 85.7603 129.963 86.4469 129.963 87.1464C129.963 87.6258 130.027 87.9755 130.17 88.2087C130.312 88.4419 130.519 88.5585 130.804 88.5585C131.206 88.5585 131.633 88.3253 132.06 87.846C132.487 87.3667 132.889 86.706 133.264 85.851V85.838Z" fill="black"/>
<path id="Vector_35" d="M141.511 84.7757V83.7653H147.804V84.7757H141.511ZM141.511 87.4833V86.4728H147.804V87.4833H141.511Z" fill="black"/>
<path id="Vector_36" d="M160.802 68.9839V78.5963H159.676V70.2276L157.203 71.8599L156.698 71.0178L159.754 68.9839H160.802Z" fill="black"/>
<path id="Vector_37" d="M162.291 99H156.142V98.0543L158.951 95.1006C159.443 94.5954 159.793 94.2067 160.013 93.9477C160.233 93.6886 160.44 93.3777 160.621 93.0149C160.803 92.6522 160.893 92.2895 160.893 91.9397C160.893 91.3178 160.725 90.8774 160.388 90.6312C160.052 90.3851 159.521 90.2556 158.796 90.2556C158.161 90.2556 157.462 90.3333 156.685 90.5017L156.31 90.5794L156.219 89.6467C157.139 89.3876 158.097 89.258 159.081 89.258C160.065 89.258 160.803 89.4653 161.307 89.8799C161.812 90.2944 162.058 90.9422 162.058 91.836C162.058 92.5226 161.903 93.1056 161.605 93.6108C161.307 94.1161 160.79 94.7249 160.052 95.4374L157.488 98.0414H162.304V99.013L162.291 99Z" fill="black"/>
<path id="Vector_38" d="M162.9 84.4259H155.132V85.3975H162.9V84.4259Z" fill="black"/>
</g>
<defs>
<clipPath id="clip0_16_243">
<rect width="162.9" height="99" fill="white"/>
</clipPath>
</defs>
</svg>
