<svg width="9" height="21" viewBox="0 0 9 21" fill="none" xmlns="http://www.w3.org/2000/svg">
<path d="M5.66667 4.29185L8 2.40025V1.89159L5.66667 0L5.17633 0.524559L6.66425 1.73263H1V2.55921H6.66425L5.17633 3.76729L5.66667 4.29185Z" fill="black"/>
<path d="M8.53418 12.582V14.5332C8.53418 15.582 8.44043 16.4668 8.25293 17.1875C8.06543 17.9082 7.7959 18.4883 7.44434 18.9277C7.09277 19.3672 6.66797 19.6865 6.16992 19.8857C5.67773 20.0791 5.12109 20.1758 4.5 20.1758C4.00781 20.1758 3.55371 20.1143 3.1377 19.9912C2.72168 19.8682 2.34668 19.6719 2.0127 19.4023C1.68457 19.127 1.40332 18.7695 1.16895 18.3301C0.93457 17.8906 0.755859 17.3574 0.632812 16.7305C0.509766 16.1035 0.448242 15.3711 0.448242 14.5332V12.582C0.448242 11.5332 0.541992 10.6543 0.729492 9.94531C0.922852 9.23633 1.19531 8.66797 1.54688 8.24023C1.89844 7.80664 2.32031 7.49609 2.8125 7.30859C3.31055 7.12109 3.86719 7.02734 4.48242 7.02734C4.98047 7.02734 5.4375 7.08887 5.85352 7.21191C6.27539 7.3291 6.65039 7.51953 6.97852 7.7832C7.30664 8.04102 7.58496 8.38672 7.81348 8.82031C8.04785 9.24805 8.22656 9.77246 8.34961 10.3936C8.47266 11.0146 8.53418 11.7441 8.53418 12.582ZM6.89941 14.7969V12.3096C6.89941 11.7354 6.86426 11.2314 6.79395 10.7979C6.72949 10.3584 6.63281 9.9834 6.50391 9.67285C6.375 9.3623 6.21094 9.11035 6.01172 8.91699C5.81836 8.72363 5.59277 8.58301 5.33496 8.49512C5.08301 8.40137 4.79883 8.35449 4.48242 8.35449C4.0957 8.35449 3.75293 8.42773 3.4541 8.57422C3.15527 8.71484 2.90332 8.94043 2.69824 9.25098C2.49902 9.56152 2.34668 9.96875 2.24121 10.4727C2.13574 10.9766 2.08301 11.5889 2.08301 12.3096V14.7969C2.08301 15.3711 2.11523 15.8779 2.17969 16.3174C2.25 16.7568 2.35254 17.1377 2.4873 17.46C2.62207 17.7764 2.78613 18.0371 2.97949 18.2422C3.17285 18.4473 3.39551 18.5996 3.64746 18.6992C3.90527 18.793 4.18945 18.8398 4.5 18.8398C4.89844 18.8398 5.24707 18.7637 5.5459 18.6113C5.84473 18.459 6.09375 18.2217 6.29297 17.8994C6.49805 17.5713 6.65039 17.1523 6.75 16.6426C6.84961 16.127 6.89941 15.5117 6.89941 14.7969Z" fill="black"/>
</svg>
